<svg width="64.000000pt" height="64.000000pt" viewBox="0 0 64.000000 64.000000" xmlns="http://www.w3.org/2000/svg">
  <g transform="translate(0.000000,64.000000) scale(0.100000,-0.100000)" fill="none" stroke="none">
    <path d="M0 608 l0 -31 25 23 c14 13 25 27 25 32 0 4 -11 8 -25 8 l-25 0 0
-32z" />
    <path d="M110 634 c0 -3 9 -18 21 -32 l20 -26 -6 -35 -6 -34 27 -22 28 -23 -1
-43 -2 -43 24 -22 25 -23 0 -25 c0 -14 -5 -35 -10 -48 l-11 -23 36 -99 36 -99
-6 -18 -6 -19 41 0 41 0 -6 19 -6 18 36 99 36 99 -11 23 c-5 13 -10 34 -10 48
l0 25 25 23 24 22 -2 43 -1 43 28 23 27 22 -6 34 -6 35 20 26 c12 14 21 29 21
32 0 3 -94 6 -210 6 -116 0 -210 -3 -210 -6z" />
    <path d="M590 632 c0 -10 33 -42 43 -42 4 0 7 11 7 25 l0 25 -25 0 c-14 0 -25
-4 -25 -8z" />
    <path d="M601 509 l-33 -31 11 -24 11 -25 -15 -28 c-8 -16 -22 -31 -31 -35
l-16 -6 7 -40 7 -39 -26 -26 c-14 -14 -31 -25 -39 -25 l-13 0 -36 -98 c-19
-53 -38 -105 -43 -114 l-7 -18 131 0 131 0 0 270 c0 149 -1 270 -2 270 -2 0
-18 -14 -37 -31z" />
    <path d="M0 265 l0 -265 131 0 131 0 -7 18 c-5 9 -24 61 -43 114 l-36 98 -13
0 c-8 0 -25 11 -39 25 l-26 26 7 39 7 40 -16 6 c-9 4 -23 19 -31 35 l-15 28
11 25 12 25 -29 25 c-16 14 -32 26 -36 26 -5 0 -8 -119 -8 -265z" />
  </g>
  <g transform="translate(0.000000,64.000000) scale(0.100000,-0.100000)" fill="#000000" stroke="none">
    <path d="M22 617 l-22 -23 0 -36 0 -36 28 -24 29 -24 -10 -22 -10 -21 13 -31
c7 -17 21 -35 31 -40 l18 -10 -6 -35 -6 -35 17 -25 c9 -13 27 -27 40 -31 l23
-5 28 -82 c15 -45 34 -95 42 -110 l14 -28 22 3 22 3 3 21 c2 11 -12 63 -31
115 l-34 94 13 32 14 32 -11 28 c-5 15 -18 34 -27 41 l-17 13 0 46 -1 45 -25
22 -26 21 4 35 5 35 -22 28 -21 27 -38 0 -38 0 -21 -23z m88 -17 l15 -10 -17
0 c-9 0 -18 -5 -20 -11 l-4 -11 -29 4 -29 3 18 18 c19 19 43 22 66 7z m2 -73
l-20 -20 -29 8 -28 8 31 7 c41 9 54 18 55 38 l1 17 5 -19 5 -18 -20 -21z m28
-67 l-11 -20 -24 0 c-14 0 -25 -5 -25 -12 0 -6 -3 -8 -6 -5 -4 4 1 18 10 32
l16 25 26 0 25 0 -11 -20z m26 -55 l-16 -25 -24 0 c-13 0 -28 6 -35 13 l-11
13 29 -4 29 -4 18 21 c24 27 31 18 10 -14z m37 -62 c11 -11 -26 -32 -57 -33
l-29 0 18 20 c18 19 55 27 68 13z m7 -78 c-16 -19 -54 -19 -69 -1 l-11 13 22
-4 c13 -2 32 3 43 11 l20 15 3 -10 c2 -5 -2 -16 -8 -24z" />
    <path d="M500 613 l-22 -28 5 -35 4 -35 -26 -21 -25 -22 -1 -45 0 -46 -17 -13
c-9 -7 -22 -26 -27 -41 l-11 -28 14 -32 13 -32 -34 -94 c-19 -52 -33 -104 -31
-115 l3 -21 22 -3 22 -3 14 28 c8 15 27 65 42 110 l28 82 23 5 c13 4 31 18 40
31 l17 25 -6 35 -6 35 18 10 c10 5 24 23 31 40 l13 31 -10 21 -10 22 29 24 28
24 0 37 0 38 -23 21 -23 22 -36 0 -37 0 -21 -27z m96 -20 l16 -17 -18 -7 c-22
-7 -44 -1 -44 12 0 5 -8 9 -17 9 l-18 0 15 10 c23 15 47 12 66 -7z m-39 -59
c48 -10 49 -11 20 -19 l-28 -7 -19 17 c-11 10 -20 28 -19 39 l0 21 9 -22 9
-22 28 -7z m-1 -79 c9 -14 14 -28 10 -32 -3 -3 -6 -1 -6 5 0 7 -11 12 -25 12
l-24 0 -11 20 -11 20 25 0 26 0 16 -25z m-25 -53 l29 4 -11 -13 c-7 -7 -22
-13 -35 -13 l-23 0 -15 22 c-23 33 -19 45 5 19 l22 -23 28 4z m-26 -72 l18
-20 -29 0 c-31 1 -68 22 -57 33 13 14 50 6 68 -13z m-14 -57 l20 5 -12 -14
c-23 -27 -79 -11 -79 23 l0 13 25 -16 25 -16 21 5z" />
  </g>
  <g transform="translate(0.000000,64.000000) scale(0.100000,-0.100000)" fill="#fe928c" stroke="none">
    <path d="M43 613 c-7 -2 -13 -15 -13 -28 l0 -23 21 -5 c24 -6 49 1 49 14 0 5
7 9 15 9 20 0 19 26 -1 34 -18 7 -53 7 -71 -1z" />
    <path d="M523 613 c-18 -7 -16 -33 2 -33 8 0 15 -4 15 -9 0 -14 29 -22 56 -15
28 7 31 26 8 48 -15 15 -55 20 -81 9z" />
    <path d="M87 483 c-13 -12 -7 -51 9 -57 9 -3 17 -6 19 -6 2 0 16 11 30 24 15
14 24 30 20 35 -7 12 -68 15 -78 4z" />
    <path d="M475 479 c-4 -5 5 -21 20 -35 l27 -25 14 5 c8 3 14 1 14 -4 0 -6 7
-10 15 -10 l15 0 0 18 c0 10 -7 28 -16 40 l-15 22 -34 0 c-19 0 -37 -5 -40
-11z" />
    <path d="M137 354 c-13 -13 -7 -52 9 -58 l16 -6 29 17 30 18 -3 15 -3 15 -35
3 c-20 2 -39 0 -43 -4z" />
    <path d="M427 353 c-14 -13 -6 -29 21 -45 l27 -16 28 5 c31 6 35 23 9 46 -18
17 -73 23 -85 10z" />
  </g>
  <g transform="translate(0.000000,64.000000) scale(0.100000,-0.100000)" fill="#f5b795" stroke="none">
    <path d="M506 593 c-3 -3 -6 -18 -6 -33 l0 -27 19 -17 19 -17 28 3 c15 2 29 8
31 15 l4 12 -35 15 -36 15 0 15 c0 17 -14 29 -24 19z" />
    <path d="M20 541 c0 -5 7 -17 16 -26 l17 -16 30 3 c17 2 32 8 34 14 l4 11 -45
12 c-54 13 -56 13 -56 2z" />
    <path d="M160 440 c0 -5 7 -10 15 -10 8 0 15 5 15 10 0 6 -7 10 -15 10 -8 0
-15 -4 -15 -10z" />
    <path d="M450 432 c0 -10 7 -28 16 -40 l15 -22 34 0 c37 0 48 10 39 33 l-5 15
-19 -5 -19 -5 -17 21 c-22 26 -44 27 -44 3z" />
    <path d="M60 422 c0 -4 7 -18 16 -30 l15 -22 34 0 34 0 16 22 15 23 -12 4 c-7
2 -14 -1 -16 -7 l-4 -12 -26 6 c-15 4 -31 11 -36 15 -12 11 -36 12 -36 1z" />
    <path d="M406 314 c-3 -9 0 -28 7 -42 l12 -27 39 0 39 0 5 13 4 12 -17 0 c-9
0 -30 14 -47 30 -16 17 -31 30 -33 30 -1 0 -6 -7 -9 -16z" />
    <path d="M189 294 l-13 -15 -23 6 c-13 3 -29 3 -34 -1 l-10 -6 17 -19 17 -19
32 0 c39 0 56 18 48 48 -6 26 -16 28 -34 6z" />
  </g>
  <g transform="translate(0.000000,64.000000) scale(0.100000,-0.100000)" fill="#0c0a09" stroke="none">
    <path d="M83 633 c15 -2 25 -8 22 -13 -3 -5 0 -12 5 -15 l11 -7 -31 -23 -31
-23 16 -6 16 -6 -7 12 -7 11 15 -5 c8 -4 20 -3 25 0 14 9 20 53 10 70 l-8 12
-32 -1 -32 -2 28 -4z m44 -20 c-4 -3 -10 -3 -14 0 -3 4 0 7 7 7 7 0 10 -3 7
-7z m-20 -50 c-4 -3 -7 0 -7 7 0 7 3 10 7 7 3 -4 3 -10 0 -14z" />
    <path d="M513 628 l-10 -13 13 -32 14 -32 17 6 16 6 -5 -9 c-4 -5 4 -9 16 -9
13 0 23 5 23 12 0 6 -6 9 -13 6 -8 -3 -25 4 -39 15 l-26 20 11 7 c6 3 8 10 5
15 -3 5 7 11 22 13 l28 4 -31 2 c-17 0 -36 -5 -41 -11z m14 -15 c-4 -3 -10 -3
-14 0 -3 4 0 7 7 7 7 0 10 -3 7 -7z m10 -50 c-4 -3 -7 0 -7 7 0 7 3 10 7 7 3
-4 3 -10 0 -14z" />
    <path d="M27 605 c3 -8 9 -12 14 -9 12 7 11 11 -5 17 l-15 6 6 -14z" />
    <path d="M601 611 l-13 -8 10 -7 c5 -3 12 1 16 9 6 17 6 18 -13 6z" />
    <path d="M632 562 c-1 -18 -6 -31 -10 -28 -13 8 -32 -9 -37 -32 -2 -12 0 -22
4 -22 4 0 18 11 30 24 l22 24 -4 33 -4 34 -1 -33z m-17 -51 c-3 -6 -11 -11
-16 -11 l-10 0 13 14 c14 16 24 13 13 -3z" />
    <path d="M1 554 l-1 -31 23 -21 c27 -25 36 -28 33 -8 -3 20 -27 47 -36 41 -5
-3 -11 7 -13 22 l-4 28 -2 -31z m44 -53 c-6 -5 -25 10 -25 20 l0 10 14 -13 c8
-7 12 -15 11 -17z" />
    <path d="M135 510 c-3 -5 -1 -10 4 -10 6 0 11 5 11 10 0 6 -2 10 -4 10 -3 0
-8 -4 -11 -10z" />
    <path d="M490 510 c0 -5 5 -10 11 -10 5 0 7 5 4 10 -3 6 -8 10 -11 10 -2 0 -4
-4 -4 -10z" />
    <path d="M163 486 c0 -8 5 -14 11 -13 6 1 11 -5 10 -14 -1 -9 4 -16 11 -16
l13 0 -6 16 c-12 37 -39 54 -39 27z" />
    <path d="M453 488 c-6 -7 -12 -20 -15 -29 l-6 -16 13 0 c7 0 12 7 11 16 0 9 4
15 10 14 6 -1 11 5 11 13 0 17 -11 18 -24 2z" />
    <path d="M55 430 l0 -27 15 2 c8 2 18 4 21 4 10 2 6 26 -6 36 -20 18 -30 13
-30 -15z" />
    <path d="M566 436 c3 -12 2 -15 -2 -8 -3 6 -9 12 -13 12 -9 0 -11 -30 -2 -31
3 0 13 -2 21 -4 l15 -2 0 27 c0 14 -5 27 -11 27 l-11 0 3 -21z" />
    <path d="M147 433 c3 -7 9 -13 14 -13 5 0 9 6 9 13 0 8 -6 14 -14 14 l-14 0 5
-14z" />
    <path d="M470 439 c0 -15 18 -19 23 -6 l5 14 -14 0 c-8 0 -14 -4 -14 -8z" />
    <path d="M187 403 c3 -7 6 -13 8 -13 2 0 5 6 8 13 l5 14 -13 0 -13 0 5 -14z" />
    <path d="M437 403 c3 -7 6 -13 8 -13 2 0 5 6 8 13 l5 14 -13 0 -13 0 5 -14z" />
    <path d="M83 375 l0 -13 14 5 c7 3 13 6 13 8 0 2 -6 5 -13 8 l-14 5 0 -13z" />
    <path d="M542 381 l-14 -8 14 -6 15 -5 0 14 c0 8 -1 14 -1 14 -1 0 -7 -4 -14
-9z" />
    <path d="M202 363 l-13 -5 12 -14 11 -14 -11 0 c-6 0 -11 -4 -11 -9 0 -15 32
-6 42 12 l9 17 -13 -2 c-7 -2 -12 3 -10 10 1 6 1 12 0 11 -2 0 -9 -3 -16 -6z" />
    <path d="M423 357 c1 -7 -4 -11 -11 -9 l-13 2 9 -17 c10 -18 42 -27 42 -12 0
5 -5 9 -11 9 l-11 0 11 14 12 14 -16 5 -15 6 3 -12z" />
    <path d="M100 348 c0 -19 18 -43 25 -36 9 9 -4 48 -16 48 -5 0 -9 -6 -9 -12z" />
    <path d="M516 344 c-3 -9 -3 -20 0 -26 l7 -10 8 13 c11 18 11 39 0 39 -5 0
-12 -7 -15 -16z" />
    <path d="M236 315 c-3 -9 -2 -24 2 -32 l9 -15 7 17 c3 9 2 24 -2 32 l-9 15 -7
-17z m11 -22 c-4 -3 -7 0 -7 7 0 7 3 10 7 7 3 -4 3 -10 0 -14z" />
    <path d="M387 317 l-5 -14 13 0 13 0 -5 14 c-6 16 -10 16 -16 0z" />
    <path d="M134 290 c-27 -11 -38 -27 -19 -27 8 0 12 4 9 9 l-6 9 36 -6 36 -7 0
10 c0 8 -26 24 -33 21 -1 0 -12 -4 -23 -9z m33 -7 c-4 -3 -10 -3 -14 0 -3 4 0
7 7 7 7 0 10 -3 7 -7z" />
    <path d="M460 290 c-8 -5 -12 -11 -10 -13 3 -3 25 -7 48 -10 l44 -5 -14 13
c-19 19 -51 26 -68 15z m27 -7 c-4 -3 -10 -3 -14 0 -3 4 0 7 7 7 7 0 10 -3 7
-7z" />
    <path d="M195 250 c-3 -5 -2 -10 4 -10 5 0 13 5 16 10 3 6 2 10 -4 10 -5 0
-13 -4 -16 -10z" />
    <path d="M425 250 c3 -5 11 -10 16 -10 6 0 7 5 4 10 -3 6 -11 10 -16 10 -6 0
-7 -4 -4 -10z" />
    <path d="M214 232 c-6 -4 -11 -18 -10 -32 l1 -25 -12 2 -12 3 5 -15 6 -14 24
26 c26 28 31 38 12 27 l-11 -7 5 21 c4 12 5 22 5 22 -1 0 -7 -4 -13 -8z" />
    <path d="M418 218 l5 -21 -11 7 c-19 11 -14 1 12 -27 l24 -26 6 14 5 15 -12
-3 -12 -2 2 27 2 26 -14 5 -13 6 6 -21z" />
    <path d="M237 176 l-7 -17 10 6 c6 3 10 -1 10 -10 0 -8 -6 -18 -14 -21 -8 -3
-17 -12 -20 -20 -3 -8 -2 -13 2 -10 4 2 14 1 21 -4 l14 -8 -6 -17 c-4 -9 -11
-13 -17 -10 -5 3 -10 2 -10 -3 0 -21 14 -19 36 5 26 28 31 38 13 27 l-11 -7 6
29 6 29 -14 24 -13 23 -6 -16z m20 -53 c-4 -3 -7 0 -7 7 0 7 3 10 7 7 3 -4 3
-10 0 -14z" />
    <path d="M376 153 c-10 -10 -7 -25 4 -18 6 3 14 -2 18 -12 4 -10 13 -19 20
-20 6 -2 12 -1 12 1 0 1 -11 15 -24 29 -13 14 -27 23 -30 20z" />
    <path d="M360 96 c0 -1 11 -15 24 -29 22 -24 36 -26 36 -5 0 5 -5 6 -10 3 -6
-3 -14 2 -18 12 -4 10 -13 19 -19 21 -7 1 -13 0 -13 -2z" />
  </g>
  <g transform="translate(0.000000,64.000000) scale(0.100000,-0.100000)" fill="#1e1817" stroke="none">
    <path d="M140 600 c0 -5 -3 -9 -7 -9 -5 1 -15 1 -23 0 l-15 -1 15 -10 14 -9
12 9 c6 6 14 7 18 3 4 -4 4 0 0 10 -7 19 -14 22 -14 7z" />
    <path d="M488 599 l-6 -14 30 -2 31 -1 -14 8 c-7 5 -16 7 -20 4 -4 -2 -9 1
-11 8 l-4 12 -6 -15z" />
    <path d="M20 539 c0 -5 5 -7 10 -4 6 3 10 8 10 11 0 2 -4 4 -10 4 -5 0 -10 -5
-10 -11z" />
    <path d="M120 537 c0 -8 6 -14 14 -14 l14 0 -5 14 c-3 7 -9 13 -14 13 -5 0 -9
-6 -9 -13z" />
    <path d="M497 537 l-5 -14 13 0 13 0 -5 14 c-3 7 -6 13 -8 13 -2 0 -5 -6 -8
-13z" />
    <path d="M600 540 c0 -5 5 -10 10 -10 6 0 10 5 10 10 0 6 -4 10 -10 10 -5 0
-10 -4 -10 -10z" />
    <path d="M152 491 l-14 -8 14 -6 15 -5 0 14 c0 8 -1 14 -1 14 -1 0 -7 -4 -14
-9z" />
    <path d="M473 485 l0 -13 14 5 c7 3 13 6 13 8 0 2 -6 5 -13 8 l-14 5 0 -13z" />
    <path d="M85 480 c-4 -6 -11 -8 -16 -5 l-9 6 6 -15 c8 -21 17 -20 32 4 l12 20
-9 0 c-6 0 -13 -5 -16 -10z" />
    <path d="M530 487 c0 -1 9 -10 19 -19 l19 -16 6 14 6 15 -9 -6 c-5 -3 -12 -1
-16 5 -5 9 -25 15 -25 7z" />
    <path d="M95 432 c2 -2 -6 -13 -16 -23 -21 -21 -21 -40 -1 -47 l11 -3 -5 27
-5 26 18 -6 c9 -4 14 -4 10 0 -4 4 0 12 9 18 l15 12 -20 0 c-11 0 -18 -2 -16
-4z" />
    <path d="M530 417 c19 -17 24 -31 21 -50 -2 -13 22 -3 27 11 2 6 -6 20 -17 31
-10 10 -18 21 -16 23 2 2 -5 4 -15 4 l-19 0 19 -19z" />
    <path d="M154 383 c-10 -7 -13 -13 -8 -13 6 0 15 5 22 12 l12 12 0 -12 c0 -7
5 -12 10 -12 6 0 10 6 10 13 0 8 -6 14 -14 14 -7 0 -22 -6 -32 -14z" />
    <path d="M440 384 c0 -8 5 -14 10 -14 6 0 10 5 10 12 l0 12 12 -12 c7 -7 17
-12 23 -12 12 1 -25 23 -42 26 -7 1 -13 -4 -13 -12z" />
    <path d="M135 350 l-6 -10 15 6 c18 7 21 14 7 14 -6 0 -13 -4 -16 -10z" />
    <path d="M211 351 l-13 -8 10 -7 c5 -3 12 1 16 9 6 17 6 18 -13 6z" />
    <path d="M417 345 c3 -8 9 -12 14 -9 12 7 11 11 -5 17 l-15 6 6 -14z" />
    <path d="M480 356 c0 -2 7 -7 16 -10 l15 -6 -6 10 c-6 10 -25 14 -25 6z" />
    <path d="M181 313 c-7 -8 -20 -12 -28 -9 l-14 6 6 -11 7 -10 20 7 21 6 -8 -13
-8 -14 8 7 c9 9 37 -11 30 -21 -2 -4 1 -8 8 -8 l12 0 0 31 0 31 -15 0 c-8 0
-17 3 -20 6 -3 4 -11 0 -19 -8z m30 -20 l14 -18 -17 14 c-17 13 -22 21 -14 21
2 0 10 -8 17 -17z" />
    <path d="M440 320 c0 -6 -4 -8 -10 -5 l-10 6 6 -15 c3 -8 12 -17 20 -20 l15
-6 -7 11 -7 11 21 -6 20 -7 7 10 6 11 -14 -6 c-8 -3 -22 2 -31 11 l-16 16 0
-11z" />
    <path d="M400 300 c0 -7 3 -10 7 -7 3 4 3 10 0 14 -4 3 -7 0 -7 -7z" />
    <path d="M407 267 l-5 -14 13 0 13 0 -5 14 c-6 16 -10 16 -16 0z" />
    <path d="M132 241 l-14 -8 31 -11 32 -11 -6 9 c-4 6 -13 10 -21 10 -8 0 -12 5
-9 10 7 12 4 12 -13 1z" />
    <path d="M495 240 c3 -6 -1 -10 -9 -10 -8 0 -17 -4 -21 -10 l-6 -9 31 10 c16
6 30 12 30 14 0 2 -7 6 -16 9 l-15 6 6 -10z" />
    <path d="M230 211 c0 -6 4 -13 10 -16 l10 -6 -6 15 c-7 18 -14 21 -14 7z" />
    <path d="M206 164 l7 -27 -11 7 -12 7 7 -17 7 -18 4 12 4 13 14 -12 c8 -7 17
-9 20 -6 8 8 -19 60 -34 65 l-13 4 7 -28z" />
    <path d="M387 175 l-7 -16 12 7 11 7 -7 -27 -6 -26 9 0 c5 0 13 5 17 11 l7 11
7 -12 7 -12 6 17 7 16 -12 -7 -11 -7 7 27 6 26 -9 0 c-5 0 -13 -5 -17 -11 l-6
-11 -8 12 -7 12 -6 -17z" />
    <path d="M246 54 l7 -27 -13 8 -12 7 12 -21 11 -22 22 3 22 3 3 22 c2 12 -1
30 -7 40 l-10 18 6 -37 6 -38 -22 0 c-11 0 -21 5 -21 11 0 5 4 8 9 5 5 -3 12
1 15 10 6 17 -9 44 -25 44 l-9 0 6 -26z" />
    <path d="M344 55 c-8 -34 1 -55 25 -55 l20 0 12 21 11 21 -12 -7 -13 -8 7 27
6 26 -9 0 c-16 0 -31 -27 -25 -44 3 -9 10 -13 15 -10 5 3 9 0 9 -5 0 -6 -10
-11 -21 -11 l-22 0 6 35 c7 40 0 47 -9 10z" />
  </g>
  <g transform="translate(0.000000,64.000000) scale(0.100000,-0.100000)" fill="#fcceb1" stroke="none">
    <path d="M120 585 c0 -8 -14 -24 -31 -34 l-30 -19 30 -10 31 -11 10 19 c13 24
13 57 0 65 l-10 6 0 -16z" />
    <path d="M540 545 c0 -2 13 -11 29 -19 l29 -15 11 13 12 14 -11 7 c-6 4 -17 2
-25 -5 l-13 -11 -7 11 c-6 10 -25 14 -25 5z" />
    <path d="M160 439 c0 -5 -12 -15 -26 -22 l-27 -14 32 -11 c29 -10 35 -8 32 11
0 4 4 7 9 7 6 0 10 8 10 18 l0 19 -15 0 c-8 0 -15 -4 -15 -8z" />
    <path d="M551 414 l-23 -16 -11 11 c-13 13 -31 15 -23 2 3 -5 19 -14 35 -19
l29 -10 11 24 c6 13 9 24 8 24 -1 0 -13 -7 -26 -16z" />
    <path d="M208 308 c-2 -13 -9 -24 -15 -24 -7 -1 -19 -2 -25 -3 -7 -1 -2 -8 12
-16 30 -17 44 -19 35 -5 -3 6 -1 10 4 10 6 0 11 14 11 30 0 35 -17 41 -22 8z" />
    <path d="M450 278 c0 -9 57 -28 64 -21 3 4 6 12 6 18 l0 12 -35 -1 c-19 -1
-35 -4 -35 -8z" />
  </g>
  <g transform="translate(0.000000,64.000000) scale(0.100000,-0.100000)" fill="#312b29" stroke="none">
    <path d="M53 633 c4 -3 10 -3 14 0 3 4 0 7 -7 7 -7 0 -10 -3 -7 -7z" />
    <path d="M93 633 c4 -3 10 -3 14 0 3 4 0 7 -7 7 -7 0 -10 -3 -7 -7z" />
    <path d="M533 633 c4 -3 10 -3 14 0 3 4 0 7 -7 7 -7 0 -10 -3 -7 -7z" />
    <path d="M573 633 c4 -3 10 -3 14 0 3 4 0 7 -7 7 -7 0 -10 -3 -7 -7z" />
    <path d="M126 587 c3 -10 9 -15 12 -12 3 3 0 11 -7 18 l-12 12 7 -18z" />
    <path d="M505 589 c-4 -6 -5 -12 -2 -15 2 -3 7 2 10 11 7 17 1 20 -8 4z" />
    <path d="M631 584 l1 -19 5 13 c3 7 2 16 -1 19 -3 4 -6 -2 -5 -13z" />
    <path d="M0 580 c0 -7 3 -10 7 -7 3 4 3 10 0 14 -4 3 -7 0 -7 -7z" />
    <path d="M1 534 l1 -19 5 13 c3 7 2 16 -1 19 -3 4 -6 -2 -5 -13z" />
    <path d="M33 543 c4 -3 10 -3 14 0 3 4 0 7 -7 7 -7 0 -10 -3 -7 -7z" />
    <path d="M83 543 c4 -3 10 -3 14 0 3 4 0 7 -7 7 -7 0 -10 -3 -7 -7z" />
    <path d="M543 543 c4 -3 10 -3 14 0 3 4 0 7 -7 7 -7 0 -10 -3 -7 -7z" />
    <path d="M593 543 c4 -3 10 -3 14 0 3 4 0 7 -7 7 -7 0 -10 -3 -7 -7z" />
    <path d="M630 540 c0 -7 3 -10 7 -7 3 4 3 10 0 14 -4 3 -7 0 -7 -7z" />
    <path d="M145 530 c-8 -12 12 -40 28 -40 6 0 3 6 -8 13 l-18 14 7 11 c4 7 5
12 2 12 -3 0 -8 -5 -11 -10z" />
    <path d="M485 531 l8 -14 -18 -14 c-11 -7 -14 -13 -8 -13 6 0 16 7 23 15 l13
16 -13 12 -13 12 8 -14z" />
    <path d="M100 510 l-15 -10 12 0 c6 0 15 5 18 10 8 12 4 12 -15 0z" />
    <path d="M527 509 c7 -7 15 -10 18 -7 3 3 -2 9 -12 12 l-18 7 12 -12z" />
    <path d="M53 484 c3 -4 2 -16 -4 -28 l-10 -21 15 19 c19 24 20 36 4 36 -6 0
-8 -3 -5 -6z" />
    <path d="M570 482 c0 -5 7 -17 16 -28 l15 -19 -10 21 c-6 12 -7 24 -4 28 3 3
1 6 -5 6 -7 0 -12 -4 -12 -8z" />
    <path d="M80 469 c0 -5 5 -7 10 -4 6 3 10 8 10 11 0 2 -4 4 -10 4 -5 0 -10 -5
-10 -11z" />
    <path d="M543 473 c4 -3 10 -3 14 0 3 4 0 7 -7 7 -7 0 -10 -3 -7 -7z" />
    <path d="M66 441 c-4 -7 -5 -15 -2 -18 9 -9 19 4 14 18 l-4 13 -8 -13z" />
    <path d="M160 440 c0 -7 3 -10 7 -7 3 4 3 10 0 14 -4 3 -7 0 -7 -7z" />
    <path d="M182 430 c0 -14 2 -19 5 -12 2 6 2 18 0 25 -3 6 -5 1 -5 -13z" />
    <path d="M450 431 c0 -11 4 -22 9 -25 l9 -6 -6 22 -5 21 11 -7 12 -7 0 10 c0
6 -7 11 -15 11 l-15 0 0 -19z" />
    <path d="M570 430 c0 -7 3 -10 7 -7 3 4 3 10 0 14 -4 3 -7 0 -7 -7z" />
    <path d="M51 400 c14 -31 19 -36 19 -24 0 6 -7 19 -16 30 l-15 19 12 -25z" />
    <path d="M580 399 c-7 -11 -10 -23 -7 -25 2 -2 9 7 15 21 14 30 7 33 -8 4z" />
    <path d="M220 355 c7 -9 15 -13 17 -11 7 7 -7 26 -19 26 l-10 0 12 -15z" />
    <path d="M405 359 c-11 -17 1 -21 15 -4 l12 15 -10 0 c-6 0 -14 -5 -17 -11z" />
    <path d="M173 303 c4 -3 10 -3 14 0 3 4 0 7 -7 7 -7 0 -10 -3 -7 -7z" />
    <path d="M453 303 c4 -3 10 -3 14 0 3 4 0 7 -7 7 -7 0 -10 -3 -7 -7z" />
    <path d="M123 283 c4 -3 10 -3 14 0 3 4 0 7 -7 7 -7 0 -10 -3 -7 -7z" />
    <path d="M503 283 c4 -3 10 -3 14 0 3 4 0 7 -7 7 -7 0 -10 -3 -7 -7z" />
    <path d="M137 249 c7 -7 15 -10 18 -7 3 3 -2 9 -12 12 l-18 7 12 -12z" />
    <path d="M213 245 c6 -7 15 -11 20 -8 13 8 7 19 -13 20 l-20 2 13 -14z" />
    <path d="M400 248 c0 -14 15 -16 27 -3 l13 14 -20 -2 c-11 -1 -20 -5 -20 -9z" />
    <path d="M490 250 l-15 -10 12 0 c6 0 15 5 18 10 8 12 4 12 -15 0z" />
    <path d="M192 216 c1 -10 8 -17 13 -17 15 1 12 24 -3 29 l-14 4 4 -16z" />
    <path d="M425 220 c-8 -13 4 -32 16 -25 12 8 12 35 0 35 -6 0 -13 -4 -16 -10z" />
    <path d="M170 210 c0 -7 3 -10 7 -7 3 4 3 10 0 14 -4 3 -7 0 -7 -7z" />
    <path d="M396 203 l-7 -18 12 12 c7 7 10 15 7 18 -3 3 -9 -2 -12 -12z" />
    <path d="M460 210 c0 -7 3 -10 7 -7 3 4 3 10 0 14 -4 3 -7 0 -7 -7z" />
    <path d="M206 107 c3 -10 9 -15 12 -12 3 3 0 11 -7 18 l-12 12 7 -18z" />
    <path d="M235 110 c-4 -6 -3 -16 3 -22 l10 -10 7 12 c4 6 3 16 -3 22 l-10 10
-7 -12z" />
    <path d="M385 110 c-4 -6 -3 -16 3 -22 l10 -10 7 12 c4 6 3 16 -3 22 l-10 10
-7 -12z" />
    <path d="M425 109 c-4 -6 -5 -12 -2 -15 2 -3 7 2 10 11 7 17 1 20 -8 4z" />
    <path d="M270 101 c0 -6 4 -13 10 -16 l10 -6 -6 15 c-7 18 -14 21 -14 7z" />
    <path d="M356 93 l-7 -18 12 12 c7 7 10 15 7 18 -3 3 -9 -2 -12 -12z" />
  </g>
  <g transform="translate(0.000000,64.000000) scale(0.100000,-0.100000)" fill="#7c8288" stroke="none">
    <path d="M101 637 c2 -1 13 -9 24 -17 l20 -15 -14 18 c-7 9 -18 17 -24 17 -6
0 -8 -1 -6 -3z" />
    <path d="M509 623 l-14 -18 20 15 c11 8 22 16 24 17 2 2 0 3 -6 3 -6 0 -17 -8
-24 -17z" />
    <path d="M609 503 l-24 -28 28 24 c25 23 32 31 24 31 -2 0 -14 -12 -28 -27z" />
    <path d="M20 506 c0 -2 8 -10 18 -17 l17 -14 -14 18 c-13 16 -21 21 -21 13z" />
    <path d="M91 304 l1 -19 5 13 c3 7 2 16 -1 19 -3 4 -6 -2 -5 -13z" />
    <path d="M541 304 l1 -19 5 13 c3 7 2 16 -1 19 -3 4 -6 -2 -5 -13z" />
    <path d="M198 224 c-6 -6 56 -191 67 -203 3 -2 8 -2 11 2 4 3 -8 45 -25 93
-37 101 -45 117 -53 108z" />
    <path d="M230 220 c0 -7 3 -10 7 -7 3 4 3 10 0 14 -4 3 -7 0 -7 -7z" />
    <path d="M400 220 c0 -7 3 -10 7 -7 3 4 3 10 0 14 -4 3 -7 0 -7 -7z" />
    <path d="M410 173 c-11 -32 -28 -77 -37 -101 -9 -23 -13 -45 -9 -49 3 -3 8 -4
11 -2 2 3 20 49 39 102 l35 96 -9 6 c-4 3 -18 -21 -30 -52z" />
    <path d="M270 110 c0 -7 3 -10 7 -7 3 4 3 10 0 14 -4 3 -7 0 -7 -7z" />
    <path d="M360 110 c0 -7 3 -10 7 -7 3 4 3 10 0 14 -4 3 -7 0 -7 -7z" />
    <path d="M210 90 c0 -7 3 -10 7 -7 3 4 3 10 0 14 -4 3 -7 0 -7 -7z" />
    <path d="M420 90 c0 -7 3 -10 7 -7 3 4 3 10 0 14 -4 3 -7 0 -7 -7z" />
    <path d="M245 10 c3 -5 8 -10 11 -10 3 0 2 5 -1 10 -3 6 -8 10 -11 10 -3 0 -2
-4 1 -10z" />
    <path d="M384 8 l-7 -11 11 7 c12 7 16 16 8 16 -3 0 -8 -5 -12 -12z" />
  </g>
  <g transform="translate(0.000000,64.000000) scale(0.100000,-0.100000)" fill="#e4e4e4" stroke="none">
    <path d="M0 531 c0 -6 4 -13 10 -16 l10 -6 -6 15 c-7 18 -14 21 -14 7z" />
    <path d="M630 530 c0 -7 3 -10 7 -7 3 4 3 10 0 14 -4 3 -7 0 -7 -7z" />
    <path d="M43 483 c4 -3 10 -3 14 0 3 4 0 7 -7 7 -7 0 -10 -3 -7 -7z" />
    <path d="M186 477 c3 -10 9 -15 12 -12 3 3 0 11 -7 18 l-12 12 7 -18z" />
    <path d="M445 479 c-4 -6 -5 -12 -2 -15 2 -3 7 2 10 11 7 17 1 20 -8 4z" />
    <path d="M583 483 c4 -3 10 -3 14 0 3 4 0 7 -7 7 -7 0 -10 -3 -7 -7z" />
    <path d="M42 430 c0 -14 2 -19 5 -12 2 6 2 18 0 25 -3 6 -5 1 -5 -13z" />
    <path d="M592 430 c0 -14 2 -19 5 -12 2 6 2 18 0 25 -3 6 -5 1 -5 -13z" />
    <path d="M190 385 c0 -7 9 -17 20 -20 11 -3 20 -11 20 -17 0 -6 3 -8 7 -5 3 4
-6 18 -20 31 l-27 25 0 -14z" />
    <path d="M423 374 c-13 -12 -23 -24 -23 -28 0 -4 7 -1 15 7 8 9 20 17 26 19 7
2 10 8 8 14 -2 5 -14 0 -26 -12z" />
    <path d="M78 362 l23 -18 -6 -19 -7 -20 11 15 c17 24 13 36 -16 49 l-28 12 23
-19z" />
    <path d="M553 368 c-25 -12 -28 -25 -12 -48 l11 -15 -7 20 -6 19 23 18 c26 20
23 22 -9 6z" />
    <path d="M250 300 c0 -7 3 -10 7 -7 3 4 3 10 0 14 -4 3 -7 0 -7 -7z" />
    <path d="M380 300 c0 -7 3 -10 7 -7 3 4 3 10 0 14 -4 3 -7 0 -7 -7z" />
    <path d="M90 281 c0 -6 4 -13 10 -16 l10 -6 -6 15 c-7 18 -14 21 -14 7z" />
    <path d="M536 273 l-7 -18 12 12 c7 7 10 15 7 18 -3 3 -9 -2 -12 -12z" />
    <path d="M227 245 c-4 -8 -3 -16 1 -19 4 -3 9 4 9 15 2 23 -3 25 -10 4z" />
    <path d="M403 241 c0 -11 5 -18 9 -15 4 3 5 11 1 19 -7 21 -12 19 -10 -4z" />
    <path d="M170 201 c0 -6 4 -13 10 -16 l10 -6 -6 15 c-7 18 -14 21 -14 7z" />
    <path d="M456 193 l-7 -18 12 12 c7 7 10 15 7 18 -3 3 -9 -2 -12 -12z" />
    <path d="M257 140 c3 -11 9 -22 13 -25 5 -3 6 4 3 15 -3 11 -9 22 -13 25 -5 3
-6 -4 -3 -15z" />
    <path d="M373 143 c-3 -10 -8 -22 -11 -27 -3 -5 0 -6 5 -3 11 7 25 47 17 47
-3 0 -7 -8 -11 -17z" />
    <path d="M217 70 c3 -11 9 -22 13 -25 5 -3 6 4 3 15 -3 11 -9 22 -13 25 -5 3
-6 -4 -3 -15z" />
    <path d="M413 73 c-3 -10 -8 -22 -11 -27 -3 -5 0 -6 5 -3 11 7 25 47 17 47 -3
0 -7 -8 -11 -17z" />
  </g>
  <g transform="translate(0.000000,64.000000) scale(0.100000,-0.100000)" fill="#404041" stroke="none">
    <path d="M19 613 l-14 -18 18 14 c9 7 17 15 17 17 0 8 -8 3 -21 -13z" />
    <path d="M600 626 c0 -2 8 -10 18 -17 l17 -14 -14 18 c-13 16 -21 21 -21 13z" />
    <path d="M151 564 l1 -19 5 13 c3 7 2 16 -1 19 -3 4 -6 -2 -5 -13z" />
    <path d="M481 564 l1 -19 5 13 c3 7 2 16 -1 19 -3 4 -6 -2 -5 -13z" />
    <path d="M133 413 c4 -3 10 -3 14 0 3 4 0 7 -7 7 -7 0 -10 -3 -7 -7z" />
    <path d="M493 413 c4 -3 10 -3 14 0 3 4 0 7 -7 7 -7 0 -10 -3 -7 -7z" />
    <path d="M236 337 c3 -10 9 -15 12 -12 3 3 0 11 -7 18 l-12 12 7 -18z" />
    <path d="M395 339 c-4 -6 -5 -12 -2 -15 2 -3 7 2 10 11 7 17 1 20 -8 4z" />
    <path d="M236 263 l-7 -18 12 12 c7 7 10 15 7 18 -3 3 -9 -2 -12 -12z" />
    <path d="M390 271 c0 -6 4 -13 10 -16 l10 -6 -6 15 c-7 18 -14 21 -14 7z" />
    <path d="M100 260 c0 -7 3 -10 7 -7 3 4 3 10 0 14 -4 3 -7 0 -7 -7z" />
    <path d="M530 260 c0 -7 3 -10 7 -7 3 4 3 10 0 14 -4 3 -7 0 -7 -7z" />
    <path d="M143 223 c4 -3 10 -3 14 0 3 4 0 7 -7 7 -7 0 -10 -3 -7 -7z" />
    <path d="M483 223 c4 -3 10 -3 14 0 3 4 0 7 -7 7 -7 0 -10 -3 -7 -7z" />
    <path d="M180 180 c0 -7 3 -10 7 -7 3 4 3 10 0 14 -4 3 -7 0 -7 -7z" />
    <path d="M216 175 c-9 -26 -7 -32 5 -12 6 10 9 21 6 23 -2 3 -7 -2 -11 -11z" />
    <path d="M410 185 c0 -5 5 -17 10 -25 5 -8 10 -10 10 -5 0 6 -5 17 -10 25 -5
8 -10 11 -10 5z" />
    <path d="M450 180 c0 -7 3 -10 7 -7 3 4 3 10 0 14 -4 3 -7 0 -7 -7z" />
    <path d="M226 145 c-9 -26 -7 -32 5 -12 6 10 9 21 6 23 -2 3 -7 -2 -11 -11z" />
    <path d="M400 155 c0 -5 5 -17 10 -25 5 -8 10 -10 10 -5 0 6 -5 17 -10 25 -5
8 -10 11 -10 5z" />
    <path d="M260 130 c0 -7 3 -10 7 -7 3 4 3 10 0 14 -4 3 -7 0 -7 -7z" />
    <path d="M370 130 c0 -7 3 -10 7 -7 3 4 3 10 0 14 -4 3 -7 0 -7 -7z" />
    <path d="M220 70 c0 -7 3 -10 7 -7 3 4 3 10 0 14 -4 3 -7 0 -7 -7z" />
    <path d="M256 65 c-9 -26 -7 -32 5 -12 6 10 9 21 6 23 -2 3 -7 -2 -11 -11z" />
    <path d="M370 75 c0 -5 5 -17 10 -25 5 -8 10 -10 10 -5 0 6 -5 17 -10 25 -5 8
-10 11 -10 5z" />
    <path d="M410 70 c0 -7 3 -10 7 -7 3 4 3 10 0 14 -4 3 -7 0 -7 -7z" />
    <path d="M270 40 c0 -7 3 -10 7 -7 3 4 3 10 0 14 -4 3 -7 0 -7 -7z" />
    <path d="M360 40 c0 -7 3 -10 7 -7 3 4 3 10 0 14 -4 3 -7 0 -7 -7z" />
  </g>
  <g transform="translate(0.000000,64.000000) scale(0.100000,-0.100000)" fill="#ca9b80" stroke="none">
    <path d="M132 560 c0 -14 2 -19 5 -12 2 6 2 18 0 25 -3 6 -5 1 -5 -13z" />
    <path d="M94 548 l-7 -11 11 7 c7 4 12 9 12 12 0 8 -9 4 -16 -8z" />
    <path d="M535 550 c3 -5 8 -10 11 -10 3 0 2 5 -1 10 -3 6 -8 10 -11 10 -3 0
-2 -4 1 -10z" />
    <path d="M34 523 l19 -23 26 1 26 2 -25 4 c-14 3 -34 12 -45 21 l-20 17 19
-22z" />
    <path d="M600 526 c-6 -8 -24 -17 -38 -19 l-27 -4 26 -2 26 -1 18 20 c10 11
16 20 13 20 -3 0 -11 -6 -18 -14z" />
    <path d="M454 438 l-7 -13 8 8 c5 4 18 -1 29 -10 l21 -18 -19 23 c-11 12 -20
22 -22 22 -2 0 -6 -6 -10 -12z" />
    <path d="M149 423 l-14 -18 18 14 c9 7 17 15 17 17 0 8 -8 3 -21 -13z" />
    <path d="M555 410 c3 -5 8 -10 11 -10 3 0 2 5 -1 10 -3 6 -8 10 -11 10 -3 0
-2 -4 1 -10z" />
    <path d="M103 403 c4 -3 10 -3 14 0 3 4 0 7 -7 7 -7 0 -10 -3 -7 -7z" />
    <path d="M460 400 c0 -7 3 -10 7 -7 3 4 3 10 0 14 -4 3 -7 0 -7 -7z" />
    <path d="M113 373 c9 -2 23 -2 30 0 6 3 -1 5 -18 5 l-30 0 18 -5z" />
    <path d="M503 373 c9 -2 23 -2 30 0 6 3 -1 5 -18 5 l-30 0 18 -5z" />
    <path d="M153 273 c4 -3 10 -3 14 0 3 4 0 7 -7 7 -7 0 -10 -3 -7 -7z" />
    <path d="M473 273 c4 -3 10 -3 14 0 3 4 0 7 -7 7 -7 0 -10 -3 -7 -7z" />
    <path d="M190 250 l-15 -10 12 0 c6 0 15 5 18 10 8 12 4 12 -15 0z" />
    <path d="M437 249 c7 -7 15 -10 18 -7 3 3 -2 9 -12 12 l-18 7 12 -12z" />
    <path d="M153 243 c4 -3 10 -3 14 0 3 4 0 7 -7 7 -7 0 -10 -3 -7 -7z" />
    <path d="M473 243 c4 -3 10 -3 14 0 3 4 0 7 -7 7 -7 0 -10 -3 -7 -7z" />
  </g>
  <g transform="translate(0.000000,64.000000) scale(0.100000,-0.100000)" fill="#5f6265" stroke="none">
    <path d="M35 630 l-6 -10 15 6 c18 7 21 14 7 14 -6 0 -13 -4 -16 -10z" />
    <path d="M580 636 c0 -2 7 -7 16 -10 l15 -6 -6 10 c-6 10 -25 14 -25 6z" />
    <path d="M135 610 c3 -5 8 -10 11 -10 3 0 2 5 -1 10 -3 6 -8 10 -11 10 -3 0
-2 -4 1 -10z" />
    <path d="M494 608 l-7 -11 11 7 c7 4 12 9 12 12 0 8 -9 4 -16 -8z" />
    <path d="M5 599 c-4 -6 -5 -12 -2 -15 2 -3 7 2 10 11 7 17 1 20 -8 4z" />
    <path d="M626 597 c3 -10 9 -15 12 -12 3 3 0 11 -7 18 l-12 12 7 -18z" />
    <path d="M205 370 c3 -5 8 -10 11 -10 3 0 2 5 -1 10 -3 6 -8 10 -11 10 -3 0
-2 -4 1 -10z" />
    <path d="M424 368 l-7 -11 11 7 c7 4 12 9 12 12 0 8 -9 4 -16 -8z" />
    <path d="M194 218 l-7 -11 11 7 c7 4 12 9 12 12 0 8 -9 4 -16 -8z" />
    <path d="M435 220 c3 -5 8 -10 11 -10 3 0 2 5 -1 10 -3 6 -8 10 -11 10 -3 0
-2 -4 1 -10z" />
    <path d="M204 198 l-7 -11 11 7 c12 7 16 16 8 16 -3 0 -8 -5 -12 -12z" />
    <path d="M240 190 c0 -7 3 -10 7 -7 3 4 3 10 0 14 -4 3 -7 0 -7 -7z" />
    <path d="M390 190 c0 -7 3 -10 7 -7 3 4 3 10 0 14 -4 3 -7 0 -7 -7z" />
    <path d="M190 150 c0 -7 3 -10 7 -7 3 4 3 10 0 14 -4 3 -7 0 -7 -7z" />
    <path d="M440 150 c0 -7 3 -10 7 -7 3 4 3 10 0 14 -4 3 -7 0 -7 -7z" />
    <path d="M224 138 l-7 -11 11 7 c12 7 16 16 8 16 -3 0 -8 -5 -12 -12z" />
    <path d="M405 140 c3 -5 8 -10 11 -10 3 0 2 5 -1 10 -3 6 -8 10 -11 10 -3 0
-2 -4 1 -10z" />
    <path d="M254 58 l-7 -11 11 7 c12 7 16 16 8 16 -3 0 -8 -5 -12 -12z" />
    <path d="M375 60 c3 -5 8 -10 11 -10 3 0 2 5 -1 10 -3 6 -8 10 -11 10 -3 0 -2
-4 1 -10z" />
    <path d="M290 50 c0 -7 3 -10 7 -7 3 4 3 10 0 14 -4 3 -7 0 -7 -7z" />
    <path d="M340 50 c0 -7 3 -10 7 -7 3 4 3 10 0 14 -4 3 -7 0 -7 -7z" />
    <path d="M265 30 c-3 -5 -1 -10 4 -10 6 0 11 5 11 10 0 6 -2 10 -4 10 -3 0 -8
-4 -11 -10z" />
    <path d="M360 30 c0 -5 5 -10 11 -10 5 0 7 5 4 10 -3 6 -8 10 -11 10 -2 0 -4
-4 -4 -10z" />
  </g>
  <g transform="translate(0.000000,64.000000) scale(0.100000,-0.100000)" fill="#c4c4c4" stroke="none">
    <path d="M630 590 c0 -7 3 -10 7 -7 3 4 3 10 0 14 -4 3 -7 0 -7 -7z" />
    <path d="M150 540 c0 -7 3 -10 7 -7 3 4 3 10 0 14 -4 3 -7 0 -7 -7z" />
    <path d="M480 540 c0 -7 3 -10 7 -7 3 4 3 10 0 14 -4 3 -7 0 -7 -7z" />
    <path d="M140 510 c0 -5 5 -10 11 -10 5 0 7 5 4 10 -3 6 -8 10 -11 10 -2 0 -4
-4 -4 -10z" />
    <path d="M485 510 c-3 -5 -1 -10 4 -10 6 0 11 5 11 10 0 6 -2 10 -4 10 -3 0
-8 -4 -11 -10z" />
    <path d="M175 490 c3 -5 8 -10 11 -10 3 0 2 5 -1 10 -3 6 -8 10 -11 10 -3 0
-2 -4 1 -10z" />
    <path d="M454 488 l-7 -11 11 7 c12 7 16 16 8 16 -3 0 -8 -5 -12 -12z" />
    <path d="M202 430 c0 -14 2 -19 5 -12 2 6 2 18 0 25 -3 6 -5 1 -5 -13z" />
    <path d="M430 440 c0 -7 3 -10 7 -7 3 4 3 10 0 14 -4 3 -7 0 -7 -7z" />
    <path d="M40 430 c0 -7 3 -10 7 -7 3 4 3 10 0 14 -4 3 -7 0 -7 -7z" />
    <path d="M590 430 c0 -7 3 -10 7 -7 3 4 3 10 0 14 -4 3 -7 0 -7 -7z" />
    <path d="M193 373 c4 -3 10 -3 14 0 3 4 0 7 -7 7 -7 0 -10 -3 -7 -7z" />
    <path d="M433 373 c4 -3 10 -3 14 0 3 4 0 7 -7 7 -7 0 -10 -3 -7 -7z" />
    <path d="M87 359 c7 -7 15 -10 18 -7 3 3 -2 9 -12 12 l-18 7 12 -12z" />
    <path d="M540 360 l-15 -10 12 0 c6 0 15 5 18 10 8 12 4 12 -15 0z" />
    <path d="M105 250 c3 -5 8 -10 11 -10 3 0 2 5 -1 10 -3 6 -8 10 -11 10 -3 0
-2 -4 1 -10z" />
    <path d="M524 248 l-7 -11 11 7 c12 7 16 16 8 16 -3 0 -8 -5 -12 -12z" />
    <path d="M200 120 c0 -7 3 -10 7 -7 3 4 3 10 0 14 -4 3 -7 0 -7 -7z" />
    <path d="M430 120 c0 -7 3 -10 7 -7 3 4 3 10 0 14 -4 3 -7 0 -7 -7z" />
    <path d="M280 80 c0 -7 3 -10 7 -7 3 4 3 10 0 14 -4 3 -7 0 -7 -7z" />
    <path d="M350 80 c0 -7 3 -10 7 -7 3 4 3 10 0 14 -4 3 -7 0 -7 -7z" />
  </g>
  <g transform="translate(0.000000,64.000000) scale(0.100000,-0.100000)" fill="#707275" stroke="none">
    <path d="M150 580 c0 -7 3 -10 7 -7 3 4 3 10 0 14 -4 3 -7 0 -7 -7z" />
    <path d="M480 580 c0 -7 3 -10 7 -7 3 4 3 10 0 14 -4 3 -7 0 -7 -7z" />
    <path d="M150 550 c0 -7 3 -10 7 -7 3 4 3 10 0 14 -4 3 -7 0 -7 -7z" />
    <path d="M480 550 c0 -7 3 -10 7 -7 3 4 3 10 0 14 -4 3 -7 0 -7 -7z" />
    <path d="M15 510 c3 -5 8 -10 11 -10 3 0 2 5 -1 10 -3 6 -8 10 -11 10 -3 0 -2
-4 1 -10z" />
    <path d="M90 290 c0 -7 3 -10 7 -7 3 4 3 10 0 14 -4 3 -7 0 -7 -7z" />
    <path d="M540 290 c0 -7 3 -10 7 -7 3 4 3 10 0 14 -4 3 -7 0 -7 -7z" />
    <path d="M200 190 c0 -7 3 -10 7 -7 3 4 3 10 0 14 -4 3 -7 0 -7 -7z" />
    <path d="M214 168 l-7 -11 11 7 c12 7 16 16 8 16 -3 0 -8 -5 -12 -12z" />
    <path d="M415 170 c3 -5 8 -10 11 -10 3 0 2 5 -1 10 -3 6 -8 10 -11 10 -3 0
-2 -4 1 -10z" />
    <path d="M284 8 l-7 -11 11 7 c7 4 12 9 12 12 0 8 -9 4 -16 -8z" />
    <path d="M345 10 c3 -5 8 -10 11 -10 3 0 2 5 -1 10 -3 6 -8 10 -11 10 -3 0 -2
-4 1 -10z" />
  </g>
  <g transform="translate(0.000000,64.000000) scale(0.100000,-0.100000)" fill="#ed837e" stroke="none">
    <path d="M68 613 c6 -2 18 -2 25 0 6 3 1 5 -13 5 -14 0 -19 -2 -12 -5z" />
    <path d="M543 613 c4 -3 10 -3 14 0 3 4 0 7 -7 7 -7 0 -10 -3 -7 -7z" />
    <path d="M25 587 c-8 -19 -2 -31 13 -26 l9 4 -7 20 -8 20 -7 -18z" />
    <path d="M87 472 c-20 -22 -22 -48 -5 -58 l11 -7 -7 11 c-4 7 -3 12 2 12 5 0
8 10 8 22 l-1 22 25 7 25 7 -21 1 c-11 1 -28 -7 -37 -17z" />
    <path d="M500 486 c0 -2 11 -6 25 -8 l24 -5 -5 8 c-5 9 -44 13 -44 5z" />
    <path d="M137 450 c-9 -11 -13 -20 -7 -20 5 0 14 9 20 20 6 11 9 20 8 20 -2 0
-11 -9 -21 -20z" />
    <path d="M490 450 c6 -11 15 -20 20 -20 6 0 2 9 -7 20 -10 11 -19 20 -21 20
-1 0 2 -9 8 -20z" />
    <path d="M178 353 c13 -3 26 -11 29 -19 3 -8 10 -14 16 -14 5 0 2 9 -8 20 -10
11 -28 19 -39 19 l-21 -2 23 -4z" />
    <path d="M429 343 l-14 -18 15 11 c8 7 24 14 35 17 l20 5 -21 1 c-12 0 -28 -7
-35 -16z" />
    <path d="M121 332 c-14 -26 -10 -36 11 -30 l14 3 -6 25 -6 25 -13 -23z" />
    <path d="M510 331 c0 -6 4 -13 10 -16 l10 -6 -6 15 c-7 18 -14 21 -14 7z" />
    <path d="M493 303 c4 -3 10 -3 14 0 3 4 0 7 -7 7 -7 0 -10 -3 -7 -7z" />
  </g>
  <g transform="translate(0.000000,64.000000) scale(0.100000,-0.100000)" fill="#6b4840" stroke="none">
    <path d="M45 610 l-6 -10 15 6 c18 7 21 14 7 14 -6 0 -13 -4 -16 -10z" />
    <path d="M593 597 c12 -13 24 -22 26 -20 6 4 -30 43 -40 43 -5 0 2 -10 14 -23z" />
    <path d="M104 558 l-7 -11 11 7 c12 7 16 16 8 16 -3 0 -8 -5 -12 -12z" />
    <path d="M525 560 c3 -5 8 -10 11 -10 3 0 2 5 -1 10 -3 6 -8 10 -11 10 -3 0
-2 -4 1 -10z" />
    <path d="M24 538 l-7 -11 11 7 c12 7 16 16 8 16 -3 0 -8 -5 -12 -12z" />
    <path d="M605 540 c3 -5 8 -10 11 -10 3 0 2 5 -1 10 -3 6 -8 10 -11 10 -3 0
-2 -4 1 -10z" />
    <path d="M134 438 l-7 -11 11 7 c7 4 12 9 12 12 0 8 -9 4 -16 -8z" />
    <path d="M495 440 c3 -5 8 -10 11 -10 3 0 2 5 -1 10 -3 6 -8 10 -11 10 -3 0
-2 -4 1 -10z" />
    <path d="M180 430 c0 -7 3 -10 7 -7 3 4 3 10 0 14 -4 3 -7 0 -7 -7z" />
    <path d="M450 430 c0 -7 3 -10 7 -7 3 4 3 10 0 14 -4 3 -7 0 -7 -7z" />
    <path d="M183 353 c4 -3 10 -3 14 0 3 4 0 7 -7 7 -7 0 -10 -3 -7 -7z" />
    <path d="M443 353 c4 -3 10 -3 14 0 3 4 0 7 -7 7 -7 0 -10 -3 -7 -7z" />
    <path d="M124 338 l-7 -11 11 7 c7 4 12 9 12 12 0 8 -9 4 -16 -8z" />
    <path d="M505 340 c3 -5 8 -10 11 -10 3 0 2 5 -1 10 -3 6 -8 10 -11 10 -3 0
-2 -4 1 -10z" />
    <path d="M110 310 c0 -6 7 -10 15 -10 8 0 15 2 15 4 0 2 -7 6 -15 10 -8 3 -15
1 -15 -4z" />
    <path d="M510 310 l-15 -10 18 0 c9 0 17 5 17 10 0 12 -1 12 -20 0z" />
    <path d="M125 260 c3 -5 8 -10 11 -10 3 0 2 5 -1 10 -3 6 -8 10 -11 10 -3 0
-2 -4 1 -10z" />
    <path d="M504 258 l-7 -11 11 7 c12 7 16 16 8 16 -3 0 -8 -5 -12 -12z" />
  </g>
  <g transform="translate(0.000000,64.000000) scale(0.100000,-0.100000)" fill="#b56e65" stroke="none">
    <path d="M91 617 c2 -1 13 -9 24 -17 l20 -15 -14 18 c-7 9 -18 17 -24 17 -6 0
-8 -1 -6 -3z" />
    <path d="M519 603 l-14 -18 20 15 c11 8 22 16 24 17 2 2 0 3 -6 3 -6 0 -17 -8
-24 -17z" />
    <path d="M32 598 c-15 -15 -16 -38 -1 -38 5 0 7 5 4 10 -4 6 -1 17 5 25 15 18
9 20 -8 3z" />
    <path d="M89 573 l-14 -18 18 14 c9 7 17 15 17 17 0 8 -8 3 -21 -13z" />
    <path d="M530 586 c0 -2 8 -10 18 -17 l17 -14 -14 18 c-13 16 -21 21 -21 13z" />
    <path d="M502 560 c0 -14 2 -19 5 -12 2 6 2 18 0 25 -3 6 -5 1 -5 -13z" />
    <path d="M605 570 c-3 -5 -1 -10 4 -10 6 0 11 5 11 10 0 6 -2 10 -4 10 -3 0
-8 -4 -11 -10z" />
    <path d="M53 503 c4 -3 10 -3 14 0 3 4 0 7 -7 7 -7 0 -10 -3 -7 -7z" />
    <path d="M573 503 c4 -3 10 -3 14 0 3 4 0 7 -7 7 -7 0 -10 -3 -7 -7z" />
    <path d="M155 470 c-3 -5 -1 -10 4 -10 6 0 11 5 11 10 0 6 -2 10 -4 10 -3 0
-8 -4 -11 -10z" />
    <path d="M470 470 c0 -5 5 -10 11 -10 5 0 7 5 4 10 -3 6 -8 10 -11 10 -2 0 -4
-4 -4 -10z" />
    <path d="M83 433 c4 -3 10 -3 14 0 3 4 0 7 -7 7 -7 0 -10 -3 -7 -7z" />
    <path d="M74 408 l-7 -11 11 7 c12 7 16 16 8 16 -3 0 -8 -5 -12 -12z" />
    <path d="M415 331 c-3 -5 -1 -12 5 -16 l10 -6 0 15 c0 18 -6 21 -15 7z" />
    <path d="M210 319 c0 -5 5 -7 10 -4 6 3 10 8 10 11 0 2 -4 4 -10 4 -5 0 -10
-5 -10 -11z" />
  </g>
  <g transform="translate(0.000000,64.000000) scale(0.100000,-0.100000)" fill="#999999" stroke="none">
    <path d="M200 430 c0 -7 3 -10 7 -7 3 4 3 10 0 14 -4 3 -7 0 -7 -7z" />
    <path d="M431 424 l1 -19 5 13 c3 7 2 16 -1 19 -3 4 -6 -2 -5 -13z" />
    <path d="M115 240 c3 -5 8 -10 11 -10 3 0 2 5 -1 10 -3 6 -8 10 -11 10 -3 0
-2 -4 1 -10z" />
    <path d="M514 238 l-7 -11 11 7 c7 4 12 9 12 12 0 8 -9 4 -16 -8z" />
  </g>
  <g transform="translate(0.000000,64.000000) scale(0.100000,-0.100000)" fill="#8c584e" stroke="none">
    <path d="M28 563 c7 -3 16 -2 19 1 4 3 -2 6 -13 5 l-19 -1 13 -5z" />
    <path d="M593 563 c4 -3 10 -3 14 0 3 4 0 7 -7 7 -7 0 -10 -3 -7 -7z" />
    <path d="M515 520 c3 -5 8 -10 11 -10 3 0 2 5 -1 10 -3 6 -8 10 -11 10 -3 0
-2 -4 1 -10z" />
    <path d="M103 483 c4 -3 10 -3 14 0 3 4 0 7 -7 7 -7 0 -10 -3 -7 -7z" />
    <path d="M133 483 c4 -3 10 -3 14 0 3 4 0 7 -7 7 -7 0 -10 -3 -7 -7z" />
    <path d="M493 483 c4 -3 10 -3 14 0 3 4 0 7 -7 7 -7 0 -10 -3 -7 -7z" />
    <path d="M523 483 c4 -3 10 -3 14 0 3 4 0 7 -7 7 -7 0 -10 -3 -7 -7z" />
    <path d="M153 353 c4 -3 10 -3 14 0 3 4 0 7 -7 7 -7 0 -10 -3 -7 -7z" />
    <path d="M473 353 c4 -3 10 -3 14 0 3 4 0 7 -7 7 -7 0 -10 -3 -7 -7z" />
    <path d="M415 331 c-3 -5 -2 -12 3 -15 5 -3 9 1 9 9 0 17 -3 19 -12 6z" />
    <path d="M115 310 c3 -5 8 -10 11 -10 3 0 2 5 -1 10 -3 6 -8 10 -11 10 -3 0
-2 -4 1 -10z" />
    <path d="M514 308 l-7 -11 11 7 c12 7 16 16 8 16 -3 0 -8 -5 -12 -12z" />
  </g>
  <g transform="translate(0.000000,64.000000) scale(0.100000,-0.100000)" fill="#58332f" stroke="none">
    <path d="M160 470 c0 -7 3 -10 7 -7 3 4 3 10 0 14 -4 3 -7 0 -7 -7z" />
    <path d="M470 470 c0 -7 3 -10 7 -7 3 4 3 10 0 14 -4 3 -7 0 -7 -7z" />
    <path d="M164 388 l-7 -11 11 7 c12 7 16 16 8 16 -3 0 -8 -5 -12 -12z" />
    <path d="M465 390 c3 -5 8 -10 11 -10 3 0 2 5 -1 10 -3 6 -8 10 -11 10 -3 0
-2 -4 1 -10z" />
    <path d="M116 323 l-7 -18 12 12 c7 7 10 15 7 18 -3 3 -9 -2 -12 -12z" />
  </g>
  <g transform="translate(0.000000,64.000000) scale(0.100000,-0.100000)" fill="#94715f" stroke="none">
    <path d="M114 518 l-7 -11 11 7 c7 4 12 9 12 12 0 8 -9 4 -16 -8z" />
    <path d="M214 318 l-7 -11 11 7 c12 7 16 16 8 16 -3 0 -8 -5 -12 -12z" />
  </g>
  <g transform="translate(0.000000,64.000000) scale(0.100000,-0.100000)" fill="#adadad" stroke="none">
    <path d="M143 503 c4 -3 10 -3 14 0 3 4 0 7 -7 7 -7 0 -10 -3 -7 -7z" />
    <path d="M483 503 c4 -3 10 -3 14 0 3 4 0 7 -7 7 -7 0 -10 -3 -7 -7z" />
    <path d="M250 160 c0 -7 3 -10 7 -7 3 4 3 10 0 14 -4 3 -7 0 -7 -7z" />
    <path d="M380 160 c0 -7 3 -10 7 -7 3 4 3 10 0 14 -4 3 -7 0 -7 -7z" />
    <path d="M230 40 c0 -7 3 -10 7 -7 3 4 3 10 0 14 -4 3 -7 0 -7 -7z" />
    <path d="M400 40 c0 -7 3 -10 7 -7 3 4 3 10 0 14 -4 3 -7 0 -7 -7z" />
  </g>
  <g transform="translate(0.000000,64.000000) scale(0.100000,-0.100000)" fill="#515456" stroke="none" />
  <g transform="translate(0.000000,64.000000) scale(0.100000,-0.100000)" fill="#d37873" stroke="none">
    <path d="M595 600 c3 -5 8 -10 11 -10 3 0 2 5 -1 10 -3 6 -8 10 -11 10 -3 0
-2 -4 1 -10z" />
    <path d="M543 433 c4 -3 10 -3 14 0 3 4 0 7 -7 7 -7 0 -10 -3 -7 -7z" />
  </g>
</svg>