<svg width="100.000000pt" height="100.000000pt" viewBox="0 0 100.000000 100.000000" xmlns="http://www.w3.org/2000/svg">
  <g transform="translate(0.000000,100.000000) scale(0.100000,-0.100000)" fill="none" stroke="none">
    <path d="M0 603 c0 -309 3 -394 12 -385 7 7 30 12 52 12 36 0 46 6 98 60 32
33 58 68 58 80 0 11 -4 20 -9 20 -15 0 -34 128 -27 180 7 49 7 49 -55 52 -50
2 -64 7 -76 25 -13 20 -11 24 28 67 32 34 50 46 71 46 16 0 40 7 53 16 17 11
35 14 58 10 25 -5 46 1 93 25 83 42 158 48 241 20 34 -12 67 -21 74 -21 6 0
22 9 36 20 30 24 62 26 89 5 10 -8 33 -15 50 -15 23 0 40 -11 73 -46 39 -43
41 -47 28 -67 -12 -19 -26 -22 -87 -25 -69 -3 -72 -4 -66 -25 26 -88 30 -129
17 -184 -7 -32 -15 -75 -18 -96 -5 -35 -2 -41 49 -92 46 -46 61 -55 91 -55 19
0 42 -3 51 -6 14 -6 16 32 16 385 0 391 0 391 -500 391 -500 0 -500 0 -500
-397z m61 -173 c5 0 9 -4 9 -10 0 -5 -7 -10 -15 -10 -10 0 -15 9 -14 28 1 16
3 20 6 10 2 -10 9 -18 14 -18z m896 -57 c-4 -3 -7 0 -7 7 0 7 3 10 7 7 3 -4 3
-10 0 -14z" />
    <path d="M980 165 c-11 -13 -77 -15 -481 -15 -301 0 -470 4 -474 10 -17 27
-25 2 -25 -75 0 -85 0 -85 500 -85 500 0 500 0 500 90 0 50 -2 90 -4 90 -2 0
-9 -7 -16 -15z" />
  </g>
  <g transform="translate(0.000000,100.000000) scale(0.100000,-0.100000)" fill="#db71a9" stroke="none">
    <path d="M385 814 c-22 -8 -49 -21 -59 -29 -17 -13 -18 -18 -8 -40 7 -14 12
-34 12 -45 0 -32 -43 -72 -86 -79 -39 -6 -39 -6 -42 -85 -2 -46 2 -84 8 -90 5
-5 10 -20 10 -33 0 -27 28 -31 37 -5 4 9 16 27 27 38 12 12 39 55 60 95 21 41
46 82 54 92 12 14 32 17 102 17 70 0 90 -3 102 -17 8 -10 33 -51 54 -92 21
-40 48 -83 60 -95 11 -11 23 -29 27 -38 11 -31 35 -20 46 20 14 50 12 169 -3
212 -9 25 -21 36 -43 42 -38 10 -64 38 -72 80 -6 27 -14 36 -51 50 -56 21
-179 22 -235 2z" />
    <path d="M20 190 c0 -20 7 -20 480 -20 473 0 480 0 480 20 0 20 -7 20 -480 20
-473 0 -480 0 -480 -20z" />
  </g>
  <g transform="translate(0.000000,100.000000) scale(0.100000,-0.100000)" fill="#6c6cc3" stroke="none">
    <path d="M395 842 c-27 -9 -60 -25 -73 -34 -16 -11 -36 -14 -63 -11 -25 4 -46
0 -62 -9 -12 -9 -35 -15 -51 -15 -21 0 -40 -13 -72 -47 -24 -25 -44 -52 -44
-59 0 -7 7 -23 16 -35 13 -18 25 -22 72 -22 57 0 57 0 58 -72 1 -89 12 -138
29 -138 10 0 13 24 12 102 -2 102 -2 102 37 109 25 4 48 16 63 33 24 29 30 74
13 106 -8 16 -3 22 38 41 65 32 169 37 237 12 42 -16 50 -23 56 -51 8 -42 34
-70 72 -80 23 -6 34 -17 44 -47 9 -25 13 -67 11 -113 -3 -68 -2 -73 17 -70 17
3 20 12 23 65 2 36 -3 84 -11 113 -15 50 -15 50 54 50 59 0 70 3 83 22 9 12
16 28 16 35 0 7 -19 33 -42 58 -32 34 -49 45 -72 45 -17 0 -40 7 -50 15 -28
21 -79 19 -109 -5 -26 -21 -26 -21 -86 0 -73 24 -149 25 -216 2z m398 -42 c18
-15 34 -19 52 -14 21 5 27 2 32 -16 3 -12 17 -26 30 -31 45 -17 12 -29 -79
-29 -71 0 -96 4 -110 17 -10 9 -18 25 -18 36 0 26 28 57 50 57 10 0 29 -9 43
-20z m-511 -57 c22 -20 23 -51 1 -75 -13 -15 -32 -18 -109 -18 -51 0 -96 4
-99 10 -3 5 4 15 17 21 13 5 28 20 33 32 8 17 17 21 41 19 19 -2 36 3 44 12
16 21 49 20 72 -1z" />
    <path d="M385 638 c-32 -46 -115 -199 -115 -213 0 -26 24 -16 49 20 13 19 32
35 42 35 11 0 19 -4 19 -8 0 -5 20 -9 43 -9 34 0 46 5 53 21 12 27 34 33 27 7
-4 -15 -1 -21 11 -21 9 0 16 5 16 11 0 8 4 8 15 -1 8 -7 35 -11 67 -8 49 3 53
1 50 -18 -2 -16 4 -23 25 -29 15 -4 22 -10 16 -12 -15 -5 -18 -33 -4 -33 21 0
41 13 41 27 0 14 -92 185 -125 231 -15 20 -24 22 -115 22 -91 0 -100 -2 -115
-22z m191 -16 c6 -4 21 -26 33 -49 21 -42 21 -42 1 -53 -17 -9 -28 -7 -54 9
-18 12 -44 21 -56 21 -12 0 -38 -9 -56 -21 -26 -16 -37 -18 -54 -9 -20 11 -20
11 1 53 12 23 27 45 33 49 6 4 40 8 76 8 36 0 70 -4 76 -8z" />
    <path d="M337 443 c-4 -3 -7 -16 -7 -29 0 -13 -8 -24 -20 -27 -14 -3 -20 -14
-20 -31 0 -14 4 -26 8 -26 4 0 19 5 33 12 16 7 30 26 37 50 7 22 10 43 7 49
-7 10 -29 12 -38 2z" />
    <path d="M600 435 c0 -8 7 -15 15 -15 8 0 15 7 15 15 0 8 -7 15 -15 15 -8 0
-15 -7 -15 -15z" />
    <path d="M762 395 c-7 -14 -12 -32 -12 -39 0 -8 21 -37 46 -65 46 -51 46 -51
-296 -51 -342 0 -342 0 -291 56 38 41 51 63 51 86 0 23 -4 29 -16 24 -9 -3
-18 -6 -20 -6 -2 0 -4 -6 -4 -14 0 -7 -26 -42 -58 -76 -53 -58 -63 -64 -108
-69 -47 -6 -49 -7 -52 -39 -6 -65 -28 -62 498 -62 526 0 504 -3 498 62 -3 32
-5 33 -52 39 -44 5 -55 11 -101 61 -44 48 -51 60 -47 87 3 23 0 31 -10 31 -8
0 -20 -11 -26 -25z m208 -205 c0 -7 -163 -10 -470 -10 -307 0 -470 3 -470 10
0 7 163 10 470 10 307 0 470 -3 470 -10z" />
    <path d="M590 395 c0 -8 -4 -15 -10 -15 -5 0 -10 -7 -10 -15 0 -8 7 -15 15
-15 8 0 15 7 15 15 0 8 5 15 10 15 6 0 10 7 10 15 0 8 -7 15 -15 15 -8 0 -15
-7 -15 -15z" />
    <path d="M508 373 c-10 -2 -18 -11 -18 -20 0 -11 6 -14 23 -9 12 3 25 6 30 6
4 0 7 7 7 15 0 15 -9 17 -42 8z" />
    <path d="M620 365 c0 -8 7 -15 15 -15 8 0 15 7 15 15 0 8 -7 15 -15 15 -8 0
-15 -7 -15 -15z" />
    <path d="M360 315 c0 -8 7 -15 15 -15 8 0 15 7 15 15 0 8 -7 15 -15 15 -8 0
-15 -7 -15 -15z" />
  </g>
  <g transform="translate(0.000000,100.000000) scale(0.100000,-0.100000)" fill="#8380e1" stroke="none">
    <path d="M469 505 c-17 -17 -83 -39 -74 -24 4 5 -2 9 -12 9 -11 0 -24 5 -29
10 -7 7 -17 -1 -30 -27 -10 -21 -25 -44 -31 -51 -7 -7 -13 -17 -13 -22 0 -5
-8 -17 -18 -27 -10 -10 -44 -46 -77 -80 -58 -63 -58 -63 315 -63 373 0 373 0
323 53 -28 29 -58 68 -67 85 -9 18 -20 32 -24 32 -5 0 -23 24 -42 54 -32 50
-36 53 -54 40 -29 -20 -73 -17 -98 6 -26 24 -48 25 -69 5z m153 -85 c-12 -10
-19 -20 -17 -24 3 -3 0 -2 -7 4 -9 7 -7 15 7 30 10 11 22 17 28 13 6 -4 2 -13
-11 -23z m-233 -9 c0 -10 -2 -11 -6 -3 -2 6 -8 12 -13 12 -10 0 -25 -40 -21
-55 1 -5 -1 -7 -5 -2 -4 4 -16 0 -26 -10 -17 -15 -18 -15 -18 1 0 9 7 19 15
22 8 4 15 14 15 23 0 9 5 22 11 28 15 15 49 4 48 -16z m317 -13 c4 -6 3 -8 -4
-4 -5 3 -13 0 -15 -6 -3 -8 -6 -6 -6 5 -1 19 14 23 25 5z" />
  </g>
  <g transform="translate(0.000000,100.000000) scale(0.100000,-0.100000)" fill="#f4edeb" stroke="none">
    <path d="M770 856 c0 -2 7 -7 16 -10 8 -3 12 -2 9 4 -6 10 -25 14 -25 6z" />
    <path d="M707 812 c-23 -25 -21 -75 2 -96 15 -14 36 -16 122 -14 89 3 104 5
107 20 2 12 -6 21 -22 28 -14 5 -26 16 -26 24 0 20 -32 37 -50 26 -9 -5 -22
-2 -38 11 -31 24 -74 24 -95 1z" />
    <path d="M200 755 c-7 -8 -25 -14 -44 -12 -23 1 -33 -3 -40 -20 -6 -12 -21
-27 -34 -32 -14 -7 -22 -18 -20 -29 3 -15 18 -17 107 -20 86 -2 107 0 122 14
24 22 25 76 1 97 -23 21 -75 22 -92 2z" />
    <path d="M414 632 c-13 -8 -54 -86 -54 -102 0 -6 12 -16 26 -22 22 -10 32 -8
70 12 44 25 44 25 88 0 38 -20 48 -22 70 -12 14 6 26 16 26 22 0 16 -41 94
-54 102 -6 4 -45 8 -86 8 -41 0 -80 -4 -86 -8z" />
    <path d="M960 491 c0 -6 5 -13 10 -16 6 -3 10 1 10 9 0 9 -4 16 -10 16 -5 0
-10 -4 -10 -9z" />
    <path d="M37 473 c-3 -5 -3 -20 0 -32 4 -15 12 -21 26 -19 11 2 23 9 25 17 3
10 0 12 -12 8 -12 -5 -19 0 -25 15 -4 12 -10 17 -14 11z" />
    <path d="M100 454 c0 -8 5 -12 10 -9 6 3 10 10 10 16 0 5 -4 9 -10 9 -5 0 -10
-7 -10 -16z" />
    <path d="M862 430 c-15 -24 -15 -30 -2 -30 6 0 10 7 10 15 0 8 5 15 10 15 6 0
10 5 10 10 0 16 -14 11 -28 -10z" />
    <path d="M160 404 c0 -8 5 -12 10 -9 6 3 10 10 10 16 0 5 -4 9 -10 9 -5 0 -10
-7 -10 -16z" />
    <path d="M790 395 c0 -9 6 -12 15 -9 8 4 15 10 15 15 0 5 -7 9 -15 9 -8 0 -15
-7 -15 -15z" />
    <path d="M947 403 c-11 -10 -8 -43 3 -43 6 0 10 11 10 25 0 26 -2 29 -13 18z" />
    <path d="M26 381 c-4 -7 -5 -15 -2 -18 9 -9 19 4 14 18 -4 11 -6 11 -12 0z" />
    <path d="M875 360 c4 -6 11 -8 16 -5 14 9 11 15 -7 15 -8 0 -12 -5 -9 -10z" />
  </g>
  <g transform="translate(0.000000,100.000000) scale(0.100000,-0.100000)" fill="#9e9dd6" stroke="none">
    <path d="M483 853 c9 -2 25 -2 35 0 9 3 1 5 -18 5 -19 0 -27 -2 -17 -5z" />
    <path d="M748 853 c7 -3 16 -2 19 1 4 3 -2 6 -13 5 -11 0 -14 -3 -6 -6z" />
    <path d="M795 840 c3 -5 8 -10 11 -10 2 0 4 5 4 10 0 6 -5 10 -11 10 -5 0 -7
-4 -4 -10z" />
    <path d="M627 829 c7 -7 15 -10 18 -7 3 3 -2 9 -12 12 -14 6 -15 5 -6 -5z" />
    <path d="M704 808 c-19 -21 -19 -21 11 -3 41 26 40 25 23 25 -8 0 -23 -10 -34
-22z" />
    <path d="M760 826 c0 -2 7 -7 16 -10 8 -3 12 -2 9 4 -6 10 -25 14 -25 6z" />
    <path d="M828 823 c7 -3 16 -2 19 1 4 3 -2 6 -13 5 -11 0 -14 -3 -6 -6z" />
    <path d="M868 823 c7 -3 16 -2 19 1 4 3 -2 6 -13 5 -11 0 -14 -3 -6 -6z" />
    <path d="M228 793 c7 -3 16 -2 19 1 4 3 -2 6 -13 5 -11 0 -14 -3 -6 -6z" />
    <path d="M825 790 c-3 -6 1 -7 9 -4 18 7 21 14 7 14 -6 0 -13 -4 -16 -10z" />
    <path d="M872 786 c7 -8 15 -12 17 -11 5 6 -10 25 -20 25 -5 0 -4 -6 3 -14z" />
    <path d="M910 780 c0 -6 7 -10 15 -10 8 0 15 2 15 4 0 2 -7 6 -15 10 -8 3 -15
1 -15 -4z" />
    <path d="M75 728 c-22 -23 -30 -35 -18 -27 20 14 69 69 61 69 -2 0 -21 -19
-43 -42z" />
    <path d="M195 750 c-10 -11 -15 -20 -11 -20 11 0 39 30 34 36 -3 2 -13 -5 -23
-16z" />
    <path d="M895 750 c3 -6 13 -10 21 -10 16 0 19 -26 4 -33 -6 -3 -5 -4 2 -3 22
4 14 38 -10 47 -15 6 -21 5 -17 -1z" />
    <path d="M115 729 c-4 -6 -5 -12 -2 -15 2 -3 7 2 10 11 7 17 1 20 -8 4z" />
    <path d="M61 664 c0 -11 3 -14 6 -6 3 7 2 16 -1 19 -3 4 -6 -2 -5 -13z" />
    <path d="M918 673 c7 -3 16 -2 19 1 4 3 -2 6 -13 5 -11 0 -14 -3 -6 -6z" />
    <path d="M823 535 c0 -22 2 -30 4 -17 2 12 2 30 0 40 -3 9 -5 -1 -4 -23z" />
    <path d="M172 530 c0 -19 2 -27 5 -17 2 9 2 25 0 35 -3 9 -5 1 -5 -18z" />
    <path d="M400 500 c0 -5 7 -7 15 -4 8 4 15 8 15 10 0 2 -7 4 -15 4 -8 0 -15
-4 -15 -10z" />
    <path d="M578 503 c7 -3 16 -2 19 1 4 3 -2 6 -13 5 -11 0 -14 -3 -6 -6z" />
    <path d="M186 415 c4 -8 10 -15 15 -15 4 0 6 7 3 15 -4 8 -10 15 -15 15 -4 0
-6 -7 -3 -15z" />
    <path d="M140 285 c-24 -25 -42 -45 -39 -45 3 0 25 20 49 45 24 25 42 45 39
45 -3 0 -25 -20 -49 -45z" />
    <path d="M845 290 c21 -22 41 -40 44 -40 3 0 -13 18 -34 40 -21 22 -41 40 -44
40 -3 0 13 -18 34 -40z" />
    <path d="M4 228 c-4 -7 -3 -8 4 -4 12 7 16 16 8 16 -3 0 -8 -5 -12 -12z" />
    <path d="M985 230 c3 -5 8 -10 11 -10 3 0 2 5 -1 10 -3 6 -8 10 -11 10 -3 0
-2 -4 1 -10z" />
    <path d="M263 143 c130 -2 344 -2 475 0 130 1 23 2 -238 2 -261 0 -368 -1
-237 -2z" />
  </g>
  <g transform="translate(0.000000,100.000000) scale(0.100000,-0.100000)" fill="#bb70af" stroke="none">
    <path d="M478 823 c12 -2 32 -2 45 0 12 2 2 4 -23 4 -25 0 -35 -2 -22 -4z" />
    <path d="M390 810 c-18 -12 -2 -12 25 0 13 6 15 9 5 9 -8 0 -22 -4 -30 -9z" />
    <path d="M585 810 c27 -12 43 -12 25 0 -8 5 -22 9 -30 9 -10 0 -8 -3 5 -9z" />
    <path d="M327 778 c-14 -12 -14 -16 -2 -38 8 -14 14 -20 14 -15 1 6 -3 16 -8
24 -7 10 -4 19 7 28 9 7 14 13 11 13 -3 0 -13 -6 -22 -12z" />
    <path d="M660 740 c0 -7 3 -10 7 -7 3 4 3 10 0 14 -4 3 -7 0 -7 -7z" />
    <path d="M325 669 c-4 -11 -21 -29 -38 -40 -18 -10 -26 -19 -19 -19 16 0 72
54 72 69 0 18 -8 13 -15 -10z" />
    <path d="M723 673 c4 -3 10 -3 14 0 3 4 0 7 -7 7 -7 0 -10 -3 -7 -7z" />
    <path d="M771 645 c0 -5 4 -19 9 -30 6 -13 9 -15 9 -5 0 8 -4 22 -9 30 -5 8
-9 11 -9 5z" />
    <path d="M360 599 c-12 -23 -20 -43 -18 -45 3 -2 14 17 26 41 12 25 20 45 17
45 -2 0 -14 -18 -25 -41z" />
    <path d="M632 595 c12 -24 23 -43 26 -41 4 5 -36 86 -43 86 -3 0 5 -20 17 -45z" />
    <path d="M210 609 c0 -5 5 -7 10 -4 6 3 10 8 10 11 0 2 -4 4 -10 4 -5 0 -10
-5 -10 -11z" />
    <path d="M203 525 c0 -27 2 -38 4 -22 2 15 2 37 0 50 -2 12 -4 0 -4 -28z" />
    <path d="M793 530 c0 -25 2 -35 4 -22 2 12 2 32 0 45 -2 12 -4 2 -4 -23z" />
    <path d="M301 494 c-12 -20 -20 -38 -18 -40 2 -2 14 14 26 36 28 50 21 53 -8
4z" />
    <path d="M691 490 c12 -22 24 -38 26 -36 4 4 -37 76 -44 76 -2 0 6 -18 18 -40z" />
    <path d="M200 450 c0 -5 7 -10 16 -10 8 0 12 5 9 10 -3 6 -10 10 -16 10 -5 0
-9 -4 -9 -10z" />
    <path d="M780 450 c0 -5 5 -10 11 -10 5 0 7 5 4 10 -3 6 -8 10 -11 10 -2 0 -4
-4 -4 -10z" />
    <path d="M248 422 c-12 -22 -12 -29 -2 -29 7 0 15 11 19 25 9 35 -1 38 -17 4z" />
    <path d="M740 405 c0 -8 7 -15 16 -15 14 0 14 3 4 15 -7 8 -14 15 -16 15 -2 0
-4 -7 -4 -15z" />
    <path d="M263 173 c130 -2 344 -2 475 0 130 1 23 2 -238 2 -261 0 -368 -1
-237 -2z" />
  </g>
  <g transform="translate(0.000000,100.000000) scale(0.100000,-0.100000)" fill="#816dbe" stroke="none">
    <path d="M443 823 c4 -3 10 -3 14 0 3 4 0 7 -7 7 -7 0 -10 -3 -7 -7z" />
    <path d="M543 823 c4 -3 10 -3 14 0 3 4 0 7 -7 7 -7 0 -10 -3 -7 -7z" />
    <path d="M403 813 c4 -3 10 -3 14 0 3 4 0 7 -7 7 -7 0 -10 -3 -7 -7z" />
    <path d="M583 813 c4 -3 10 -3 14 0 3 4 0 7 -7 7 -7 0 -10 -3 -7 -7z" />
    <path d="M658 763 c5 -21 7 -23 10 -9 2 10 0 22 -6 28 -6 6 -7 0 -4 -19z" />
    <path d="M332 705 c0 -16 2 -22 5 -12 2 9 2 23 0 30 -3 6 -5 -1 -5 -18z" />
    <path d="M685 700 c10 -11 20 -20 23 -20 3 0 -3 9 -13 20 -10 11 -20 20 -23
20 -3 0 3 -9 13 -20z" />
    <path d="M738 673 c7 -3 16 -2 19 1 4 3 -2 6 -13 5 -11 0 -14 -3 -6 -6z" />
    <path d="M389 643 c-13 -16 -12 -17 4 -4 16 13 21 21 13 21 -2 0 -10 -8 -17
-17z" />
    <path d="M590 656 c0 -2 8 -10 18 -17 15 -13 16 -12 3 4 -13 16 -21 21 -21 13z" />
    <path d="M780 620 c0 -7 3 -10 7 -7 3 4 3 10 0 14 -4 3 -7 0 -7 -7z" />
    <path d="M223 613 c9 -2 25 -2 35 0 9 3 1 5 -18 5 -19 0 -27 -2 -17 -5z" />
    <path d="M200 580 c0 -7 3 -10 7 -7 3 4 3 10 0 14 -4 3 -7 0 -7 -7z" />
    <path d="M790 580 c0 -7 3 -10 7 -7 3 4 3 10 0 14 -4 3 -7 0 -7 -7z" />
    <path d="M655 550 c3 -5 8 -10 11 -10 3 0 2 5 -1 10 -3 6 -8 10 -11 10 -3 0
-2 -4 1 -10z" />
    <path d="M200 480 c0 -7 3 -10 7 -7 3 4 3 10 0 14 -4 3 -7 0 -7 -7z" />
    <path d="M790 480 c0 -7 3 -10 7 -7 3 4 3 10 0 14 -4 3 -7 0 -7 -7z" />
    <path d="M274 448 c-4 -7 -3 -8 4 -4 7 4 12 9 12 12 0 8 -9 4 -16 -8z" />
    <path d="M715 450 c3 -5 8 -10 11 -10 3 0 2 5 -1 10 -3 6 -8 10 -11 10 -3 0
-2 -4 1 -10z" />
    <path d="M635 390 c-3 -5 1 -10 9 -10 9 0 16 5 16 10 0 6 -4 10 -9 10 -6 0
-13 -4 -16 -10z" />
    <path d="M27 203 c-3 -5 210 -8 473 -8 263 0 476 3 473 8 -6 9 -940 9 -946 0z" />
  </g>
  <g transform="translate(0.000000,100.000000) scale(0.100000,-0.100000)" fill="#2c2b2d" stroke="none">
    <path d="M380 491 c0 -5 7 -11 15 -15 9 -3 15 0 15 9 0 8 -7 15 -15 15 -8 0
-15 -4 -15 -9z" />
    <path d="M440 485 c0 -9 6 -12 15 -9 8 4 15 10 15 15 0 5 -7 9 -15 9 -8 0 -15
-7 -15 -15z" />
    <path d="M966 485 c4 -8 10 -12 15 -9 14 8 10 24 -6 24 -9 0 -12 -6 -9 -15z" />
    <path d="M487 475 c-27 -20 -20 -43 21 -64 31 -16 34 -20 19 -27 -10 -4 -27
-7 -38 -8 -11 -1 -18 -5 -17 -11 3 -11 32 -11 66 0 14 5 22 15 22 29 0 16 -10
25 -37 35 -35 13 -36 14 -17 28 11 8 29 11 42 8 17 -4 23 -2 20 7 -6 17 -60
19 -81 3z" />
    <path d="M36 464 c-3 -9 -6 -27 -6 -40 0 -15 6 -24 15 -24 9 0 29 -10 45 -22
16 -12 33 -19 36 -15 7 7 -52 67 -66 67 -4 0 -5 11 -2 25 5 27 -12 35 -22 9z" />
    <path d="M172 439 c-18 -28 -7 -37 18 -14 18 16 20 16 20 2 0 -10 -4 -17 -10
-17 -5 0 -10 -5 -10 -11 0 -12 25 -39 37 -39 12 0 3 84 -11 92 -19 13 -31 9
-44 -13z" />
    <path d="M604 445 c-29 -20 -36 -60 -14 -80 15 -14 21 -14 39 -3 29 18 26 30
-4 22 -14 -3 -25 -3 -25 1 0 11 28 35 40 35 14 0 9 32 -5 37 -6 2 -20 -4 -31
-12z" />
    <path d="M798 453 c-10 -2 -18 -11 -18 -18 0 -23 12 -45 21 -39 5 3 12 -2 15
-10 8 -20 24 -21 24 -1 0 7 -8 18 -17 24 -15 8 -16 12 -5 22 13 14 16 30 5 28
-5 -1 -16 -3 -25 -6z" />
    <path d="M900 445 c0 -8 5 -15 10 -15 6 0 10 7 10 15 0 8 -4 15 -10 15 -5 0
-10 -7 -10 -15z" />
    <path d="M256 434 c-3 -9 -6 -29 -6 -45 0 -38 24 -38 40 1 13 31 30 32 30 0 0
-24 12 -31 30 -19 12 8 12 12 3 16 -7 2 -13 13 -13 23 0 9 -7 24 -16 31 -14
11 -18 10 -30 -6 -12 -17 -14 -17 -14 -2 0 21 -16 22 -24 1z" />
    <path d="M377 443 c-10 -10 -8 -83 2 -83 10 0 21 34 21 68 0 22 -10 29 -23 15z" />
    <path d="M675 439 c-10 -15 3 -25 16 -12 7 7 7 13 1 17 -6 3 -14 1 -17 -5z" />
    <path d="M691 415 c-25 -26 -31 -39 -24 -46 13 -13 33 -4 33 15 0 8 6 19 14
25 11 9 15 5 20 -20 4 -21 10 -29 20 -26 7 3 18 1 24 -5 11 -11 32 -3 32 13 0
5 -8 9 -19 9 -21 0 -37 17 -42 44 -2 11 -8 21 -14 23 -5 1 -25 -13 -44 -32z" />
    <path d="M950 434 c0 -17 22 -14 28 4 2 7 -3 12 -12 12 -9 0 -16 -7 -16 -16z" />
    <path d="M427 423 c-11 -10 -8 -61 3 -68 6 -3 10 2 10 12 0 10 3 28 6 41 6 21
-5 30 -19 15z" />
    <path d="M854 405 c-9 -23 3 -45 26 -45 11 0 20 5 20 10 0 6 -6 10 -14 10 -9
0 -12 7 -9 20 6 23 -15 28 -23 5z" />
    <path d="M946 394 c-7 -18 0 -34 15 -34 5 0 9 11 9 25 0 28 -15 34 -24 9z" />
    <path d="M27 376 c-6 -16 2 -28 14 -20 12 7 11 34 0 34 -5 0 -11 -6 -14 -14z" />
    <path d="M356 335 c-11 -8 -17 -18 -14 -21 11 -10 48 7 48 22 0 18 -10 17 -34
-1z" />
  </g>
  <g transform="translate(0.000000,100.000000) scale(0.100000,-0.100000)" fill="#7472c7" stroke="none">
    <path d="M557 849 c7 -7 15 -10 18 -7 3 3 -2 9 -12 12 -14 6 -15 5 -6 -5z" />
    <path d="M800 840 c0 -5 5 -10 11 -10 5 0 7 5 4 10 -3 6 -8 10 -11 10 -2 0 -4
-4 -4 -10z" />
    <path d="M720 820 c0 -7 3 -10 7 -7 3 4 3 10 0 14 -4 3 -7 0 -7 -7z" />
    <path d="M665 810 c3 -5 8 -10 11 -10 2 0 4 5 4 10 0 6 -5 10 -11 10 -5 0 -7
-4 -4 -10z" />
    <path d="M800 802 c0 -12 19 -26 26 -19 2 2 -2 10 -11 17 -9 8 -15 8 -15 2z" />
    <path d="M846 802 c-3 -5 1 -9 9 -9 8 0 12 4 9 9 -3 4 -7 8 -9 8 -2 0 -6 -4
-9 -8z" />
    <path d="M910 780 c0 -7 3 -10 7 -7 3 4 3 10 0 14 -4 3 -7 0 -7 -7z" />
    <path d="M314 768 c-4 -7 -3 -8 4 -4 12 7 16 16 8 16 -3 0 -8 -5 -12 -12z" />
    <path d="M210 759 c0 -5 5 -7 10 -4 6 3 10 8 10 11 0 2 -4 4 -10 4 -5 0 -10
-5 -10 -11z" />
    <path d="M950 751 c0 -6 4 -13 10 -16 6 -3 7 1 4 9 -7 18 -14 21 -14 7z" />
    <path d="M127 743 c-3 -5 11 -9 32 -10 27 -1 31 1 16 7 -26 11 -43 12 -48 3z" />
    <path d="M955 709 c-4 -6 -5 -12 -2 -15 2 -3 7 2 10 11 7 17 1 20 -8 4z" />
    <path d="M36 683 c-6 -14 -5 -15 5 -6 7 7 10 15 7 18 -3 3 -9 -2 -12 -12z" />
    <path d="M85 690 c-3 -6 1 -7 9 -4 18 7 21 14 7 14 -6 0 -13 -4 -16 -10z" />
    <path d="M755 670 c3 -5 8 -10 11 -10 3 0 2 5 -1 10 -3 6 -8 10 -11 10 -3 0
-2 -4 1 -10z" />
    <path d="M790 672 c0 -4 21 -6 48 -4 82 5 89 9 20 11 -38 0 -68 -2 -68 -7z" />
    <path d="M403 653 c4 -3 10 -3 14 0 3 4 0 7 -7 7 -7 0 -10 -3 -7 -7z" />
    <path d="M583 653 c4 -3 10 -3 14 0 3 4 0 7 -7 7 -7 0 -10 -3 -7 -7z" />
    <path d="M800 641 c0 -6 4 -13 10 -16 6 -3 7 1 4 9 -7 18 -14 21 -14 7z" />
    <path d="M386 594 c-9 -20 -15 -38 -14 -40 2 -1 13 15 25 37 12 21 18 39 14
39 -4 0 -15 -16 -25 -36z" />
    <path d="M603 591 c12 -22 23 -38 25 -37 5 6 -31 76 -39 76 -4 0 2 -18 14 -39z" />
    <path d="M175 610 c3 -5 8 -10 11 -10 2 0 4 5 4 10 0 6 -5 10 -11 10 -5 0 -7
-4 -4 -10z" />
    <path d="M330 540 c-6 -11 -8 -20 -6 -20 3 0 10 9 16 20 6 11 8 20 6 20 -3 0
-10 -9 -16 -20z" />
    <path d="M458 534 c-16 -8 -28 -17 -28 -19 0 -10 16 -4 40 15 30 23 25 25 -12
4z" />
    <path d="M530 531 c24 -20 40 -26 40 -16 0 2 -15 12 -32 20 -33 16 -33 16 -8
-4z" />
    <path d="M660 541 c0 -6 4 -13 10 -16 6 -3 7 1 4 9 -7 18 -14 21 -14 7z" />
    <path d="M477 513 c-3 -5 8 -8 23 -8 15 0 26 3 23 8 -2 4 -13 7 -23 7 -10 0
-21 -3 -23 -7z" />
    <path d="M375 490 c-3 -5 -1 -10 4 -10 6 0 11 5 11 10 0 6 -2 10 -4 10 -3 0
-8 -4 -11 -10z" />
    <path d="M535 490 c-3 -5 1 -10 10 -10 9 0 13 5 10 10 -3 6 -8 10 -10 10 -2 0
-7 -4 -10 -10z" />
    <path d="M294 478 c-4 -7 -3 -8 4 -4 12 7 16 16 8 16 -3 0 -8 -5 -12 -12z" />
    <path d="M324 478 c-4 -7 -3 -8 4 -4 12 7 16 16 8 16 -3 0 -8 -5 -12 -12z" />
    <path d="M440 480 c0 -7 3 -10 7 -7 3 4 3 10 0 14 -4 3 -7 0 -7 -7z" />
    <path d="M665 480 c3 -5 8 -10 11 -10 3 0 2 5 -1 10 -3 6 -8 10 -11 10 -3 0
-2 -4 1 -10z" />
    <path d="M695 480 c3 -5 8 -10 11 -10 3 0 2 5 -1 10 -3 6 -8 10 -11 10 -3 0
-2 -4 1 -10z" />
    <path d="M484 454 c1 -9 11 -21 22 -26 17 -9 18 -8 2 5 -13 10 -15 16 -6 25 9
9 8 12 -4 12 -9 0 -15 -7 -14 -16z" />
    <path d="M550 460 c0 -5 5 -10 10 -10 6 0 10 5 10 10 0 6 -4 10 -10 10 -5 0
-10 -4 -10 -10z" />
    <path d="M375 447 c-12 -14 -13 -32 -2 -43 4 -4 7 2 7 14 0 12 5 22 10 22 6 0
10 5 10 10 0 13 -13 12 -25 -3z" />
    <path d="M605 450 c-3 -5 1 -10 9 -10 9 0 16 5 16 10 0 6 -4 10 -9 10 -6 0
-13 -4 -16 -10z" />
    <path d="M180 430 c0 -5 5 -10 10 -10 6 0 10 5 10 10 0 6 -4 10 -10 10 -5 0
-10 -4 -10 -10z" />
    <path d="M800 425 c0 -8 2 -15 4 -15 2 0 6 7 10 15 3 8 1 15 -4 15 -6 0 -10
-7 -10 -15z" />
    <path d="M295 422 c-5 -4 -11 -14 -13 -22 -2 -12 1 -11 11 2 8 10 17 15 20 11
4 -3 7 -1 7 5 0 14 -10 15 -25 4z" />
    <path d="M425 419 c-4 -5 -4 -13 -1 -16 3 -4 6 0 6 8 0 11 2 11 10 -1 6 -9 10
-10 10 -3 0 17 -17 25 -25 12z" />
    <path d="M597 423 c-12 -11 -8 -19 12 -20 11 -1 25 5 32 13 9 11 7 14 -13 14
-14 0 -28 -3 -31 -7z" />
    <path d="M391 404 c0 -11 3 -14 6 -6 3 7 2 16 -1 19 -3 4 -6 -2 -5 -13z" />
    <path d="M310 385 c-7 -9 -9 -15 -4 -14 21 4 26 -2 14 -16 -11 -13 -15 -13
-22 -3 -8 10 -9 10 -6 -1 2 -8 12 -15 22 -17 10 -1 15 0 12 3 -3 4 -2 11 3 17
5 6 5 19 2 29 -6 18 -8 18 -21 2z" />
    <path d="M647 394 c-4 -4 -7 -12 -7 -17 0 -6 3 -7 7 -4 3 4 12 2 19 -4 15 -12
34 -4 34 14 0 7 -4 6 -10 -3 -8 -13 -11 -13 -22 3 -8 10 -17 15 -21 11z" />
    <path d="M720 396 c0 -2 7 -9 15 -16 13 -11 14 -10 9 4 -3 9 -10 16 -15 16 -5
0 -9 -2 -9 -4z" />
    <path d="M467 359 c7 -7 15 -10 18 -7 3 3 -2 9 -12 12 -14 6 -15 5 -6 -5z" />
    <path d="M597 359 c7 -7 15 -10 18 -7 3 3 -2 9 -12 12 -14 6 -15 5 -6 -5z" />
    <path d="M197 353 c-4 -3 -7 -11 -7 -17 0 -6 5 -5 12 2 6 6 9 14 7 17 -3 3 -9
2 -12 -2z" />
    <path d="M234 348 c-4 -7 -3 -8 4 -4 7 4 12 9 12 12 0 8 -9 4 -16 -8z" />
    <path d="M750 356 c0 -2 8 -10 18 -17 15 -13 16 -12 3 4 -13 16 -21 21 -21 13z" />
    <path d="M790 345 c7 -9 15 -13 17 -11 7 7 -7 26 -19 26 -6 0 -6 -6 2 -15z" />
    <path d="M360 335 c-9 -10 -9 -15 -1 -15 6 0 11 6 11 13 0 8 4 7 10 -3 6 -9
10 -10 10 -3 0 19 -17 24 -30 8z" />
    <path d="M990 180 c0 -7 3 -10 7 -7 3 4 3 10 0 14 -4 3 -7 0 -7 -7z" />
    <path d="M0 170 c0 -7 3 -10 7 -7 3 4 3 10 0 14 -4 3 -7 0 -7 -7z" />
  </g>
  <g transform="translate(0.000000,100.000000) scale(0.100000,-0.100000)" fill="#7c7bd0" stroke="none">
    <path d="M390 840 c-9 -6 -10 -10 -3 -10 6 0 15 5 18 10 8 12 4 12 -15 0z" />
    <path d="M597 839 c7 -7 15 -10 18 -7 3 3 -2 9 -12 12 -14 6 -15 5 -6 -5z" />
    <path d="M307 799 c-9 -5 -22 -7 -29 -3 -7 4 -8 3 -4 -4 9 -16 18 -15 42 3 22
17 17 19 -9 4z" />
    <path d="M690 790 c0 -7 3 -10 7 -7 3 4 3 10 0 14 -4 3 -7 0 -7 -7z" />
    <path d="M260 766 c0 -2 7 -7 16 -10 8 -3 12 -2 9 4 -6 10 -25 14 -25 6z" />
    <path d="M183 733 c4 -3 10 -3 14 0 3 4 0 7 -7 7 -7 0 -10 -3 -7 -7z" />
    <path d="M36 647 c3 -10 9 -15 12 -12 3 3 0 11 -7 18 -10 9 -11 8 -5 -6z" />
    <path d="M65 650 c3 -5 8 -10 11 -10 3 0 2 5 -1 10 -3 6 -8 10 -11 10 -3 0 -2
-4 1 -10z" />
    <path d="M270 650 c-9 -6 -10 -10 -3 -10 6 0 15 5 18 10 8 12 4 12 -15 0z" />
    <path d="M415 630 c-3 -6 1 -7 9 -4 18 7 21 14 7 14 -6 0 -13 -4 -16 -10z" />
    <path d="M560 636 c0 -2 7 -7 16 -10 8 -3 12 -2 9 4 -6 10 -25 14 -25 6z" />
    <path d="M364 545 c-7 -17 3 -35 18 -35 7 0 6 5 -2 15 -6 8 -9 19 -5 25 3 5 4
10 0 10 -3 0 -8 -7 -11 -15z" />
    <path d="M624 552 c4 -7 2 -19 -4 -27 -9 -11 -9 -15 -1 -15 18 0 25 30 11 43
-10 9 -11 9 -6 -1z" />
    <path d="M450 530 c-9 -6 -10 -10 -3 -10 6 0 15 5 18 10 8 12 4 12 -15 0z" />
    <path d="M537 529 c7 -7 15 -10 18 -7 3 3 -2 9 -12 12 -14 6 -15 5 -6 -5z" />
    <path d="M493 513 c4 -3 10 -3 14 0 3 4 0 7 -7 7 -7 0 -10 -3 -7 -7z" />
    <path d="M464 498 c-4 -7 -3 -8 4 -4 7 4 12 9 12 12 0 8 -9 4 -16 -8z" />
    <path d="M400 480 c0 -5 5 -10 11 -10 5 0 7 5 4 10 -3 6 -8 10 -11 10 -2 0 -4
-4 -4 -10z" />
    <path d="M488 479 c-10 -5 -18 -14 -18 -18 0 -10 48 -2 56 10 3 5 -3 6 -12 2
-12 -4 -15 -3 -10 5 9 14 6 14 -16 1z" />
    <path d="M588 473 c7 -3 16 -2 19 1 4 3 -2 6 -13 5 -11 0 -14 -3 -6 -6z" />
    <path d="M555 460 c3 -5 8 -10 11 -10 2 0 4 5 4 10 0 6 -5 10 -11 10 -5 0 -7
-4 -4 -10z" />
    <path d="M180 449 c0 -5 5 -7 10 -4 6 3 10 8 10 11 0 2 -4 4 -10 4 -5 0 -10
-5 -10 -11z" />
    <path d="M308 454 c-3 -5 3 -17 13 -26 15 -14 18 -14 23 -2 3 8 2 12 -3 9 -6
-3 -14 2 -19 11 -5 9 -11 13 -14 8z" />
    <path d="M683 449 c3 -9 0 -28 -7 -41 -13 -24 -12 -24 10 -14 13 6 24 16 24
21 -1 6 -8 19 -17 30 -11 14 -14 15 -10 4z" />
    <path d="M615 439 c4 -6 0 -9 -10 -7 -10 2 -20 -3 -23 -11 -3 -10 0 -12 11 -8
9 3 17 1 20 -6 2 -8 9 -7 20 5 19 18 23 33 7 23 -5 -3 -10 -1 -10 4 0 6 -5 11
-11 11 -5 0 -7 -5 -4 -11z" />
    <path d="M516 408 c6 -9 44 -6 44 3 0 4 -11 6 -24 5 -13 0 -22 -4 -20 -8z" />
    <path d="M725 400 c-3 -5 -1 -10 4 -10 6 0 11 5 11 10 0 6 -2 10 -4 10 -3 0
-8 -4 -11 -10z" />
    <path d="M275 391 c7 -12 -29 -33 -40 -23 -5 4 -5 2 -1 -5 4 -7 14 -9 24 -6
27 10 44 43 21 43 -5 0 -8 -4 -4 -9z" />
    <path d="M345 391 c-3 -5 -1 -12 5 -16 5 -3 10 1 10 9 0 18 -6 21 -15 7z" />
    <path d="M545 380 c-3 -5 -1 -10 4 -10 6 0 11 5 11 10 0 6 -2 10 -4 10 -3 0
-8 -4 -11 -10z" />
    <path d="M465 370 c-3 -6 1 -7 9 -4 18 7 21 14 7 14 -6 0 -13 -4 -16 -10z" />
    <path d="M508 373 c6 -2 9 -10 6 -15 -4 -7 -2 -8 5 -4 13 9 5 26 -12 25 -9 0
-8 -2 1 -6z" />
    <path d="M740 371 c0 -5 5 -13 10 -16 6 -3 10 -2 10 4 0 5 -4 13 -10 16 -5 3
-10 2 -10 -4z" />
    <path d="M425 360 c3 -5 8 -10 11 -10 3 0 2 5 -1 10 -3 6 -8 10 -11 10 -3 0
-2 -4 1 -10z" />
    <path d="M614 358 c-4 -7 -3 -8 4 -4 12 7 16 16 8 16 -3 0 -8 -5 -12 -12z" />
    <path d="M800 341 c0 -6 4 -13 10 -16 6 -3 7 1 4 9 -7 18 -14 21 -14 7z" />
    <path d="M326 326 c3 -9 11 -16 16 -16 13 0 5 23 -10 28 -7 2 -10 -2 -6 -12z" />
    <path d="M170 275 c-24 -25 -42 -45 -39 -45 3 0 25 20 49 45 24 25 42 45 39
45 -3 0 -25 -20 -49 -45z" />
    <path d="M825 270 c21 -22 41 -40 44 -40 3 0 -13 18 -34 40 -21 22 -41 40 -44
40 -3 0 13 -18 34 -40z" />
    <path d="M85 240 c-3 -5 -2 -10 4 -10 5 0 13 5 16 10 3 6 2 10 -4 10 -5 0 -13
-4 -16 -10z" />
    <path d="M895 240 c3 -5 11 -10 16 -10 6 0 7 5 4 10 -3 6 -11 10 -16 10 -6 0
-7 -4 -4 -10z" />
  </g>
  <g transform="translate(0.000000,100.000000) scale(0.100000,-0.100000)" fill="#dcdae6" stroke="none">
    <path d="M538 853 c7 -3 16 -2 19 1 4 3 -2 6 -13 5 -11 0 -14 -3 -6 -6z" />
    <path d="M403 843 c4 -3 10 -3 14 0 3 4 0 7 -7 7 -7 0 -10 -3 -7 -7z" />
    <path d="M583 843 c4 -3 10 -3 14 0 3 4 0 7 -7 7 -7 0 -10 -3 -7 -7z" />
    <path d="M689 834 c-7 -8 -21 -13 -31 -11 -10 3 -16 1 -12 -4 8 -14 24 -11 51
11 14 11 21 20 16 20 -6 0 -16 -7 -24 -16z" />
    <path d="M800 846 c0 -2 8 -10 18 -17 15 -13 16 -12 3 4 -13 16 -21 21 -21 13z" />
    <path d="M345 820 c-3 -6 1 -7 9 -4 18 7 21 14 7 14 -6 0 -13 -4 -16 -10z" />
    <path d="M885 820 c3 -5 8 -10 11 -10 3 0 2 5 -1 10 -3 6 -8 10 -11 10 -3 0
-2 -4 1 -10z" />
    <path d="M797 800 c10 -11 21 -20 25 -20 4 0 0 9 -9 20 -10 11 -21 20 -25 20
-4 0 0 -9 9 -20z" />
    <path d="M263 793 c4 -3 10 -3 14 0 3 4 0 7 -7 7 -7 0 -10 -3 -7 -7z" />
    <path d="M692 765 c0 -16 2 -22 5 -12 2 9 2 23 0 30 -3 6 -5 -1 -5 -18z" />
    <path d="M238 763 c6 -2 18 -2 25 0 6 3 1 5 -13 5 -14 0 -19 -2 -12 -5z" />
    <path d="M903 743 c4 -3 10 -3 14 0 3 4 0 7 -7 7 -7 0 -10 -3 -7 -7z" />
    <path d="M961 724 c0 -11 3 -14 6 -6 3 7 2 16 -1 19 -3 4 -6 -2 -5 -13z" />
    <path d="M302 705 c0 -16 2 -22 5 -12 2 9 2 23 0 30 -3 6 -5 -1 -5 -18z" />
    <path d="M63 713 c4 -3 10 -3 14 0 3 4 0 7 -7 7 -7 0 -10 -3 -7 -7z" />
    <path d="M733 703 c4 -3 10 -3 14 0 3 4 0 7 -7 7 -7 0 -10 -3 -7 -7z" />
    <path d="M934 678 c-4 -7 -3 -8 4 -4 7 4 12 9 12 12 0 8 -9 4 -16 -8z" />
    <path d="M31 664 c0 -11 3 -14 6 -6 3 7 2 16 -1 19 -3 4 -6 -2 -5 -13z" />
    <path d="M122 643 c27 -2 69 -2 96 0 26 2 4 3 -48 3 -52 0 -74 -1 -48 -3z" />
    <path d="M45 630 c3 -5 8 -10 11 -10 3 0 2 5 -1 10 -3 6 -8 10 -11 10 -3 0 -2
-4 1 -10z" />
    <path d="M404 618 c-4 -7 -3 -8 4 -4 7 4 12 9 12 12 0 8 -9 4 -16 -8z" />
    <path d="M585 620 c3 -5 8 -10 11 -10 3 0 2 5 -1 10 -3 6 -8 10 -11 10 -3 0
-2 -4 1 -10z" />
    <path d="M810 620 c0 -7 3 -10 7 -7 3 4 3 10 0 14 -4 3 -7 0 -7 -7z" />
    <path d="M170 580 c0 -7 3 -10 7 -7 3 4 3 10 0 14 -4 3 -7 0 -7 -7z" />
    <path d="M488 543 c6 -2 18 -2 25 0 6 3 1 5 -13 5 -14 0 -19 -2 -12 -5z" />
    <path d="M370 526 c0 -2 8 -10 18 -17 15 -13 16 -12 3 4 -13 16 -21 21 -21 13z" />
    <path d="M434 518 c-4 -7 -3 -8 4 -4 7 4 12 9 12 12 0 8 -9 4 -16 -8z" />
    <path d="M555 520 c3 -5 8 -10 11 -10 3 0 2 5 -1 10 -3 6 -8 10 -11 10 -3 0
-2 -4 1 -10z" />
    <path d="M609 513 c-13 -16 -12 -17 4 -4 9 7 17 15 17 17 0 8 -8 3 -21 -13z" />
    <path d="M963 493 c4 -3 10 -3 14 0 3 4 0 7 -7 7 -7 0 -10 -3 -7 -7z" />
    <path d="M40 480 c0 -5 5 -10 10 -10 6 0 10 5 10 10 0 6 -4 10 -10 10 -5 0
-10 -4 -10 -10z" />
    <path d="M170 480 c0 -7 3 -10 7 -7 3 4 3 10 0 14 -4 3 -7 0 -7 -7z" />
    <path d="M820 480 c0 -7 3 -10 7 -7 3 4 3 10 0 14 -4 3 -7 0 -7 -7z" />
    <path d="M96 471 c-4 -7 -5 -15 -2 -18 9 -9 19 4 14 18 -4 11 -6 11 -12 0z" />
    <path d="M30 450 c0 -7 3 -10 7 -7 3 4 3 10 0 14 -4 3 -7 0 -7 -7z" />
    <path d="M50 450 c0 -7 3 -10 7 -7 3 4 3 10 0 14 -4 3 -7 0 -7 -7z" />
    <path d="M900 449 c0 -5 5 -7 10 -4 6 3 10 8 10 11 0 2 -4 4 -10 4 -5 0 -10
-5 -10 -11z" />
    <path d="M952 439 c2 -6 8 -10 13 -10 5 0 11 4 13 10 2 6 -4 11 -13 11 -9 0
-15 -5 -13 -11z" />
    <path d="M63 417 c0 -8 6 -14 13 -14 7 0 10 6 7 14 -3 7 -8 13 -12 13 -4 0 -8
-6 -8 -13z" />
    <path d="M880 410 c0 -5 4 -10 9 -10 6 0 13 5 16 10 3 6 -1 10 -9 10 -9 0 -16
-4 -16 -10z" />
    <path d="M190 399 c0 -5 5 -7 10 -4 6 3 10 8 10 11 0 2 -4 4 -10 4 -5 0 -10
-5 -10 -11z" />
    <path d="M787 386 c-3 -8 1 -17 10 -20 23 -9 28 1 10 18 -13 13 -16 13 -20 2z" />
    <path d="M961 384 c0 -11 3 -14 6 -6 3 7 2 16 -1 19 -3 4 -6 -2 -5 -13z" />
    <path d="M86 378 c3 -4 9 -8 15 -8 5 0 9 4 9 8 0 5 -7 9 -15 9 -8 0 -12 -4 -9
-9z" />
    <path d="M940 380 c0 -7 3 -10 7 -7 3 4 3 10 0 14 -4 3 -7 0 -7 -7z" />
    <path d="M40 371 c0 -7 -5 -9 -12 -5 -7 5 -8 3 -3 -5 5 -9 10 -10 18 -2 6 6 8
14 4 18 -4 3 -7 1 -7 -6z" />
    <path d="M150 370 c0 -5 9 -10 19 -10 11 0 23 5 26 10 4 6 -5 10 -19 10 -14 0
-26 -4 -26 -10z" />
    <path d="M199 353 c-13 -16 -12 -17 4 -4 9 7 17 15 17 17 0 8 -8 3 -21 -13z" />
    <path d="M80 240 c-9 -6 -10 -10 -3 -10 6 0 15 5 18 10 8 12 4 12 -15 0z" />
    <path d="M907 239 c7 -7 15 -10 18 -7 3 3 -2 9 -12 12 -14 6 -15 5 -6 -5z" />
  </g>
  <g transform="translate(0.000000,100.000000) scale(0.100000,-0.100000)" fill="#3b3946" stroke="none">
    <path d="M387 503 c-11 -11 -8 -20 8 -20 8 0 15 6 15 14 0 14 -12 17 -23 6z" />
    <path d="M975 490 c3 -5 8 -10 11 -10 2 0 4 5 4 10 0 6 -5 10 -11 10 -5 0 -7
-4 -4 -10z" />
    <path d="M520 480 c0 -5 4 -10 9 -10 6 0 13 5 16 10 3 6 -1 10 -9 10 -9 0 -16
-4 -16 -10z" />
    <path d="M96 464 c-4 -10 -1 -14 6 -12 15 5 23 28 10 28 -5 0 -13 -7 -16 -16z" />
    <path d="M482 468 c-17 -17 -15 -35 3 -35 11 0 12 4 4 13 -7 9 -5 13 8 16 11
2 14 6 7 10 -6 4 -16 2 -22 -4z" />
    <path d="M555 470 c-3 -5 -1 -10 4 -10 6 0 11 5 11 10 0 6 -2 10 -4 10 -3 0
-8 -4 -11 -10z" />
    <path d="M610 450 c-13 -8 -13 -10 2 -10 9 0 20 5 23 10 8 13 -5 13 -25 0z" />
    <path d="M175 440 c-3 -5 -3 -10 2 -10 4 0 0 -5 -9 -11 -19 -11 -24 -44 -8
-54 5 -3 19 -1 30 5 11 6 20 7 20 2 0 -5 6 -9 14 -9 8 0 12 6 9 14 -3 7 -9 11
-13 8 -5 -3 -12 -1 -15 5 -5 8 -11 7 -21 -1 -11 -9 -14 -9 -14 1 0 8 7 21 16
31 9 10 11 19 5 23 -5 4 -12 2 -16 -4z" />
    <path d="M217 435 c-4 -8 -2 -17 3 -20 6 -4 10 3 10 14 0 25 -6 27 -13 6z" />
    <path d="M313 435 c0 -8 4 -12 9 -9 5 3 6 10 3 15 -9 13 -12 11 -12 -6z" />
    <path d="M385 440 c3 -5 8 -10 11 -10 2 0 4 5 4 10 0 6 -5 10 -11 10 -5 0 -7
-4 -4 -10z" />
    <path d="M430 436 c0 -8 5 -18 10 -21 6 -3 10 3 10 14 0 12 -4 21 -10 21 -5 0
-10 -6 -10 -14z" />
    <path d="M57 426 c-8 -8 -17 -12 -21 -9 -3 4 -6 -3 -6 -15 0 -11 5 -24 10 -27
6 -3 10 1 10 10 0 12 5 15 16 11 14 -5 15 -4 5 8 -9 11 -9 15 1 19 7 2 10 7 7
11 -4 4 -13 0 -22 -8z" />
    <path d="M638 434 c-6 -5 -30 -11 -52 -13 -4 -1 -5 -9 -1 -18 4 -10 8 -23 8
-28 0 -13 37 -15 37 -2 0 4 5 5 10 2 6 -3 10 -1 10 5 0 6 -10 8 -25 4 -21 -5
-25 -3 -25 17 0 16 3 20 8 11 7 -9 13 -8 27 8 10 11 16 20 13 20 -2 0 -7 -3
-10 -6z" />
    <path d="M670 419 c0 -15 7 -29 16 -33 8 -3 13 -2 10 3 -6 8 17 23 38 25 5 1
11 7 14 14 3 11 0 12 -16 3 -10 -6 -22 -7 -26 -4 -3 3 -6 0 -6 -7 0 -9 -5 -7
-15 6 -14 18 -14 18 -15 -7z" />
    <path d="M860 421 c-8 -17 -7 -19 16 -16 28 3 52 21 41 31 -4 4 -14 1 -24 -7
-11 -9 -14 -10 -9 -1 4 6 3 12 -3 12 -6 0 -15 -9 -21 -19z" />
    <path d="M270 414 c0 -8 -4 -12 -10 -9 -6 4 -10 -5 -10 -19 0 -14 5 -26 11
-26 5 0 7 5 4 11 -4 5 3 18 14 28 18 16 19 20 6 25 -9 3 -15 0 -15 -10z" />
    <path d="M505 420 c-3 -5 -2 -10 4 -10 5 0 13 5 16 10 3 6 2 10 -4 10 -5 0
-13 -4 -16 -10z" />
    <path d="M544 412 c3 -6 -3 -17 -15 -25 -11 -8 -17 -17 -12 -20 4 -3 16 6 26
18 12 17 14 26 5 31 -6 4 -8 3 -4 -4z" />
    <path d="M950 411 c0 -6 5 -13 10 -16 6 -3 10 1 10 9 0 9 -4 16 -10 16 -5 0
-10 -4 -10 -9z" />
    <path d="M324 397 c-8 -21 -3 -29 13 -19 8 5 9 13 3 22 -7 12 -10 12 -16 -3z" />
    <path d="M420 384 c0 -8 5 -12 10 -9 6 4 8 11 5 16 -9 14 -15 11 -15 -7z" />
    <path d="M747 386 c-4 -10 -1 -13 9 -9 7 3 14 9 14 14 0 14 -17 10 -23 -5z" />
    <path d="M805 370 c-16 -18 -16 -18 4 -13 25 6 35 19 22 27 -4 3 -16 -3 -26
-14z" />
    <path d="M896 380 c-15 -5 -16 -9 -7 -14 7 -5 18 -3 24 3 14 14 6 20 -17 11z" />
    <path d="M115 370 c-3 -5 1 -10 9 -10 9 0 16 5 16 10 0 6 -4 10 -9 10 -6 0
-13 -4 -16 -10z" />
    <path d="M370 361 c0 -11 5 -23 10 -26 6 -3 10 3 10 14 0 11 -4 23 -10 26 -5
3 -10 -3 -10 -14z" />
    <path d="M332 328 c5 -13 38 -20 38 -8 0 4 -9 10 -21 13 -12 3 -19 1 -17 -5z" />
  </g>
  <g transform="translate(0.000000,100.000000) scale(0.100000,-0.100000)" fill="#b1b0dc" stroke="none">
    <path d="M463 853 c4 -3 10 -3 14 0 3 4 0 7 -7 7 -7 0 -10 -3 -7 -7z" />
    <path d="M523 853 c4 -3 10 -3 14 0 3 4 0 7 -7 7 -7 0 -10 -3 -7 -7z" />
    <path d="M733 853 c4 -3 10 -3 14 0 3 4 0 7 -7 7 -7 0 -10 -3 -7 -7z" />
    <path d="M763 853 c4 -3 10 -3 14 0 3 4 0 7 -7 7 -7 0 -10 -3 -7 -7z" />
    <path d="M413 843 c4 -3 10 -3 14 0 3 4 0 7 -7 7 -7 0 -10 -3 -7 -7z" />
    <path d="M573 843 c4 -3 10 -3 14 0 3 4 0 7 -7 7 -7 0 -10 -3 -7 -7z" />
    <path d="M373 833 c4 -3 10 -3 14 0 3 4 0 7 -7 7 -7 0 -10 -3 -7 -7z" />
    <path d="M613 833 c4 -3 10 -3 14 0 3 4 0 7 -7 7 -7 0 -10 -3 -7 -7z" />
    <path d="M684 828 c-4 -7 -3 -8 4 -4 12 7 16 16 8 16 -3 0 -8 -5 -12 -12z" />
    <path d="M753 823 c4 -3 10 -3 14 0 3 4 0 7 -7 7 -7 0 -10 -3 -7 -7z" />
    <path d="M324 808 c-4 -7 -3 -8 4 -4 12 7 16 16 8 16 -3 0 -8 -5 -12 -12z" />
    <path d="M901 803 c7 -12 15 -20 18 -17 3 2 -3 12 -13 22 -17 16 -18 16 -5 -5z" />
    <path d="M213 793 c4 -3 10 -3 14 0 3 4 0 7 -7 7 -7 0 -10 -3 -7 -7z" />
    <path d="M253 793 c4 -3 10 -3 14 0 3 4 0 7 -7 7 -7 0 -10 -3 -7 -7z" />
    <path d="M294 788 c-4 -7 -3 -8 4 -4 12 7 16 16 8 16 -3 0 -8 -5 -12 -12z" />
    <path d="M170 770 c-9 -6 -10 -10 -3 -10 6 0 15 5 18 10 8 12 4 12 -15 0z" />
    <path d="M930 776 c0 -2 8 -10 18 -17 15 -13 16 -12 3 4 -13 16 -21 21 -21 13z" />
    <path d="M215 760 c-3 -6 1 -7 9 -4 18 7 21 14 7 14 -6 0 -13 -4 -16 -10z" />
    <path d="M280 756 c0 -2 8 -10 18 -17 15 -13 16 -12 3 4 -13 16 -21 21 -21 13z" />
    <path d="M705 720 c10 -11 20 -20 23 -20 3 0 -3 9 -13 20 -10 11 -20 20 -23
20 -3 0 3 -9 13 -20z" />
    <path d="M944 688 c-4 -7 -3 -8 4 -4 12 7 16 16 8 16 -3 0 -8 -5 -12 -12z" />
    <path d="M65 680 c-3 -6 1 -7 9 -4 18 7 21 14 7 14 -6 0 -13 -4 -16 -10z" />
    <path d="M289 663 c-13 -16 -12 -17 4 -4 9 7 17 15 17 17 0 8 -8 3 -21 -13z" />
    <path d="M800 650 c0 -7 3 -10 7 -7 3 4 3 10 0 14 -4 3 -7 0 -7 -7z" />
    <path d="M253 643 c4 -3 10 -3 14 0 3 4 0 7 -7 7 -7 0 -10 -3 -7 -7z" />
    <path d="M68 613 c7 -3 16 -2 19 1 4 3 -2 6 -13 5 -11 0 -14 -3 -6 -6z" />
    <path d="M810 610 c0 -7 3 -10 7 -7 3 4 3 10 0 14 -4 3 -7 0 -7 -7z" />
    <path d="M171 564 c0 -11 3 -14 6 -6 3 7 2 16 -1 19 -3 4 -6 -2 -5 -13z" />
    <path d="M820 570 c0 -7 3 -10 7 -7 3 4 3 10 0 14 -4 3 -7 0 -7 -7z" />
    <path d="M171 494 c0 -11 3 -14 6 -6 3 7 2 16 -1 19 -3 4 -6 -2 -5 -13z" />
    <path d="M395 500 c3 -5 8 -10 11 -10 2 0 4 5 4 10 0 6 -5 10 -11 10 -5 0 -7
-4 -4 -10z" />
    <path d="M593 503 c4 -3 10 -3 14 0 3 4 0 7 -7 7 -7 0 -10 -3 -7 -7z" />
    <path d="M821 494 c0 -11 3 -14 6 -6 3 7 2 16 -1 19 -3 4 -6 -2 -5 -13z" />
    <path d="M144 288 c-4 -7 -3 -8 4 -4 12 7 16 16 8 16 -3 0 -8 -5 -12 -12z" />
    <path d="M845 290 c3 -5 8 -10 11 -10 3 0 2 5 -1 10 -3 6 -8 10 -11 10 -3 0
-2 -4 1 -10z" />
    <path d="M12 154 c10 -10 20 -16 22 -13 3 3 -5 11 -17 18 -21 13 -21 12 -5 -5z" />
    <path d="M976 155 c-11 -8 -15 -15 -9 -15 6 0 16 7 23 15 16 19 11 19 -14 0z" />
  </g>
  <g transform="translate(0.000000,100.000000) scale(0.100000,-0.100000)" fill="#8c8bce" stroke="none">
    <path d="M714 848 c-4 -7 -3 -8 4 -4 12 7 16 16 8 16 -3 0 -8 -5 -12 -12z" />
    <path d="M364 828 c-4 -7 -3 -8 4 -4 12 7 16 16 8 16 -3 0 -8 -5 -12 -12z" />
    <path d="M333 813 c4 -3 10 -3 14 0 3 4 0 7 -7 7 -7 0 -10 -3 -7 -7z" />
    <path d="M653 813 c4 -3 10 -3 14 0 3 4 0 7 -7 7 -7 0 -10 -3 -7 -7z" />
    <path d="M795 810 c3 -5 8 -10 11 -10 3 0 2 5 -1 10 -3 6 -8 10 -11 10 -3 0
-2 -4 1 -10z" />
    <path d="M200 790 c-9 -6 -10 -10 -3 -10 6 0 15 5 18 10 8 12 4 12 -15 0z" />
    <path d="M243 793 c4 -3 10 -3 14 0 3 4 0 7 -7 7 -7 0 -10 -3 -7 -7z" />
    <path d="M113 763 c4 -3 10 -3 14 0 3 4 0 7 -7 7 -7 0 -10 -3 -7 -7z" />
    <path d="M690 740 c0 -7 3 -10 7 -7 3 4 3 10 0 14 -4 3 -7 0 -7 -7z" />
    <path d="M300 730 c0 -7 3 -10 7 -7 3 4 3 10 0 14 -4 3 -7 0 -7 -7z" />
    <path d="M723 703 c4 -3 10 -3 14 0 3 4 0 7 -7 7 -7 0 -10 -3 -7 -7z" />
    <path d="M300 680 c0 -7 3 -10 7 -7 3 4 3 10 0 14 -4 3 -7 0 -7 -7z" />
    <path d="M795 660 c3 -5 8 -10 11 -10 3 0 2 5 -1 10 -3 6 -8 10 -11 10 -3 0
-2 -4 1 -10z" />
    <path d="M73 643 c4 -3 10 -3 14 0 3 4 0 7 -7 7 -7 0 -10 -3 -7 -7z" />
    <path d="M463 633 c20 -2 54 -2 75 0 20 2 3 4 -38 4 -41 0 -58 -2 -37 -4z" />
    <path d="M90 614 c35 -7 98 -9 94 -2 -3 5 -29 7 -57 7 -29 -1 -45 -3 -37 -5z" />
    <path d="M360 530 c0 -5 5 -10 11 -10 5 0 7 5 4 10 -3 6 -8 10 -11 10 -2 0 -4
-4 -4 -10z" />
    <path d="M625 530 c-3 -5 -1 -10 4 -10 6 0 11 5 11 10 0 6 -2 10 -4 10 -3 0
-8 -4 -11 -10z" />
    <path d="M424 508 c-4 -7 -3 -8 4 -4 7 4 12 9 12 12 0 8 -9 4 -16 -8z" />
    <path d="M565 510 c3 -5 8 -10 11 -10 3 0 2 5 -1 10 -3 6 -8 10 -11 10 -3 0
-2 -4 1 -10z" />
    <path d="M386 502 c-3 -5 1 -9 9 -9 8 0 12 4 9 9 -3 4 -7 8 -9 8 -2 0 -6 -4
-9 -8z" />
    <path d="M790 400 c0 -7 3 -10 7 -7 3 4 3 10 0 14 -4 3 -7 0 -7 -7z" />
    <path d="M186 333 c-6 -14 -5 -15 5 -6 7 7 10 15 7 18 -3 3 -9 -2 -12 -12z" />
    <path d="M887 249 c7 -7 15 -10 18 -7 3 3 -2 9 -12 12 -14 6 -15 5 -6 -5z" />
    <path d="M93 243 c4 -3 10 -3 14 0 3 4 0 7 -7 7 -7 0 -10 -3 -7 -7z" />
    <path d="M0 170 c0 -7 3 -10 7 -7 3 4 3 10 0 14 -4 3 -7 0 -7 -7z" />
    <path d="M990 170 c0 -7 3 -10 7 -7 3 4 3 10 0 14 -4 3 -7 0 -7 -7z" />
  </g>
  <g transform="translate(0.000000,100.000000) scale(0.100000,-0.100000)" fill="#5a588f" stroke="none">
    <path d="M380 490 c0 -7 3 -10 7 -7 3 4 3 10 0 14 -4 3 -7 0 -7 -7z" />
    <path d="M400 490 c0 -7 3 -10 7 -7 3 4 3 10 0 14 -4 3 -7 0 -7 -7z" />
    <path d="M440 490 c0 -7 3 -10 7 -7 3 4 3 10 0 14 -4 3 -7 0 -7 -7z" />
    <path d="M460 490 c0 -7 3 -10 7 -7 3 4 3 10 0 14 -4 3 -7 0 -7 -7z" />
    <path d="M535 483 c11 -3 24 -10 28 -17 6 -7 7 -6 4 4 -2 8 -14 16 -28 17 -19
1 -20 1 -4 -4z" />
    <path d="M495 470 c3 -5 8 -10 11 -10 3 0 2 5 -1 10 -3 6 -8 10 -11 10 -3 0
-2 -4 1 -10z" />
    <path d="M193 453 c4 -3 10 -3 14 0 3 4 0 7 -7 7 -7 0 -10 -3 -7 -7z" />
    <path d="M471 448 c-1 -21 15 -32 25 -17 4 7 3 9 -4 5 -6 -3 -13 2 -15 11 -4
16 -5 16 -6 1z" />
    <path d="M632 446 c7 -8 15 -12 17 -11 5 6 -10 25 -20 25 -5 0 -4 -6 3 -14z" />
    <path d="M815 450 c3 -5 8 -10 11 -10 2 0 4 5 4 10 0 6 -5 10 -11 10 -5 0 -7
-4 -4 -10z" />
    <path d="M268 420 c2 -16 7 -30 11 -30 4 0 6 14 3 30 -2 17 -7 30 -11 30 -4 0
-6 -13 -3 -30z" />
    <path d="M295 441 c-3 -5 -2 -12 3 -15 5 -3 9 1 9 9 0 17 -3 19 -12 6z" />
    <path d="M595 441 c-3 -5 -2 -12 3 -15 5 -3 9 1 9 9 0 17 -3 19 -12 6z" />
    <path d="M777 431 c-3 -11 1 -22 8 -25 9 -3 11 2 7 16 -4 16 -2 19 8 13 9 -5
11 -4 6 3 -11 18 -23 14 -29 -7z" />
    <path d="M391 424 c0 -11 3 -14 6 -6 3 7 2 16 -1 19 -3 4 -6 -2 -5 -13z" />
    <path d="M706 431 c-4 -5 -2 -12 4 -16 5 -3 10 -3 11 2 0 4 4 -1 9 -12 7 -15
9 -16 9 -4 1 21 -25 44 -33 30z" />
    <path d="M252 410 c0 -14 2 -19 5 -12 2 6 2 18 0 25 -3 6 -5 1 -5 -13z" />
    <path d="M440 420 c0 -7 3 -10 7 -7 3 4 3 10 0 14 -4 3 -7 0 -7 -7z" />
    <path d="M514 418 c-4 -7 -3 -8 4 -4 12 7 16 16 8 16 -3 0 -8 -5 -12 -12z" />
    <path d="M330 410 c0 -7 3 -10 7 -7 3 4 3 10 0 14 -4 3 -7 0 -7 -7z" />
    <path d="M535 411 c-3 -5 -2 -12 3 -15 5 -3 9 1 9 9 0 17 -3 19 -12 6z" />
    <path d="M680 399 c0 -5 5 -7 10 -4 6 3 10 8 10 11 0 2 -4 4 -10 4 -5 0 -10
-5 -10 -11z" />
    <path d="M422 380 c0 -14 2 -19 5 -12 2 6 2 18 0 25 -3 6 -5 1 -5 -13z" />
    <path d="M755 390 c3 -5 8 -10 11 -10 2 0 4 5 4 10 0 6 -5 10 -11 10 -5 0 -7
-4 -4 -10z" />
    <path d="M371 374 c0 -11 3 -14 6 -6 3 7 2 16 -1 19 -3 4 -6 -2 -5 -13z" />
    <path d="M597 379 c7 -7 15 -10 18 -7 3 3 -2 9 -12 12 -14 6 -15 5 -6 -5z" />
    <path d="M635 380 c3 -5 8 -10 11 -10 3 0 2 5 -1 10 -3 6 -8 10 -11 10 -3 0
-2 -4 1 -10z" />
    <path d="M260 370 c-9 -6 -10 -10 -3 -10 6 0 15 5 18 10 8 12 4 12 -15 0z" />
    <path d="M325 370 c3 -5 8 -10 11 -10 3 0 2 5 -1 10 -3 6 -8 10 -11 10 -3 0
-2 -4 1 -10z" />
    <path d="M515 370 c3 -5 8 -10 11 -10 3 0 2 5 -1 10 -3 6 -8 10 -11 10 -3 0
-2 -4 1 -10z" />
    <path d="M745 370 c3 -5 8 -10 11 -10 3 0 2 5 -1 10 -3 6 -8 10 -11 10 -3 0
-2 -4 1 -10z" />
    <path d="M673 363 c4 -3 10 -3 14 0 3 4 0 7 -7 7 -7 0 -10 -3 -7 -7z" />
    <path d="M777 359 c7 -7 15 -10 18 -7 3 3 -2 9 -12 12 -14 6 -15 5 -6 -5z" />
    <path d="M483 353 c4 -3 10 -3 14 0 3 4 0 7 -7 7 -7 0 -10 -3 -7 -7z" />
    <path d="M380 340 c0 -7 3 -10 7 -7 3 4 3 10 0 14 -4 3 -7 0 -7 -7z" />
    <path d="M344 318 c-4 -7 -3 -8 4 -4 7 4 12 9 12 12 0 8 -9 4 -16 -8z" />
  </g>
  <g transform="translate(0.000000,100.000000) scale(0.100000,-0.100000)" fill="#e9e7f1" stroke="none">
    <path d="M443 853 c4 -3 10 -3 14 0 3 4 0 7 -7 7 -7 0 -10 -3 -7 -7z" />
    <path d="M723 853 c4 -3 10 -3 14 0 3 4 0 7 -7 7 -7 0 -10 -3 -7 -7z" />
    <path d="M184 778 c-4 -7 -3 -8 4 -4 12 7 16 16 8 16 -3 0 -8 -5 -12 -12z" />
    <path d="M55 620 c3 -5 8 -10 11 -10 3 0 2 5 -1 10 -3 6 -8 10 -11 10 -3 0 -2
-4 1 -10z" />
    <path d="M820 580 c0 -7 3 -10 7 -7 3 4 3 10 0 14 -4 3 -7 0 -7 -7z" />
    <path d="M365 530 c3 -5 8 -10 11 -10 3 0 2 5 -1 10 -3 6 -8 10 -11 10 -3 0
-2 -4 1 -10z" />
    <path d="M624 528 c-4 -7 -3 -8 4 -4 7 4 12 9 12 12 0 8 -9 4 -16 -8z" />
    <path d="M90 450 c0 -5 5 -10 10 -10 6 0 10 5 10 10 0 6 -4 10 -10 10 -5 0
-10 -4 -10 -10z" />
    <path d="M100 382 c0 -5 7 -9 15 -9 8 0 12 4 9 9 -3 4 -9 8 -15 8 -5 0 -9 -4
-9 -8z" />
    <path d="M795 350 c3 -5 8 -10 11 -10 3 0 2 5 -1 10 -3 6 -8 10 -11 10 -3 0
-2 -4 1 -10z" />
    <path d="M28 233 c12 -2 30 -2 40 0 9 3 -1 5 -23 4 -22 0 -30 -2 -17 -4z" />
    <path d="M938 233 c12 -2 30 -2 40 0 9 3 -1 5 -23 4 -22 0 -30 -2 -17 -4z" />
  </g>
  <g transform="translate(0.000000,100.000000) scale(0.100000,-0.100000)" fill="#c8c7da" stroke="none">
    <path d="M453 853 c4 -3 10 -3 14 0 3 4 0 7 -7 7 -7 0 -10 -3 -7 -7z" />
    <path d="M743 823 c4 -3 10 -3 14 0 3 4 0 7 -7 7 -7 0 -10 -3 -7 -7z" />
    <path d="M493 543 c4 -3 10 -3 14 0 3 4 0 7 -7 7 -7 0 -10 -3 -7 -7z" />
    <path d="M40 483 c0 -4 5 -15 10 -23 8 -13 10 -13 10 2 0 9 -4 20 -10 23 -5 3
-10 3 -10 -2z" />
    <path d="M889 458 c-1 -2 -3 -12 -4 -24 -1 -11 3 -21 9 -21 7 0 13 11 14 24 1
13 -3 23 -8 23 -6 0 -11 -1 -11 -2z" />
    <path d="M31 434 c0 -11 3 -14 6 -6 3 7 2 16 -1 19 -3 4 -6 -2 -5 -13z" />
    <path d="M810 440 c-9 -6 -10 -10 -3 -10 6 0 15 5 18 10 8 12 4 12 -15 0z" />
    <path d="M167 433 c-10 -9 -9 -23 1 -23 5 0 9 7 9 15 0 17 -1 18 -10 8z" />
    <path d="M186 391 c-17 -19 -17 -19 0 -17 9 2 18 10 20 19 1 9 1 17 0 17 -2 0
-11 -9 -20 -19z" />
    <path d="M851 393 c0 -12 2 -24 7 -26 4 -3 16 0 27 4 19 9 19 9 -2 5 -16 -3
-23 2 -26 18 -4 21 -4 21 -6 -1z" />
    <path d="M960 400 c0 -7 3 -10 7 -7 3 4 3 10 0 14 -4 3 -7 0 -7 -7z" />
    <path d="M915 390 c-3 -5 -1 -10 4 -10 6 0 11 5 11 10 0 6 -2 10 -4 10 -3 0
-8 -4 -11 -10z" />
    <path d="M810 368 c0 -4 4 -8 9 -8 6 0 12 4 15 8 3 5 -1 9 -9 9 -8 0 -15 -4
-15 -9z" />
    <path d="M960 370 c0 -7 3 -10 7 -7 3 4 3 10 0 14 -4 3 -7 0 -7 -7z" />
  </g>
  <g transform="translate(0.000000,100.000000) scale(0.100000,-0.100000)" fill="#9b6eb8" stroke="none">
    <path d="M453 823 c4 -3 10 -3 14 0 3 4 0 7 -7 7 -7 0 -10 -3 -7 -7z" />
    <path d="M533 823 c4 -3 10 -3 14 0 3 4 0 7 -7 7 -7 0 -10 -3 -7 -7z" />
    <path d="M304 638 c-4 -7 -3 -8 4 -4 12 7 16 16 8 16 -3 0 -8 -5 -12 -12z" />
    <path d="M200 570 c0 -7 3 -10 7 -7 3 4 3 10 0 14 -4 3 -7 0 -7 -7z" />
    <path d="M790 570 c0 -7 3 -10 7 -7 3 4 3 10 0 14 -4 3 -7 0 -7 -7z" />
    <path d="M790 490 c0 -7 3 -10 7 -7 3 4 3 10 0 14 -4 3 -7 0 -7 -7z" />
    <path d="M263 443 c4 -3 10 -3 14 0 3 4 0 7 -7 7 -7 0 -10 -3 -7 -7z" />
    <path d="M715 440 c-3 -6 1 -7 9 -4 18 7 21 14 7 14 -6 0 -13 -4 -16 -10z" />
    <path d="M777 431 c-4 -17 -3 -21 5 -13 5 5 8 16 6 23 -3 8 -7 3 -11 -10z" />
    <path d="M220 394 c0 -8 5 -12 10 -9 6 4 8 11 5 16 -9 14 -15 11 -15 -7z" />
    <path d="M760 390 c0 -7 3 -10 7 -7 3 4 3 10 0 14 -4 3 -7 0 -7 -7z" />
  </g>
  <g transform="translate(0.000000,100.000000) scale(0.100000,-0.100000)" fill="#4e4d76" stroke="none">
    <path d="M183 435 c0 -8 4 -12 9 -9 5 3 6 10 3 15 -9 13 -12 11 -12 -6z" />
    <path d="M470 440 c0 -7 3 -10 7 -7 3 4 3 10 0 14 -4 3 -7 0 -7 -7z" />
    <path d="M674 436 c-3 -8 -1 -22 4 -32 7 -13 9 -10 8 15 0 17 -2 31 -4 31 -1
0 -5 -6 -8 -14z" />
    <path d="M780 430 c0 -7 3 -10 7 -7 3 4 3 10 0 14 -4 3 -7 0 -7 -7z" />
    <path d="M295 420 c-3 -6 1 -7 9 -4 18 7 21 14 7 14 -6 0 -13 -4 -16 -10z" />
    <path d="M222 400 c0 -14 2 -19 5 -12 2 6 2 18 0 25 -3 6 -5 1 -5 -13z" />
    <path d="M794 408 c-4 -7 -3 -8 4 -4 7 4 12 9 12 12 0 8 -9 4 -16 -8z" />
    <path d="M330 401 c0 -6 4 -13 10 -16 6 -3 7 1 4 9 -7 18 -14 21 -14 7z" />
    <path d="M273 393 c4 -3 10 -3 14 0 3 4 0 7 -7 7 -7 0 -10 -3 -7 -7z" />
    <path d="M536 391 c-4 -5 -2 -12 3 -15 5 -4 12 -2 15 3 4 5 2 12 -3 15 -5 4
-12 2 -15 -3z" />
    <path d="M770 369 c0 -5 5 -7 10 -4 6 3 10 8 10 11 0 2 -4 4 -10 4 -5 0 -10
-5 -10 -11z" />
    <path d="M370 361 c0 -6 4 -13 10 -16 6 -3 7 1 4 9 -7 18 -14 21 -14 7z" />
  </g>
  <g transform="translate(0.000000,100.000000) scale(0.100000,-0.100000)" fill="#535159" stroke="none">
    <path d="M980 490 c0 -7 3 -10 7 -7 3 4 3 10 0 14 -4 3 -7 0 -7 -7z" />
    <path d="M45 470 c3 -5 8 -10 11 -10 2 0 4 5 4 10 0 6 -5 10 -11 10 -5 0 -7
-4 -4 -10z" />
    <path d="M102 475 c4 -4 -3 -16 -15 -25 -12 -10 -19 -21 -16 -24 3 -3 16 5 28
18 18 19 20 26 9 32 -7 4 -10 4 -6 -1z" />
    <path d="M820 450 c0 -5 5 -10 10 -10 6 0 10 5 10 10 0 6 -4 10 -10 10 -5 0
-10 -4 -10 -10z" />
    <path d="M883 445 c-14 -10 -19 -22 -16 -36 4 -15 9 -17 17 -9 8 8 7 13 -2 19
-11 7 -11 9 1 14 8 3 20 0 26 -6 13 -13 15 2 3 20 -6 10 -13 9 -29 -2z" />
    <path d="M953 434 c-3 -8 -1 -20 6 -27 8 -8 11 -4 9 16 -1 15 -4 27 -5 27 -2
0 -6 -7 -10 -16z" />
    <path d="M154 409 c-3 -6 -1 -16 6 -22 10 -9 12 -8 7 5 -3 9 -1 19 6 22 9 3 9
5 0 5 -6 1 -15 -4 -19 -10z" />
    <path d="M503 413 c4 -3 10 -3 14 0 3 4 0 7 -7 7 -7 0 -10 -3 -7 -7z" />
    <path d="M807 405 c3 -8 9 -12 14 -9 12 7 11 11 -5 17 -10 4 -13 1 -9 -8z" />
    <path d="M30 401 c0 -5 5 -13 10 -16 6 -3 10 -2 10 4 0 5 -4 13 -10 16 -5 3
-10 2 -10 -4z" />
    <path d="M100 380 c6 -11 13 -20 16 -20 2 0 0 9 -6 20 -6 11 -13 20 -16 20 -2
0 0 -9 6 -20z" />
    <path d="M810 370 c0 -7 3 -10 7 -7 3 4 3 10 0 14 -4 3 -7 0 -7 -7z" />
  </g>
  <g transform="translate(0.000000,100.000000) scale(0.100000,-0.100000)" fill="#6865a4" stroke="none">
    <path d="M555 480 c3 -5 8 -10 11 -10 3 0 2 5 -1 10 -3 6 -8 10 -11 10 -3 0
-2 -4 1 -10z" />
    <path d="M179 443 c-13 -16 -12 -17 4 -4 16 13 21 21 13 21 -2 0 -10 -8 -17
-17z" />
    <path d="M303 443 c4 -3 10 -3 14 0 3 4 0 7 -7 7 -7 0 -10 -3 -7 -7z" />
    <path d="M371 394 c0 -11 3 -14 6 -6 3 7 2 16 -1 19 -3 4 -6 -2 -5 -13z" />
    <path d="M420 400 c0 -7 3 -10 7 -7 3 4 3 10 0 14 -4 3 -7 0 -7 -7z" />
    <path d="M345 380 c3 -5 8 -10 11 -10 3 0 2 5 -1 10 -3 6 -8 10 -11 10 -3 0
-2 -4 1 -10z" />
    <path d="M767 379 c7 -7 15 -10 18 -7 3 3 -2 9 -12 12 -14 6 -15 5 -6 -5z" />
  </g>
  <g transform="translate(0.000000,100.000000) scale(0.100000,-0.100000)" fill="#979698" stroke="none">
    <path d="M974 478 c-4 -7 -3 -8 4 -4 7 4 12 9 12 12 0 8 -9 4 -16 -8z" />
    <path d="M825 450 c-3 -5 -1 -10 4 -10 6 0 11 5 11 10 0 6 -2 10 -4 10 -3 0
-8 -4 -11 -10z" />
    <path d="M905 430 c3 -5 8 -10 11 -10 3 0 2 5 -1 10 -3 6 -8 10 -11 10 -3 0
-2 -4 1 -10z" />
    <path d="M950 431 c0 -6 4 -13 10 -16 6 -3 7 1 4 9 -7 18 -14 21 -14 7z" />
    <path d="M31 414 c0 -11 3 -14 6 -6 3 7 2 16 -1 19 -3 4 -6 -2 -5 -13z" />
    <path d="M867 419 c7 -7 15 -10 18 -7 3 3 -2 9 -12 12 -14 6 -15 5 -6 -5z" />
    <path d="M83 395 c0 -8 4 -12 9 -9 5 3 6 10 3 15 -9 13 -12 11 -12 -6z" />
    <path d="M819 409 c0 -2 -2 -11 -4 -20 -1 -9 3 -16 10 -16 7 0 12 6 11 13 -2
13 -15 31 -17 23z" />
    <path d="M163 382 c0 -12 5 -22 9 -22 11 0 10 12 -2 30 -7 12 -9 10 -7 -8z" />
    <path d="M850 390 c0 -7 3 -10 7 -7 3 4 3 10 0 14 -4 3 -7 0 -7 -7z" />
    <path d="M194 378 c-4 -7 -3 -8 4 -4 12 7 16 16 8 16 -3 0 -8 -5 -12 -12z" />
    <path d="M910 379 c0 -5 -5 -7 -12 -3 -7 4 -8 3 -4 -5 6 -9 11 -9 22 0 17 14
18 19 4 19 -5 0 -10 -5 -10 -11z" />
    <path d="M116 372 c-3 -5 1 -9 9 -9 8 0 15 4 15 9 0 4 -4 8 -9 8 -6 0 -12 -4
-15 -8z" />
    <path d="M864 368 c-4 -7 -3 -8 4 -4 7 4 12 9 12 12 0 8 -9 4 -16 -8z" />
  </g>
  <g transform="translate(0.000000,100.000000) scale(0.100000,-0.100000)" fill="#b1b1b2" stroke="none">
    <path d="M50 470 c0 -7 3 -10 7 -7 3 4 3 10 0 14 -4 3 -7 0 -7 -7z" />
    <path d="M173 425 c0 -8 4 -12 9 -9 5 3 6 10 3 15 -9 13 -12 11 -12 -6z" />
    <path d="M904 418 c-4 -7 -3 -8 4 -4 7 4 12 9 12 12 0 8 -9 4 -16 -8z" />
    <path d="M960 410 c0 -7 3 -10 7 -7 3 4 3 10 0 14 -4 3 -7 0 -7 -7z" />
    <path d="M43 395 c-3 -9 -3 -18 -1 -21 3 -3 8 4 11 16 6 23 -1 27 -10 5z" />
    <path d="M75 401 c-3 -5 -2 -12 3 -15 5 -3 9 1 9 9 0 17 -3 19 -12 6z" />
    <path d="M155 400 c3 -5 8 -10 11 -10 3 0 2 5 -1 10 -3 6 -8 10 -11 10 -3 0
-2 -4 1 -10z" />
    <path d="M123 373 c4 -3 10 -3 14 0 3 4 0 7 -7 7 -7 0 -10 -3 -7 -7z" />
  </g>
  <g transform="translate(0.000000,100.000000) scale(0.100000,-0.100000)" fill="#83767d" stroke="none">
    <path d="M830 450 c0 -7 3 -10 7 -7 3 4 3 10 0 14 -4 3 -7 0 -7 -7z" />
    <path d="M735 440 c3 -5 8 -10 11 -10 3 0 2 5 -1 10 -3 6 -8 10 -11 10 -3 0
-2 -4 1 -10z" />
    <path d="M74 428 c-4 -7 -3 -8 4 -4 7 4 12 9 12 12 0 8 -9 4 -16 -8z" />
    <path d="M35 400 c3 -5 8 -10 11 -10 3 0 2 5 -1 10 -3 6 -8 10 -11 10 -3 0 -2
-4 1 -10z" />
    <path d="M910 380 c0 -7 3 -10 7 -7 3 4 3 10 0 14 -4 3 -7 0 -7 -7z" />
    <path d="M164 368 c-4 -7 -3 -8 4 -4 12 7 16 16 8 16 -3 0 -8 -5 -12 -12z" />
  </g>
</svg>