<svg width="64.000000pt" height="64.000000pt" viewBox="0 0 64.000000 64.000000" xmlns="http://www.w3.org/2000/svg">
  <g transform="translate(0.000000,64.000000) scale(0.100000,-0.100000)" fill="none" stroke="none">
    <path d="M0 320 l0 -320 320 0 320 0 0 320 0 320 -320 0 -320 0 0 -320z m533
223 c-18 -7 -16 -33 2 -33 8 0 15 -4 15 -10 0 -14 28 -12 33 3 l4 12 18 -35
c10 -19 20 -62 23 -96 l5 -61 -12 -36 c-7 -20 -24 -46 -38 -57 l-26 -20 -37 0
c-42 0 -130 28 -130 41 0 5 -9 9 -20 9 l-20 0 0 -48 0 -48 -16 -23 c-9 -13
-32 -29 -50 -37 l-33 -14 -71 0 -71 0 -33 14 c-66 27 -82 86 -50 181 l17 48
47 49 46 48 41 0 41 0 30 -25 c17 -14 37 -25 46 -25 l16 0 0 24 0 24 40 40
c21 23 56 50 77 61 l38 20 40 0 c22 0 34 -3 28 -6z m32 -13 c3 -5 1 -10 -4
-10 -6 0 -11 5 -11 10 0 6 2 10 4 10 3 0 8 -4 11 -10z" />
  </g>
  <g transform="translate(0.000000,64.000000) scale(0.100000,-0.100000)" fill="#e6e6e6" stroke="none">
    <path d="M530 549 c0 -5 -4 -8 -9 -4 -15 8 -88 -11 -119 -31 -15 -10 -31 -17
-36 -16 -14 4 -36 -20 -34 -37 l3 -16 -14 0 c-18 0 -27 -25 -9 -25 l13 -1 -24
-19 -24 -20 -13 11 c-8 6 -11 15 -9 20 3 4 -4 13 -17 20 l-22 12 -4 -12 c-5
-14 -59 -14 -64 0 l-4 12 -22 -12 c-12 -6 -21 -15 -19 -19 1 -4 -10 -23 -25
-42 -28 -37 -48 -97 -48 -143 0 -36 26 -87 45 -87 l14 0 3 42 3 43 85 0 85 0
3 -53 3 -52 23 0 c12 0 27 5 34 12 l12 12 0 61 0 62 -25 49 c-14 27 -25 50
-25 52 0 1 4 2 9 2 5 0 14 -14 21 -30 l13 -31 16 3 16 3 3 27 c2 15 9 31 16
37 l13 11 74 -28 74 -29 -3 -19 c-1 -10 -5 -34 -8 -52 l-7 -32 31 0 31 0 16
31 16 31 -3 79 c-2 43 1 79 5 79 5 0 7 6 4 13 -2 6 -10 11 -17 9 l-12 -3 6 16
c3 9 4 21 0 26 l-5 9 -20 -11 -21 -11 11 21 11 20 -19 11 c-25 13 -31 13 -31
-1z m20 -13 c0 -3 -5 -8 -12 -12 l-11 -7 7 11 c7 12 16 16 16 8z m-390 -150
c0 -3 -5 -8 -12 -12 l-11 -7 7 11 c7 12 16 16 16 8z m55 -6 c3 -5 4 -10 1 -10
-3 0 -8 5 -11 10 -3 6 -4 10 -1 10 3 0 8 -4 11 -10z m-115 -54 c0 -3 -5 -8
-12 -12 l-11 -7 7 11 c7 12 16 16 16 8z m55 -6 c3 -5 4 -10 1 -10 -3 0 -8 5
-11 10 -3 6 -4 10 -1 10 3 0 8 -4 11 -10z m65 6 c0 -3 -5 -8 -12 -12 l-11 -7
7 11 c7 12 16 16 16 8z m55 -6 c3 -5 4 -10 1 -10 -3 0 -8 5 -11 10 -3 6 -4 10
-1 10 3 0 8 -4 11 -10z" />
  </g>
  <g transform="translate(0.000000,64.000000) scale(0.100000,-0.100000)" fill="#000000" stroke="none">
    <path d="M419 540 c-37 -19 -119 -102 -119 -120 0 -21 21 -9 62 36 45 48 86
75 115 73 l18 -1 -12 -5 c-7 -2 -13 -11 -13 -19 0 -16 18 -18 39 -5 l15 9 -14
17 -14 17 35 -14 34 -14 23 -44 22 -44 0 -64 0 -63 -15 -28 c-13 -26 -33 -41
-55 -41 -4 0 -1 23 8 51 l16 51 -15 12 c-9 6 -48 22 -87 35 l-70 25 -16 -13
c-9 -8 -16 -22 -16 -32 l0 -19 15 0 c8 0 15 7 15 14 l0 15 58 -20 c31 -10 62
-21 69 -24 l12 -4 -16 -46 c-10 -25 -20 -45 -24 -45 -4 0 -26 7 -49 15 -53 19
-60 19 -60 1 l0 -14 47 -16 c26 -9 68 -16 93 -16 l47 0 26 20 c14 11 31 36 37
56 l12 36 -4 66 -4 67 -19 39 c-10 21 -32 47 -49 57 l-31 19 -40 0 c-22 -1
-56 -9 -76 -20z" />
    <path d="M530 498 c0 -7 5 -20 10 -28 l9 -15 11 11 c6 6 8 18 4 27 -7 20 -34
23 -34 5z" />
    <path d="M393 475 c-3 -9 -3 -18 0 -21 7 -8 47 15 47 26 0 16 -40 11 -47 -5z" />
    <path d="M450 471 c0 -21 13 -41 26 -41 15 0 17 10 8 34 -7 17 -34 22 -34 7z" />
    <path d="M511 441 c-7 -5 -10 -14 -7 -20 l7 -11 20 10 c10 6 19 15 19 20 0 12
-20 13 -39 1z" />
    <path d="M114 421 c-66 -40 -114 -133 -114 -220 l0 -47 16 -23 c9 -13 32 -29
50 -37 l33 -14 81 0 81 0 33 14 c18 8 41 24 50 37 l16 23 0 50 c0 27 -5 66
-12 87 -13 46 -68 113 -109 134 -39 20 -88 19 -125 -4z m135 -36 c16 -14 42
-50 56 -79 l26 -54 -3 -53 -3 -54 -35 -17 -35 -18 -72 0 -73 0 0 50 0 50 70 0
70 0 0 -40 0 -40 16 0 15 0 -3 53 -3 52 -95 0 -95 0 -3 -30 c-1 -16 -5 -41 -8
-54 l-5 -23 -19 17 -20 18 0 36 c0 55 31 131 71 173 l36 38 41 0 40 0 31 -25z" />
    <path d="M133 385 c-3 -9 -3 -18 0 -22 10 -10 37 6 37 22 0 20 -29 20 -37 0z" />
    <path d="M192 384 c2 -11 11 -20 22 -22 l18 -4 -4 18 c-2 11 -11 20 -22 22
l-18 4 4 -18z" />
    <path d="M73 325 c-3 -9 -3 -18 0 -22 10 -10 37 6 37 22 0 20 -29 20 -37 0z" />
    <path d="M132 324 c2 -11 11 -20 22 -22 l18 -4 -4 18 c-2 11 -11 20 -22 22
l-18 4 4 -18z" />
    <path d="M193 325 c-3 -9 -3 -18 0 -22 10 -10 37 6 37 22 0 20 -29 20 -37 0z" />
    <path d="M252 324 c2 -11 11 -20 22 -22 l18 -4 -4 18 c-2 11 -11 20 -22 22
l-18 4 4 -18z" />
    <path d="M564 424 c3 -9 6 -20 6 -25 0 -5 7 -9 15 -9 8 0 15 4 15 9 0 21 -13
41 -27 41 l-15 0 6 -16z" />
  </g>
  <g transform="translate(0.000000,64.000000) scale(0.100000,-0.100000)" fill="#84b17b" stroke="none">
    <path d="M380 369 c0 -6 -7 -17 -15 -26 -9 -8 -15 -23 -13 -32 3 -18 76 -57
125 -67 l33 -6 16 37 c8 20 13 42 11 49 -3 6 -36 21 -74 34 -38 12 -72 22 -76
22 -4 0 -7 -5 -7 -11z" />
    <path d="M100 171 l0 -48 31 -7 c17 -3 58 -6 90 -6 l59 0 0 15 c0 8 -4 15 -10
15 l-10 0 0 40 0 40 -80 0 -80 0 0 -49z" />
  </g>
  <g transform="translate(0.000000,64.000000) scale(0.100000,-0.100000)" fill="#cfcfcf" stroke="none">
    <path d="M445 550 l-6 -10 15 6 c18 7 21 14 7 14 -6 0 -13 -4 -16 -10z" />
    <path d="M485 530 c2 -4 21 -6 42 -5 42 2 64 -10 57 -30 -3 -7 -1 -15 3 -18
11 -7 11 33 1 49 l-8 11 -50 0 c-27 0 -48 -3 -45 -7z" />
    <path d="M385 520 c-3 -5 -2 -10 4 -10 5 0 13 5 16 10 3 6 2 10 -4 10 -5 0
-13 -4 -16 -10z" />
    <path d="M466 512 l-7 -12 16 -6 16 -7 12 13 12 13 -17 -6 -17 -6 -4 12 -3 11
-8 -12z" />
    <path d="M363 476 c-30 -31 -30 -46 0 -18 13 12 26 20 29 17 2 -3 5 2 5 10 0
21 -8 19 -34 -9z" />
    <path d="M470 459 c7 -11 14 -19 16 -16 7 7 -7 37 -17 37 l-10 0 11 -21z" />
    <path d="M540 470 c0 -5 5 -10 11 -10 5 0 7 5 4 10 -3 6 -8 10 -11 10 -2 0 -4
-4 -4 -10z" />
    <path d="M134 387 l1 -22 14 0 c22 0 24 23 3 34 l-19 10 1 -22z m26 -1 c0 -3
-5 -8 -12 -12 l-11 -7 7 11 c7 12 16 16 16 8z" />
    <path d="M204 396 l-19 -15 12 -11 c15 -16 32 -5 30 20 -1 11 -2 20 -2 20 -1
0 -10 -6 -21 -14z m11 -16 c3 -5 4 -10 1 -10 -3 0 -8 5 -11 10 -3 6 -4 10 -1
10 3 0 8 -4 11 -10z" />
    <path d="M297 388 l-6 -21 20 -28 c10 -15 19 -32 19 -38 0 -6 7 -11 15 -11
l15 0 0 21 c0 11 -4 18 -9 15 -12 -8 -35 50 -27 69 l5 15 -13 0 c-8 0 -16 -10
-19 -22z" />
    <path d="M57 373 c-4 -3 -7 -11 -7 -17 l0 -10 12 12 c6 6 9 14 7 17 -3 3 -9 2
-12 -2z" />
    <path d="M66 342 c-3 -5 1 -17 8 -27 l13 -18 11 7 c17 11 15 24 -7 36 l-20 10
-5 -8z m34 -16 c0 -3 -5 -8 -12 -12 l-11 -7 7 11 c7 12 16 16 16 8z" />
    <path d="M265 336 l-18 -13 7 -11 c11 -17 24 -15 36 7 l10 20 -8 5 c-5 3 -17
-1 -27 -8z m10 -16 c3 -5 4 -10 1 -10 -3 0 -8 5 -11 10 -3 6 -4 10 -1 10 3 0
8 -4 11 -10z" />
    <path d="M134 329 c-3 -6 -1 -16 5 -22 l11 -11 11 11 c12 12 4 33 -11 33 -5 0
-12 -5 -16 -11z m21 -9 c3 -5 4 -10 1 -10 -3 0 -8 5 -11 10 -3 6 -4 10 -1 10
3 0 8 -4 11 -10z" />
    <path d="M194 329 c-3 -6 -1 -16 5 -22 l11 -11 11 11 c12 12 4 33 -11 33 -5 0
-12 -5 -16 -11z m26 -3 c0 -3 -5 -8 -12 -12 l-11 -7 7 11 c7 12 16 16 16 8z" />
    <path d="M30 274 c-6 -14 -10 -47 -10 -73 l0 -48 23 -21 c13 -12 26 -22 30
-22 13 0 7 29 -14 65 l-21 35 7 45 c7 50 0 59 -15 19z" />
    <path d="M320 271 c0 -6 4 -13 10 -16 l10 -6 -6 15 c-7 18 -14 21 -14 7z" />
    <path d="M5 259 c-4 -6 -5 -12 -2 -15 2 -3 7 2 10 11 7 17 1 20 -8 4z" />
    <path d="M527 254 c-4 -4 -7 -13 -7 -21 l0 -13 25 0 c14 0 25 5 25 10 0 6 -6
10 -14 10 -8 0 -16 5 -18 11 -2 5 -7 7 -11 3z" />
    <path d="M607 253 c-4 -3 -7 -11 -7 -17 l0 -10 12 12 c6 6 9 14 7 17 -3 3 -9
2 -12 -2z" />
    <path d="M332 200 c0 -19 2 -27 5 -17 2 9 2 25 0 35 -3 9 -5 1 -5 -18z" />
    <path d="M280 120 c0 -5 4 -10 9 -10 6 0 13 5 16 10 l6 10 -15 0 c-9 0 -16 -4
-16 -10z" />
    <path d="M87 89 c7 -7 15 -10 18 -7 3 3 -2 9 -12 12 l-18 7 12 -12z" />
  </g>
  <g transform="translate(0.000000,64.000000) scale(0.100000,-0.100000)" fill="#68985c" stroke="none">
    <path d="M467 349 c7 -7 15 -10 18 -7 3 3 -2 9 -12 12 l-18 7 12 -12z" />
    <path d="M344 296 c-3 -8 -4 -21 -2 -27 4 -11 65 -32 134 -45 l31 -6 5 18 5
19 -26 1 c-21 1 -74 21 -133 52 -5 2 -11 -3 -14 -12z" />
    <path d="M525 299 c-4 -6 -5 -12 -2 -15 2 -3 7 2 10 11 7 17 1 20 -8 4z" />
    <path d="M100 119 l0 -20 87 3 86 3 4 10 3 10 -54 -3 c-29 -2 -70 1 -90 6
l-36 10 0 -19z" />
  </g>
  <g transform="translate(0.000000,64.000000) scale(0.100000,-0.100000)" fill="#080808" stroke="none">
    <path d="M498 553 c7 -3 16 -2 19 1 4 3 -2 6 -13 5 l-19 -1 13 -5z" />
    <path d="M542 543 l-13 -5 23 -16 c13 -9 28 -17 33 -17 6 0 9 -8 9 -18 l-2
-17 11 7 10 6 -6 -17 -7 -17 12 7 11 7 -5 -20 -5 -20 12 0 13 0 -12 31 c-20
55 -60 97 -84 89z m29 -20 l14 -18 -17 14 c-17 13 -22 21 -14 21 2 0 10 -8 17
-17z" />
    <path d="M395 522 c-14 -10 -17 -32 -5 -32 5 0 7 -6 4 -13 l-5 -14 14 0 c7 0
14 6 14 14 0 7 -4 13 -8 13 -4 0 -6 9 -4 20 4 22 4 23 -10 12z" />
    <path d="M470 505 c0 -17 9 -19 28 -6 l14 8 -17 7 c-23 9 -25 8 -25 -9z" />
    <path d="M467 457 l-5 -14 13 0 13 0 -5 14 c-3 7 -6 13 -8 13 -2 0 -5 -6 -8
-13z" />
    <path d="M324 441 c1 -9 -5 -15 -11 -13 -7 1 -13 -5 -13 -13 0 -21 26 -19 34
3 3 9 8 22 11 28 3 6 -1 11 -8 11 -8 0 -14 -7 -13 -16z" />
    <path d="M132 431 l-14 -8 14 -6 15 -5 0 14 c0 8 -1 14 -1 14 -1 0 -7 -4 -14
-9z" />
    <path d="M168 433 c6 -2 18 -2 25 0 6 3 1 5 -13 5 -14 0 -19 -2 -12 -5z" />
    <path d="M213 425 l0 -13 14 5 c7 3 13 6 13 8 0 2 -6 5 -13 8 l-14 5 0 -13z" />
    <path d="M56 365 c-14 -18 -26 -35 -26 -38 0 -2 6 -4 14 -4 7 0 13 7 12 16 0
9 4 15 10 14 7 -1 19 6 28 16 l17 19 -15 5 -15 6 -25 -34z m27 10 c-3 -9 -8
-14 -10 -11 -3 3 -2 9 2 15 9 16 15 13 8 -4z" />
    <path d="M262 392 l-12 -8 21 -20 c12 -10 24 -19 28 -19 3 0 6 -5 5 -11 -1 -6
5 -11 12 -11 8 0 14 3 14 7 0 3 -12 20 -27 38 l-28 32 -13 -8z m26 -27 c-3 -3
-9 2 -12 12 l-7 18 12 -12 c7 -7 10 -15 7 -18z" />
    <path d="M405 389 l8 -12 -21 5 -21 6 6 -14 5 -14 18 10 c24 13 43 13 35 0
l-6 -10 16 6 c19 8 10 19 -24 29 l-24 7 8 -13z" />
    <path d="M632 360 c0 -19 2 -27 5 -17 2 9 2 25 0 35 -3 9 -5 1 -5 -18z" />
    <path d="M360 355 c0 -8 4 -15 10 -15 5 0 7 7 4 15 -4 8 -8 15 -10 15 -2 0 -4
-7 -4 -15z" />
    <path d="M491 351 l-14 -9 21 -6 c11 -4 30 -9 42 -11 l21 -4 -4 12 -4 12 -27
-3 -28 -3 7 10 c8 13 4 14 -14 2z" />
    <path d="M516 275 c-3 -9 -2 -24 2 -32 l9 -15 7 17 c3 9 2 24 -2 32 l-9 15 -7
-17z m11 -22 c-4 -3 -7 0 -7 7 0 7 3 10 7 7 3 -4 3 -10 0 -14z" />
    <path d="M337 267 l-5 -14 14 0 c16 0 19 13 5 21 -5 3 -11 0 -14 -7z" />
    <path d="M376 245 c7 -17 13 -18 32 -6 l14 8 -17 7 c-26 10 -35 7 -29 -9z" />
    <path d="M597 243 c3 -7 6 -13 8 -13 2 0 5 6 8 13 l5 14 -13 0 -13 0 5 -14z" />
    <path d="M453 225 l0 -13 14 5 c7 3 13 6 13 8 0 2 -6 5 -13 8 l-14 5 0 -13z" />
    <path d="M2 200 c0 -14 2 -19 5 -12 2 6 2 18 0 25 -3 6 -5 1 -5 -13z" />
    <path d="M352 200 c0 -14 2 -19 5 -12 2 6 2 18 0 25 -3 6 -5 1 -5 -13z" />
    <path d="M518 203 c7 -3 16 -2 19 1 4 3 -2 6 -13 5 l-19 -1 13 -5z" />
    <path d="M316 141 c-3 -5 1 -11 9 -14 l14 -6 -6 15 c-6 16 -10 17 -17 5z" />
    <path d="M263 95 l0 -13 14 5 c7 3 13 6 13 8 0 2 -6 5 -13 8 l-14 5 0 -13z" />
    <path d="M73 93 c4 -3 10 -3 14 0 3 4 0 7 -7 7 -7 0 -10 -3 -7 -7z" />
    <path d="M193 83 c4 -3 10 -3 14 0 3 4 0 7 -7 7 -7 0 -10 -3 -7 -7z" />
  </g>
  <g transform="translate(0.000000,64.000000) scale(0.100000,-0.100000)" fill="#2a2b29" stroke="none">
    <path d="M430 546 c0 -2 7 -7 16 -10 l15 -6 -6 10 c-6 10 -25 14 -25 6z" />
    <path d="M409 538 c0 -2 -2 -11 -4 -20 l-3 -17 16 7 16 6 -12 4 c-7 2 -10 8
-6 13 3 5 3 9 0 9 -3 0 -6 -1 -7 -2z" />
    <path d="M576 498 c3 -5 10 -6 15 -3 13 9 11 12 -6 12 -8 0 -12 -4 -9 -9z" />
    <path d="M346 481 l-18 -19 18 2 c9 2 18 10 20 19 1 9 1 17 0 17 -2 0 -11 -9
-20 -19z" />
    <path d="M519 448 c0 -2 -2 -11 -4 -20 l-3 -18 19 10 c23 13 25 30 4 30 -8 0
-15 -1 -16 -2z m18 -15 c-4 -3 -10 -3 -14 0 -3 4 0 7 7 7 7 0 10 -3 7 -7z" />
    <path d="M573 427 c0 -8 6 -14 13 -14 l12 0 -5 14 c-3 7 -8 13 -12 13 -4 0 -8
-6 -8 -13z" />
    <path d="M140 385 c-7 -9 -10 -18 -7 -22 8 -7 37 15 37 28 0 14 -16 11 -30 -6z
m20 1 c0 -3 -5 -8 -12 -12 l-11 -7 7 11 c7 12 16 16 16 8z" />
    <path d="M196 392 c-3 -6 1 -15 8 -21 l14 -12 6 9 c3 6 -1 15 -8 21 l-14 12
-6 -9z m19 -12 c3 -5 4 -10 1 -10 -3 0 -8 5 -11 10 -3 6 -4 10 -1 10 3 0 8 -4
11 -10z" />
    <path d="M390 376 c0 -2 7 -7 16 -10 l15 -6 -6 10 c-6 10 -25 14 -25 6z" />
    <path d="M497 359 c7 -7 15 -10 18 -7 3 3 -2 9 -12 12 l-18 7 12 -12z" />
    <path d="M46 352 c-3 -5 1 -9 9 -9 8 0 12 4 9 9 -3 4 -7 8 -9 8 -2 0 -6 -4 -9
-8z" />
    <path d="M280 349 c0 -15 18 -19 23 -6 l5 14 -14 0 c-8 0 -14 -4 -14 -8z" />
    <path d="M80 325 c-7 -9 -10 -18 -7 -22 8 -7 37 15 37 28 0 14 -16 11 -30 -6z
m20 1 c0 -3 -5 -8 -12 -12 l-11 -7 7 11 c7 12 16 16 16 8z" />
    <path d="M136 332 c-3 -6 1 -15 8 -21 l14 -12 6 9 c3 6 -1 15 -8 21 l-14 12
-6 -9z m19 -12 c3 -5 4 -10 1 -10 -3 0 -8 5 -11 10 -3 6 -4 10 -1 10 3 0 8 -4
11 -10z" />
    <path d="M200 325 c-7 -9 -10 -18 -7 -22 8 -7 37 15 37 28 0 14 -16 11 -30 -6z
m20 1 c0 -3 -5 -8 -12 -12 l-11 -7 7 11 c7 12 16 16 16 8z" />
    <path d="M250 331 c0 -13 26 -32 33 -24 8 7 -11 33 -24 33 -5 0 -9 -4 -9 -9z
m25 -11 c3 -5 4 -10 1 -10 -3 0 -8 5 -11 10 -3 6 -4 10 -1 10 3 0 8 -4 11 -10z" />
    <path d="M607 297 l-5 -14 13 0 13 0 -5 14 c-6 16 -10 16 -16 0z" />
    <path d="M27 283 c3 -7 8 -13 12 -13 4 0 8 6 8 13 0 8 -6 14 -13 14 l-12 0 5
-14z" />
    <path d="M318 282 l6 -16 4 13 4 12 15 -18 14 -18 -9 19 c-5 11 -17 21 -25 22
l-16 2 7 -16z" />
    <path d="M535 269 c-4 -6 -5 -12 -2 -15 2 -3 7 2 10 11 7 17 1 20 -8 4z" />
    <path d="M510 260 c0 -7 3 -10 7 -7 3 4 3 10 0 14 -4 3 -7 0 -7 -7z" />
    <path d="M1 224 l1 -19 5 13 c3 7 2 16 -1 19 -3 4 -6 -2 -5 -13z" />
    <path d="M351 224 l1 -19 5 13 c3 7 2 16 -1 19 -3 4 -6 -2 -5 -13z" />
    <path d="M380 236 c0 -2 7 -7 16 -10 l15 -6 -6 10 c-6 10 -25 14 -25 6z" />
    <path d="M563 215 l0 -13 14 5 c7 3 13 6 13 8 0 2 -6 5 -13 8 l-14 5 0 -13z" />
    <path d="M7 143 c3 -7 6 -13 8 -13 2 0 5 6 8 13 l5 14 -13 0 -13 0 5 -14z" />
    <path d="M337 143 c3 -7 6 -13 8 -13 2 0 5 6 8 13 l5 14 -13 0 -13 0 5 -14z" />
    <path d="M52 111 l-14 -8 14 -6 15 -5 0 14 c0 8 -1 14 -1 14 -1 0 -7 -4 -14
-9z" />
    <path d="M293 105 l0 -13 14 5 c7 3 13 6 13 8 0 2 -6 5 -13 8 l-14 5 0 -13z" />
    <path d="M248 103 c7 -3 16 -2 19 1 4 3 -2 6 -13 5 l-19 -1 13 -5z" />
    <path d="M128 83 c7 -3 16 -2 19 1 4 3 -2 6 -13 5 l-19 -1 13 -5z" />
  </g>
  <g transform="translate(0.000000,64.000000) scale(0.100000,-0.100000)" fill="#353635" stroke="none">
    <path d="M423 525 l0 -13 14 5 c7 3 13 6 13 8 0 2 -6 5 -13 8 l-14 5 0 -13z" />
    <path d="M365 500 c-3 -5 -3 -10 1 -10 4 0 -1 -9 -11 -20 l-19 -21 17 7 c10 3
22 15 27 25 l10 18 -9 6 c-5 3 -12 1 -16 -5z" />
    <path d="M530 485 c0 -2 6 -8 13 -14 l14 -11 0 13 c0 8 -6 14 -14 14 -7 0 -13
-1 -13 -2z" />
    <path d="M390 465 c0 -8 4 -15 10 -15 5 0 7 7 4 15 -4 8 -8 15 -10 15 -2 0 -4
-7 -4 -15z" />
    <path d="M536 433 l-7 -18 12 12 c7 7 10 15 7 18 -3 3 -9 -2 -12 -12z" />
    <path d="M317 423 c3 -7 6 -13 8 -13 2 0 5 6 8 13 l5 14 -13 0 -13 0 5 -14z" />
    <path d="M606 427 c3 -10 9 -15 12 -12 3 3 0 11 -7 18 l-12 12 7 -18z" />
    <path d="M113 405 l0 -13 14 5 c7 3 13 6 13 8 0 2 -6 5 -13 8 l-14 5 0 -13z" />
    <path d="M232 411 l-14 -8 14 -6 15 -5 0 14 c0 8 -1 14 -1 14 -1 0 -7 -4 -14
-9z" />
    <path d="M570 398 c0 -4 7 -8 15 -8 8 0 15 4 15 8 0 5 -7 9 -15 9 -8 0 -15 -4
-15 -9z" />
    <path d="M631 394 l1 -19 5 13 c3 7 2 16 -1 19 -3 4 -6 -2 -5 -13z" />
    <path d="M160 390 c0 -7 3 -10 7 -7 3 4 3 10 0 14 -4 3 -7 0 -7 -7z" />
    <path d="M190 389 c0 -5 5 -7 10 -4 6 3 10 8 10 11 0 2 -4 4 -10 4 -5 0 -10
-5 -10 -11z" />
    <path d="M215 370 c-3 -5 -1 -10 4 -10 6 0 11 5 11 10 0 6 -2 10 -4 10 -3 0
-8 -4 -11 -10z" />
    <path d="M527 349 c7 -7 15 -10 18 -7 3 3 -2 9 -12 12 l-18 7 12 -12z" />
    <path d="M100 330 c0 -7 3 -10 7 -7 3 4 3 10 0 14 -4 3 -7 0 -7 -7z" />
    <path d="M130 329 c0 -5 5 -7 10 -4 6 3 10 8 10 11 0 2 -4 4 -10 4 -5 0 -10
-5 -10 -11z" />
    <path d="M220 330 c0 -7 3 -10 7 -7 3 4 3 10 0 14 -4 3 -7 0 -7 -7z" />
    <path d="M503 333 c4 -3 10 -3 14 0 3 4 0 7 -7 7 -7 0 -10 -3 -7 -7z" />
    <path d="M631 324 l1 -19 5 13 c3 7 2 16 -1 19 -3 4 -6 -2 -5 -13z" />
    <path d="M530 320 c0 -7 3 -10 7 -7 3 4 3 10 0 14 -4 3 -7 0 -7 -7z" />
    <path d="M155 310 c-3 -5 -1 -10 4 -10 6 0 11 5 11 10 0 6 -2 10 -4 10 -3 0
-8 -4 -11 -10z" />
    <path d="M275 310 c-3 -5 -1 -10 4 -10 6 0 11 5 11 10 0 6 -2 10 -4 10 -3 0
-8 -4 -11 -10z" />
    <path d="M538 203 c7 -3 16 -2 19 1 4 3 -2 6 -13 5 l-19 -1 13 -5z" />
    <path d="M1 174 l1 -19 5 13 c3 7 2 16 -1 19 -3 4 -6 -2 -5 -13z" />
    <path d="M351 174 l1 -19 5 13 c3 7 2 16 -1 19 -3 4 -6 -2 -5 -13z" />
    <path d="M265 130 c3 -5 11 -10 16 -10 6 0 7 5 4 10 -3 6 -11 10 -16 10 -6 0
-7 -4 -4 -10z" />
    <path d="M103 103 c4 -3 10 -3 14 0 3 4 0 7 -7 7 -7 0 -10 -3 -7 -7z" />
    <path d="M218 83 c7 -3 16 -2 19 1 4 3 -2 6 -13 5 l-19 -1 13 -5z" />
  </g>
  <g transform="translate(0.000000,64.000000) scale(0.100000,-0.100000)" fill="#dcdbdb" stroke="none">
    <path d="M505 510 c-3 -5 -1 -10 4 -10 6 0 11 5 11 10 0 6 -2 10 -4 10 -3 0
-8 -4 -11 -10z" />
    <path d="M553 512 l-13 -8 14 -19 14 -20 -1 28 c-1 15 -2 27 -2 27 0 0 -6 -4
-12 -8z" />
    <path d="M393 485 l0 -13 14 5 c7 3 13 6 13 8 0 2 -6 5 -13 8 l-14 5 0 -13z" />
    <path d="M606 487 c3 -10 9 -15 12 -12 3 3 0 11 -7 18 l-12 12 7 -18z" />
    <path d="M360 469 c0 -5 5 -7 10 -4 6 3 10 8 10 11 0 2 -4 4 -10 4 -5 0 -10
-5 -10 -11z" />
    <path d="M591 475 c0 -5 4 -19 9 -30 l9 -20 0 15 c0 8 -4 22 -9 30 -5 8 -9 11
-9 5z" />
    <path d="M393 453 c4 -3 10 -3 14 0 3 4 0 7 -7 7 -7 0 -10 -3 -7 -7z" />
    <path d="M560 429 c0 -5 5 -7 10 -4 6 3 10 8 10 11 0 2 -4 4 -10 4 -5 0 -10
-5 -10 -11z" />
    <path d="M168 413 c6 -2 18 -2 25 0 6 3 1 5 -13 5 -14 0 -19 -2 -12 -5z" />
    <path d="M315 410 c-3 -5 -1 -10 4 -10 6 0 11 5 11 10 0 6 -2 10 -4 10 -3 0
-8 -4 -11 -10z" />
    <path d="M570 400 c0 -7 3 -10 7 -7 3 4 3 10 0 14 -4 3 -7 0 -7 -7z" />
    <path d="M400 397 c0 -3 15 -10 32 -16 18 -6 28 -7 23 -2 -12 10 -55 25 -55
18z" />
    <path d="M612 360 c0 -19 2 -27 5 -17 2 9 2 25 0 35 -3 9 -5 1 -5 -18z" />
    <path d="M67 353 c-4 -3 -7 -11 -7 -17 l0 -10 12 12 c6 6 9 14 7 17 -3 3 -9 2
-12 -2z" />
    <path d="M280 351 c0 -6 4 -13 10 -16 l10 -6 -6 15 c-7 18 -14 21 -14 7z" />
    <path d="M310 353 c0 -5 4 -14 9 -22 l9 -13 6 11 7 11 -11 0 c-6 0 -8 5 -5 10
3 6 1 10 -4 10 -6 0 -11 -3 -11 -7z" />
    <path d="M30 329 c-7 -11 -10 -23 -7 -25 2 -2 9 7 15 21 14 30 7 33 -8 4z" />
    <path d="M355 329 c-4 -6 -5 -12 -2 -15 2 -3 7 2 10 11 7 17 1 20 -8 4z" />
    <path d="M47 313 c-4 -3 -7 -11 -7 -17 l0 -10 12 12 c6 6 9 14 7 17 -3 3 -9 2
-12 -2z" />
    <path d="M30 270 c0 -5 5 -10 10 -10 6 0 10 5 10 10 0 6 -4 10 -10 10 -5 0
-10 -4 -10 -10z" />
    <path d="M597 273 c-4 -3 -7 -11 -7 -17 l0 -10 12 12 c6 6 9 14 7 17 -3 3 -9
2 -12 -2z" />
    <path d="M457 209 c7 -7 15 -10 18 -7 3 3 -2 9 -12 12 l-18 7 12 -12z" />
    <path d="M330 200 c0 -7 3 -10 7 -7 3 4 3 10 0 14 -4 3 -7 0 -7 -7z" />
    <path d="M266 125 c4 -8 12 -15 20 -15 20 0 17 7 -6 20 l-20 10 6 -15z" />
  </g>
  <g transform="translate(0.000000,64.000000) scale(0.100000,-0.100000)" fill="#b6b7b6" stroke="none">
    <path d="M473 513 c4 -3 10 -3 14 0 3 4 0 7 -7 7 -7 0 -10 -3 -7 -7z" />
    <path d="M553 475 c0 -8 4 -12 9 -9 5 3 6 10 3 15 -9 13 -12 11 -12 -6z" />
    <path d="M315 449 c-4 -6 -5 -12 -2 -15 2 -3 7 2 10 11 7 17 1 20 -8 4z" />
    <path d="M460 440 c0 -5 5 -10 11 -10 5 0 7 5 4 10 -3 6 -8 10 -11 10 -2 0 -4
-4 -4 -10z" />
    <path d="M573 433 c4 -3 10 -3 14 0 3 4 0 7 -7 7 -7 0 -10 -3 -7 -7z" />
    <path d="M630 420 c0 -7 3 -10 7 -7 3 4 3 10 0 14 -4 3 -7 0 -7 -7z" />
    <path d="M95 410 l-6 -10 15 6 c18 7 21 14 7 14 -6 0 -13 -4 -16 -10z" />
    <path d="M215 410 c3 -5 8 -10 11 -10 3 0 2 5 -1 10 -3 6 -8 10 -11 10 -3 0
-2 -4 1 -10z" />
    <path d="M240 416 c0 -2 7 -7 16 -10 l15 -6 -6 10 c-6 10 -25 14 -25 6z" />
    <path d="M310 410 l-15 -10 12 0 c6 0 15 5 18 10 8 12 4 12 -15 0z" />
    <path d="M611 394 l1 -19 5 13 c3 7 2 16 -1 19 -3 4 -6 -2 -5 -13z" />
    <path d="M483 363 c4 -3 10 -3 14 0 3 4 0 7 -7 7 -7 0 -10 -3 -7 -7z" />
    <path d="M321 330 c14 -31 19 -36 19 -24 0 6 -7 19 -16 30 l-15 19 12 -25z" />
    <path d="M545 340 c3 -5 8 -10 11 -10 3 0 2 5 -1 10 -3 6 -8 10 -11 10 -3 0
-2 -4 1 -10z" />
    <path d="M611 324 l1 -19 5 13 c3 7 2 16 -1 19 -3 4 -6 -2 -5 -13z" />
    <path d="M46 313 l-7 -18 12 12 c7 7 10 15 7 18 -3 3 -9 -2 -12 -12z" />
    <path d="M350 310 c0 -5 5 -10 11 -10 5 0 7 5 4 10 -3 6 -8 10 -11 10 -2 0 -4
-4 -4 -10z" />
    <path d="M310 300 c0 -7 3 -10 7 -7 3 4 3 10 0 14 -4 3 -7 0 -7 -7z" />
    <path d="M26 263 l-7 -18 12 12 c7 7 10 15 7 18 -3 3 -9 -2 -12 -12z" />
    <path d="M330 230 c0 -7 3 -10 7 -7 3 4 3 10 0 14 -4 3 -7 0 -7 -7z" />
    <path d="M520 230 c0 -6 7 -10 15 -10 8 0 15 2 15 4 0 2 -7 6 -15 10 -8 3 -15
1 -15 -4z" />
    <path d="M584 218 l-7 -11 11 7 c7 4 12 9 12 12 0 8 -9 4 -16 -8z" />
    <path d="M473 203 c4 -3 10 -3 14 0 3 4 0 7 -7 7 -7 0 -10 -3 -7 -7z" />
    <path d="M553 203 c4 -3 10 -3 14 0 3 4 0 7 -7 7 -7 0 -10 -3 -7 -7z" />
    <path d="M21 184 l1 -19 5 13 c3 7 2 16 -1 19 -3 4 -6 -2 -5 -13z" />
    <path d="M0 160 c0 -7 3 -10 7 -7 3 4 3 10 0 14 -4 3 -7 0 -7 -7z" />
    <path d="M350 160 c0 -7 3 -10 7 -7 3 4 3 10 0 14 -4 3 -7 0 -7 -7z" />
    <path d="M25 120 c10 -11 20 -20 23 -20 3 0 -3 9 -13 20 -10 11 -20 20 -23 20
-3 0 3 -9 13 -20z" />
    <path d="M324 118 l-19 -23 23 19 c21 18 27 26 19 26 -2 0 -12 -10 -23 -22z" />
    <path d="M265 110 l-6 -10 15 6 c18 7 21 14 7 14 -6 0 -13 -4 -16 -10z" />
    <path d="M63 93 c4 -3 10 -3 14 0 3 4 0 7 -7 7 -7 0 -10 -3 -7 -7z" />
    <path d="M283 93 c4 -3 10 -3 14 0 3 4 0 7 -7 7 -7 0 -10 -3 -7 -7z" />
  </g>
  <g transform="translate(0.000000,64.000000) scale(0.100000,-0.100000)" fill="#6e6e6e" stroke="none">
    <path d="M595 500 c3 -5 8 -10 11 -10 3 0 2 5 -1 10 -3 6 -8 10 -11 10 -3 0
-2 -4 1 -10z" />
    <path d="M473 493 c4 -3 10 -3 14 0 3 4 0 7 -7 7 -7 0 -10 -3 -7 -7z" />
    <path d="M423 475 c0 -8 4 -12 9 -9 4 3 8 9 8 15 0 5 -4 9 -8 9 -5 0 -9 -7 -9
-15z" />
    <path d="M451 463 l1 -18 5 13 c2 6 10 9 15 6 l11 -7 -7 11 c-11 18 -26 14
-25 -5z" />
    <path d="M475 440 c-3 -5 -1 -10 4 -10 6 0 11 5 11 10 0 6 -2 10 -4 10 -3 0
-8 -4 -11 -10z" />
    <path d="M304 428 l-7 -11 11 7 c12 7 16 16 8 16 -3 0 -8 -5 -12 -12z" />
    <path d="M500 431 c0 -6 4 -12 8 -15 5 -3 9 1 9 9 0 8 -4 15 -9 15 -4 0 -8 -4
-8 -9z" />
    <path d="M114 418 l-7 -11 11 7 c12 7 16 16 8 16 -3 0 -8 -5 -12 -12z" />
    <path d="M235 420 c3 -5 8 -10 11 -10 3 0 2 5 -1 10 -3 6 -8 10 -11 10 -3 0
-2 -4 1 -10z" />
    <path d="M275 390 c10 -11 20 -20 23 -20 3 0 -3 9 -13 20 -10 11 -20 20 -23
20 -3 0 3 -9 13 -20z" />
    <path d="M590 400 c0 -7 3 -10 7 -7 3 4 3 10 0 14 -4 3 -7 0 -7 -7z" />
    <path d="M69 383 l-14 -18 18 14 c9 7 17 15 17 17 0 8 -8 3 -21 -13z" />
    <path d="M388 393 c7 -3 16 -2 19 1 4 3 -2 6 -13 5 l-19 -1 13 -5z" />
    <path d="M305 350 c3 -5 8 -10 11 -10 2 0 4 5 4 10 0 6 -5 10 -11 10 -5 0 -7
-4 -4 -10z" />
    <path d="M546 309 c-8 -42 0 -50 9 -9 4 17 5 34 2 36 -2 3 -7 -10 -11 -27z" />
    <path d="M601 274 l1 -19 5 13 c3 7 2 16 -1 19 -3 4 -6 -2 -5 -13z" />
    <path d="M85 229 c-11 -16 -1 -19 13 -3 l13 14 -10 0 c-5 0 -13 -5 -16 -11z" />
    <path d="M262 226 c7 -8 15 -12 17 -11 5 6 -10 25 -20 25 l-10 0 13 -14z" />
    <path d="M438 213 c7 -3 16 -2 19 1 4 3 -2 6 -13 5 l-19 -1 13 -5z" />
    <path d="M331 164 l1 -19 5 13 c3 7 2 16 -1 19 -3 4 -6 -2 -5 -13z" />
    <path d="M40 135 c13 -14 26 -25 28 -25 3 0 -5 11 -18 25 -13 14 -26 25 -28
25 -3 0 5 -11 18 -25z" />
    <path d="M296 125 c-11 -8 -15 -15 -9 -15 6 0 16 7 23 15 16 19 11 19 -14 0z" />
    <path d="M25 120 c3 -5 8 -10 11 -10 3 0 2 5 -1 10 -3 6 -8 10 -11 10 -3 0 -2
-4 1 -10z" />
    <path d="M324 118 l-7 -11 11 7 c12 7 16 16 8 16 -3 0 -8 -5 -12 -12z" />
  </g>
  <g transform="translate(0.000000,64.000000) scale(0.100000,-0.100000)" fill="#141514" stroke="none">
    <path d="M483 553 c4 -3 10 -3 14 0 3 4 0 7 -7 7 -7 0 -10 -3 -7 -7z" />
    <path d="M445 530 l-6 -10 15 6 c18 7 21 14 7 14 -6 0 -13 -4 -16 -10z" />
    <path d="M550 490 c0 -7 3 -10 7 -7 3 4 3 10 0 14 -4 3 -7 0 -7 -7z" />
    <path d="M510 440 l-15 -10 12 0 c6 0 15 5 18 10 8 12 4 12 -15 0z" />
    <path d="M465 370 c3 -6 1 -10 -6 -10 -7 0 -10 -3 -6 -6 3 -3 13 -2 22 4 l17
9 -16 6 -17 7 6 -10z" />
    <path d="M531 313 c-1 -17 16 -25 25 -12 l7 12 -11 -7 c-5 -3 -13 0 -15 6 l-5
13 -1 -12z" />
    <path d="M15 289 c-4 -12 -3 -25 2 -29 l8 -9 1 30 c1 16 0 29 -2 29 -1 0 -6
-9 -9 -21z" />
    <path d="M330 301 c0 -5 5 -13 10 -16 6 -3 10 -2 10 4 0 5 -4 13 -10 16 -5 3
-10 2 -10 -4z" />
    <path d="M625 289 c-4 -6 -5 -12 -2 -15 2 -3 7 2 10 11 7 17 1 20 -8 4z" />
    <path d="M596 262 c-3 -5 1 -9 9 -9 8 0 12 4 9 9 -3 4 -7 8 -9 8 -2 0 -6 -4
-9 -8z" />
    <path d="M425 241 c3 -5 0 -11 -7 -13 l-12 -4 18 -7 17 -7 -6 9 c-3 5 0 11 7
13 l12 4 -18 7 -17 7 6 -9z" />
    <path d="M495 230 c-3 -5 -1 -10 4 -10 6 0 11 5 11 10 0 6 -2 10 -4 10 -3 0
-8 -4 -11 -10z" />
    <path d="M555 230 c-3 -5 -2 -10 4 -10 5 0 13 5 16 10 3 6 2 10 -4 10 -5 0
-13 -4 -16 -10z" />
    <path d="M503 203 c4 -3 10 -3 14 0 3 4 0 7 -7 7 -7 0 -10 -3 -7 -7z" />
    <path d="M148 83 c7 -3 16 -2 19 1 4 3 -2 6 -13 5 l-19 -1 13 -5z" />
    <path d="M203 83 c4 -3 10 -3 14 0 3 4 0 7 -7 7 -7 0 -10 -3 -7 -7z" />
  </g>
  <g transform="translate(0.000000,64.000000) scale(0.100000,-0.100000)" fill="#a5a8a4" stroke="none">
    <path d="M523 533 c4 -3 10 -3 14 0 3 4 0 7 -7 7 -7 0 -10 -3 -7 -7z" />
    <path d="M503 515 c0 -8 4 -12 9 -9 5 3 6 10 3 15 -9 13 -12 11 -12 -6z" />
    <path d="M530 490 c0 -7 3 -10 7 -7 3 4 3 10 0 14 -4 3 -7 0 -7 -7z" />
    <path d="M413 463 c4 -3 10 -3 14 0 3 4 0 7 -7 7 -7 0 -10 -3 -7 -7z" />
    <path d="M600 450 c0 -7 3 -10 7 -7 3 4 3 10 0 14 -4 3 -7 0 -7 -7z" />
    <path d="M565 431 c-3 -5 -2 -12 3 -15 5 -3 9 1 9 9 0 17 -3 19 -12 6z" />
    <path d="M590 410 c0 -7 3 -10 7 -7 3 4 3 10 0 14 -4 3 -7 0 -7 -7z" />
    <path d="M94 378 l-19 -23 23 19 c21 18 27 26 19 26 -2 0 -12 -10 -23 -22z" />
    <path d="M255 380 c10 -11 20 -20 23 -20 3 0 -3 9 -13 20 -10 11 -20 20 -23
20 -3 0 3 -9 13 -20z" />
    <path d="M365 379 c-4 -6 -5 -12 -2 -15 2 -3 7 2 10 11 7 17 1 20 -8 4z" />
    <path d="M296 365 c4 -8 11 -15 16 -15 l10 0 -12 15 c-7 8 -14 15 -16 15 -2 0
-1 -7 2 -15z" />
    <path d="M453 373 c4 -3 10 -3 14 0 3 4 0 7 -7 7 -7 0 -10 -3 -7 -7z" />
    <path d="M56 333 l-7 -18 12 12 c7 7 10 15 7 18 -3 3 -9 -2 -12 -12z" />
    <path d="M360 339 c0 -5 5 -7 10 -4 6 3 10 8 10 11 0 2 -4 4 -10 4 -5 0 -10
-5 -10 -11z" />
    <path d="M295 330 c3 -5 8 -10 11 -10 3 0 2 5 -1 10 -3 6 -8 10 -11 10 -3 0
-2 -4 1 -10z" />
    <path d="M40 300 c0 -7 3 -10 7 -7 3 4 3 10 0 14 -4 3 -7 0 -7 -7z" />
    <path d="M337 293 c3 -7 6 -13 8 -13 2 0 5 6 8 13 l5 14 -13 0 -13 0 5 -14z" />
    <path d="M10 280 c0 -7 3 -10 7 -7 3 4 3 10 0 14 -4 3 -7 0 -7 -7z" />
    <path d="M350 255 l0 -14 15 5 c8 4 15 7 15 9 0 2 -7 5 -15 9 l-15 5 0 -14z" />
    <path d="M21 224 l1 -19 5 13 c3 7 2 16 -1 19 -3 4 -6 -2 -5 -13z" />
    <path d="M543 223 c4 -3 10 -3 14 0 3 4 0 7 -7 7 -7 0 -10 -3 -7 -7z" />
    <path d="M314 138 l-7 -11 11 7 c7 4 12 9 12 12 0 8 -9 4 -16 -8z" />
    <path d="M103 83 c4 -3 10 -3 14 0 3 4 0 7 -7 7 -7 0 -10 -3 -7 -7z" />
  </g>
  <g transform="translate(0.000000,64.000000) scale(0.100000,-0.100000)" fill="#1e1f1e" stroke="none">
    <path d="M473 553 c4 -3 10 -3 14 0 3 4 0 7 -7 7 -7 0 -10 -3 -7 -7z" />
    <path d="M513 553 c4 -3 10 -3 14 0 3 4 0 7 -7 7 -7 0 -10 -3 -7 -7z" />
    <path d="M420 540 l-15 -10 12 0 c6 0 15 5 18 10 8 12 4 12 -15 0z" />
    <path d="M553 535 c0 -8 4 -12 9 -9 5 3 6 10 3 15 -9 13 -12 11 -12 -6z" />
    <path d="M377 499 c7 -7 15 -10 18 -7 3 3 -2 9 -12 12 l-18 7 12 -12z" />
    <path d="M530 502 c0 -5 7 -9 15 -9 8 0 12 4 9 9 -3 4 -9 8 -15 8 -5 0 -9 -4
-9 -8z" />
    <path d="M418 483 c7 -3 16 -2 19 1 4 3 -2 6 -13 5 l-19 -1 13 -5z" />
    <path d="M336 457 c3 -10 9 -15 12 -12 3 3 0 11 -7 18 l-12 12 7 -18z" />
    <path d="M467 439 c7 -7 15 -10 18 -7 3 3 -2 9 -12 12 l-18 7 12 -12z" />
    <path d="M153 433 c4 -3 10 -3 14 0 3 4 0 7 -7 7 -7 0 -10 -3 -7 -7z" />
    <path d="M193 433 c4 -3 10 -3 14 0 3 4 0 7 -7 7 -7 0 -10 -3 -7 -7z" />
    <path d="M570 410 c0 -7 3 -10 7 -7 3 4 3 10 0 14 -4 3 -7 0 -7 -7z" />
    <path d="M420 366 c0 -2 7 -7 16 -10 l15 -6 -6 10 c-6 10 -25 14 -25 6z" />
    <path d="M64 348 l-7 -11 11 7 c12 7 16 16 8 16 -3 0 -8 -5 -12 -12z" />
    <path d="M303 353 c4 -3 10 -3 14 0 3 4 0 7 -7 7 -7 0 -10 -3 -7 -7z" />
    <path d="M20 250 c0 -7 3 -10 7 -7 3 4 3 10 0 14 -4 3 -7 0 -7 -7z" />
    <path d="M330 250 c0 -7 3 -10 7 -7 3 4 3 10 0 14 -4 3 -7 0 -7 -7z" />
    <path d="M473 223 c4 -3 10 -3 14 0 3 4 0 7 -7 7 -7 0 -10 -3 -7 -7z" />
    <path d="M493 203 c4 -3 10 -3 14 0 3 4 0 7 -7 7 -7 0 -10 -3 -7 -7z" />
    <path d="M20 160 c0 -7 3 -10 7 -7 3 4 3 10 0 14 -4 3 -7 0 -7 -7z" />
    <path d="M324 148 l-7 -11 11 7 c7 4 12 9 12 12 0 8 -9 4 -16 -8z" />
    <path d="M63 113 c4 -3 10 -3 14 0 3 4 0 7 -7 7 -7 0 -10 -3 -7 -7z" />
  </g>
  <g transform="translate(0.000000,64.000000) scale(0.100000,-0.100000)" fill="#c4c4c4" stroke="none">
    <path d="M478 533 c6 -2 10 -9 7 -14 l-6 -9 16 7 17 6 -14 8 c-7 5 -17 8 -23
8 -5 0 -4 -3 3 -6z" />
    <path d="M394 498 l-7 -11 11 7 c7 4 12 9 12 12 0 8 -9 4 -16 -8z" />
    <path d="M404 458 l-7 -11 11 7 c7 4 12 9 12 12 0 8 -9 4 -16 -8z" />
    <path d="M455 450 c3 -5 8 -10 11 -10 3 0 2 5 -1 10 -3 6 -8 10 -11 10 -3 0
-2 -4 1 -10z" />
    <path d="M334 438 l-7 -11 11 7 c7 4 12 9 12 12 0 8 -9 4 -16 -8z" />
    <path d="M136 411 l-6 -9 20 5 c23 6 26 13 6 13 -8 0 -17 -4 -20 -9z" />
    <path d="M193 413 c4 -3 10 -3 14 0 3 4 0 7 -7 7 -7 0 -10 -3 -7 -7z" />
    <path d="M513 353 c4 -3 10 -3 14 0 3 4 0 7 -7 7 -7 0 -10 -3 -7 -7z" />
    <path d="M300 321 c0 -6 4 -13 10 -16 l10 -6 -6 15 c-7 18 -14 21 -14 7z" />
    <path d="M630 300 c0 -7 3 -10 7 -7 3 4 3 10 0 14 -4 3 -7 0 -7 -7z" />
    <path d="M616 263 l-7 -18 12 12 c7 7 10 15 7 18 -3 3 -9 -2 -12 -12z" />
    <path d="M351 254 l1 -19 5 13 c3 7 2 16 -1 19 -3 4 -6 -2 -5 -13z" />
    <path d="M555 230 l-6 -10 15 6 c18 7 21 14 7 14 -6 0 -13 -4 -16 -10z" />
    <path d="M403 223 c4 -3 10 -3 14 0 3 4 0 7 -7 7 -7 0 -10 -3 -7 -7z" />
    <path d="M253 83 c4 -3 10 -3 14 0 3 4 0 7 -7 7 -7 0 -10 -3 -7 -7z" />
  </g>
  <g transform="translate(0.000000,64.000000) scale(0.100000,-0.100000)" fill="#626262" stroke="none">
    <path d="M550 526 c0 -2 8 -10 18 -17 l17 -14 -14 18 c-13 16 -21 21 -21 13z" />
    <path d="M324 458 l-7 -11 11 7 c7 4 12 9 12 12 0 8 -9 4 -16 -8z" />
    <path d="M610 410 c0 -7 3 -10 7 -7 3 4 3 10 0 14 -4 3 -7 0 -7 -7z" />
    <path d="M84 398 l-7 -11 11 7 c12 7 16 16 8 16 -3 0 -8 -5 -12 -12z" />
    <path d="M74 358 l-7 -11 11 7 c12 7 16 16 8 16 -3 0 -8 -5 -12 -12z" />
    <path d="M275 360 c3 -5 8 -10 11 -10 3 0 2 5 -1 10 -3 6 -8 10 -11 10 -3 0
-2 -4 1 -10z" />
    <path d="M610 310 c0 -7 3 -10 7 -7 3 4 3 10 0 14 -4 3 -7 0 -7 -7z" />
    <path d="M630 310 c0 -7 3 -10 7 -7 3 4 3 10 0 14 -4 3 -7 0 -7 -7z" />
    <path d="M579 243 l-14 -18 18 14 c16 13 21 21 13 21 -2 0 -10 -8 -17 -17z" />
    <path d="M330 240 c0 -7 3 -10 7 -7 3 4 3 10 0 14 -4 3 -7 0 -7 -7z" />
    <path d="M20 170 c0 -7 3 -10 7 -7 3 4 3 10 0 14 -4 3 -7 0 -7 -7z" />
    <path d="M238 83 c7 -3 16 -2 19 1 4 3 -2 6 -13 5 l-19 -1 13 -5z" />
  </g>
  <g transform="translate(0.000000,64.000000) scale(0.100000,-0.100000)" fill="#535353" stroke="none">
    <path d="M463 533 c4 -3 10 -3 14 0 3 4 0 7 -7 7 -7 0 -10 -3 -7 -7z" />
    <path d="M530 500 c0 -7 3 -10 7 -7 3 4 3 10 0 14 -4 3 -7 0 -7 -7z" />
    <path d="M143 433 c4 -3 10 -3 14 0 3 4 0 7 -7 7 -7 0 -10 -3 -7 -7z" />
    <path d="M203 433 c4 -3 10 -3 14 0 3 4 0 7 -7 7 -7 0 -10 -3 -7 -7z" />
    <path d="M630 410 c0 -7 3 -10 7 -7 3 4 3 10 0 14 -4 3 -7 0 -7 -7z" />
    <path d="M374 388 l-7 -11 11 7 c7 4 12 9 12 12 0 8 -9 4 -16 -8z" />
    <path d="M0 240 c0 -7 3 -10 7 -7 3 4 3 10 0 14 -4 3 -7 0 -7 -7z" />
    <path d="M20 240 c0 -7 3 -10 7 -7 3 4 3 10 0 14 -4 3 -7 0 -7 -7z" />
    <path d="M350 240 c0 -7 3 -10 7 -7 3 4 3 10 0 14 -4 3 -7 0 -7 -7z" />
    <path d="M483 203 c4 -3 10 -3 14 0 3 4 0 7 -7 7 -7 0 -10 -3 -7 -7z" />
    <path d="M113 83 c4 -3 10 -3 14 0 3 4 0 7 -7 7 -7 0 -10 -3 -7 -7z" />
  </g>
  <g transform="translate(0.000000,64.000000) scale(0.100000,-0.100000)" fill="#8a8a89" stroke="none">
    <path d="M523 553 c4 -3 10 -3 14 0 3 4 0 7 -7 7 -7 0 -10 -3 -7 -7z" />
    <path d="M374 508 l-7 -11 11 7 c7 4 12 9 12 12 0 8 -9 4 -16 -8z" />
    <path d="M143 413 c4 -3 10 -3 14 0 3 4 0 7 -7 7 -7 0 -10 -3 -7 -7z" />
    <path d="M203 413 c4 -3 10 -3 14 0 3 4 0 7 -7 7 -7 0 -10 -3 -7 -7z" />
    <path d="M363 343 c4 -3 10 -3 14 0 3 4 0 7 -7 7 -7 0 -10 -3 -7 -7z" />
    <path d="M520 230 c0 -7 3 -10 7 -7 3 4 3 10 0 14 -4 3 -7 0 -7 -7z" />
    <path d="M594 228 l-7 -11 11 7 c7 4 12 9 12 12 0 8 -9 4 -16 -8z" />
  </g>
  <g transform="translate(0.000000,64.000000) scale(0.100000,-0.100000)" fill="#444444" stroke="none">
    <path d="M463 553 c4 -3 10 -3 14 0 3 4 0 7 -7 7 -7 0 -10 -3 -7 -7z" />
    <path d="M620 450 c0 -7 3 -10 7 -7 3 4 3 10 0 14 -4 3 -7 0 -7 -7z" />
    <path d="M423 383 c4 -3 10 -3 14 0 3 4 0 7 -7 7 -7 0 -10 -3 -7 -7z" />
  </g>
  <g transform="translate(0.000000,64.000000) scale(0.100000,-0.100000)" fill="#969696" stroke="none" />
  <g transform="translate(0.000000,64.000000) scale(0.100000,-0.100000)" fill="#7d7c7c" stroke="none" />
  <g transform="translate(0.000000,64.000000) scale(0.100000,-0.100000)" fill="#74a269" stroke="none">
    <path d="M376 353 l-7 -18 12 12 c7 7 10 15 7 18 -3 3 -9 -2 -12 -12z" />
    <path d="M413 363 c4 -3 10 -3 14 0 3 4 0 7 -7 7 -7 0 -10 -3 -7 -7z" />
    <path d="M443 353 c4 -3 10 -3 14 0 3 4 0 7 -7 7 -7 0 -10 -3 -7 -7z" />
    <path d="M350 306 c0 -2 7 -7 16 -10 l15 -6 -6 10 c-6 10 -25 14 -25 6z" />
    <path d="M373 253 c4 -3 10 -3 14 0 3 4 0 7 -7 7 -7 0 -10 -3 -7 -7z" />
    <path d="M463 253 c4 -3 10 -3 14 0 3 4 0 7 -7 7 -7 0 -10 -3 -7 -7z" />
    <path d="M128 123 c7 -3 16 -2 19 1 4 3 -2 6 -13 5 l-19 -1 13 -5z" />
  </g>
  <g transform="translate(0.000000,64.000000) scale(0.100000,-0.100000)" fill="#51744a" stroke="none">
    <path d="M384 368 l-7 -11 11 7 c12 7 16 16 8 16 -3 0 -8 -5 -12 -12z" />
    <path d="M383 253 c4 -3 10 -3 14 0 3 4 0 7 -7 7 -7 0 -10 -3 -7 -7z" />
    <path d="M413 243 c4 -3 10 -3 14 0 3 4 0 7 -7 7 -7 0 -10 -3 -7 -7z" />
    <path d="M443 233 c4 -3 10 -3 14 0 3 4 0 7 -7 7 -7 0 -10 -3 -7 -7z" />
    <path d="M490 230 l-15 -10 12 0 c6 0 15 5 18 10 8 12 4 12 -15 0z" />
    <path d="M118 103 c7 -3 16 -2 19 1 4 3 -2 6 -13 5 l-19 -1 13 -5z" />
    <path d="M228 103 c7 -3 16 -2 19 1 4 3 -2 6 -13 5 l-19 -1 13 -5z" />
  </g>
  <g transform="translate(0.000000,64.000000) scale(0.100000,-0.100000)" fill="#3a5235" stroke="none" />
</svg>