<svg width="64.000000pt" height="64.000000pt" viewBox="0 0 64.000000 64.000000" xmlns="http://www.w3.org/2000/svg">
  <g transform="translate(0.000000,64.000000) scale(0.100000,-0.100000)" fill="none" stroke="none">
    <path d="M0 473 l0 -168 110 3 110 3 0 28 c0 16 3 42 6 59 l6 31 -48 3 -49 3
0 15 0 15 43 3 42 3 0 15 0 14 -39 0 c-22 0 -43 5 -47 12 l-7 11 18 14 c11 7
31 13 47 13 l28 0 0 14 c0 17 54 46 86 46 13 0 27 -7 32 -16 l9 -17 132 23
132 23 11 -11 12 -12 -11 -11 c-8 -8 -247 -58 -280 -59 -2 0 -3 -13 -3 -30 l0
-29 143 -3 142 -3 0 -15 0 -15 -142 -3 -143 -3 0 -59 0 -60 150 0 150 0 0 165
0 165 -320 0 -320 0 0 -167z" />
    <path d="M609 210 l-21 -50 -42 -38 c-23 -21 -63 -47 -89 -57 -26 -10 -47 -21
-47 -26 0 -4 -3 -14 -6 -23 l-6 -16 121 0 121 0 0 130 c0 72 -2 130 -5 130 -2
0 -14 -22 -26 -50z" />
    <path d="M0 125 l0 -125 121 0 121 0 -6 16 c-3 9 -6 19 -6 23 0 4 -24 17 -54
30 l-55 22 -39 43 c-22 24 -46 59 -53 79 -7 21 -17 37 -21 37 -4 0 -8 -56 -8
-125z" />
  </g>
  <g transform="translate(0.000000,64.000000) scale(0.100000,-0.100000)" fill="#000000" stroke="none">
    <path d="M455 609 l-99 -19 -9 15 -8 15 -33 0 c-41 0 -96 -26 -96 -46 l0 -14
-28 0 c-16 0 -36 -6 -46 -13 l-18 -13 4 -20 3 -19 45 -6 45 -5 -45 -5 -45 -4
0 -25 0 -25 52 -5 c49 -5 86 -20 50 -20 l-17 0 0 -40 0 -40 -105 0 -105 0 0
-37 c0 -87 80 -192 173 -228 l45 -17 5 -19 5 -19 92 0 92 0 5 19 5 19 45 17
c93 36 173 141 173 228 l0 37 -145 0 -145 0 0 50 0 49 143 3 142 3 0 25 0 25
-142 3 -143 3 0 18 0 19 23 5 c12 3 67 13 122 22 55 9 110 21 123 26 l23 9 -3
23 -3 22 -40 1 c-22 1 -85 -7 -140 -17z m138 -16 c-7 -2 -19 -2 -25 0 -7 3 -2
5 12 5 14 0 19 -2 13 -5z m-56 -9 c-3 -3 -12 -4 -19 -1 l-13 5 19 1 c11 1 17
-2 13 -5z m-60 -10 c-3 -3 -12 -4 -19 -1 l-13 5 19 1 c11 1 17 -2 13 -5z m-54
-11 c-7 -2 -19 -2 -25 0 -7 3 -2 5 12 5 14 0 19 -2 13 -5z m-230 -40 c-7 -2
-19 -2 -25 0 -7 3 -2 5 12 5 14 0 19 -2 13 -5z m120 -120 c-7 -2 -19 -2 -25 0
-7 3 -2 5 12 5 14 0 19 -2 13 -5z m227 -173 l0 -20 25 0 26 0 -10 -17 c-18
-34 -76 -86 -116 -104 l-40 -19 -105 0 -105 0 -40 19 c-40 18 -98 70 -116 104
l-10 17 236 0 235 0 0 20 c0 11 5 20 10 20 6 0 10 -9 10 -20z m-182 -197 c-21
-2 -55 -2 -75 0 -21 2 -4 4 37 4 41 0 58 -2 38 -4z" />
  </g>
  <g transform="translate(0.000000,64.000000) scale(0.100000,-0.100000)" fill="#fe928c" stroke="none">
    <path d="M30 290 l0 -10 295 0 295 0 0 10 0 10 -295 0 -295 0 0 -10z" />
    <path d="M510 230 l0 -10 -225 0 -225 0 0 -10 c0 -19 74 -91 114 -113 l41 -21
109 -4 109 -4 37 11 c39 12 103 69 126 114 l15 27 -31 0 c-16 0 -30 5 -30 10
0 6 -9 10 -20 10 -11 0 -20 -4 -20 -10z" />
  </g>
  <g transform="translate(0.000000,64.000000) scale(0.100000,-0.100000)" fill="#e5e5e5" stroke="none">
    <path d="M545 620 l-6 -10 15 6 c18 7 21 14 7 14 -6 0 -13 -4 -16 -10z" />
    <path d="M375 590 l-6 -10 15 6 c18 7 21 14 7 14 -6 0 -13 -4 -16 -10z" />
    <path d="M600 570 l-15 -10 12 0 c6 0 15 5 18 10 8 12 4 12 -15 0z" />
    <path d="M145 550 l-6 -10 15 6 c18 7 21 14 7 14 -6 0 -13 -4 -16 -10z" />
    <path d="M430 540 l-15 -10 12 0 c6 0 15 5 18 10 8 12 4 12 -15 0z" />
    <path d="M370 530 l-15 -10 12 0 c6 0 15 5 18 10 8 12 4 12 -15 0z" />
    <path d="M40 250 l0 -10 235 0 c129 0 235 -4 235 -8 0 -4 9 -8 20 -8 11 0 20
4 20 8 0 4 16 8 35 8 19 0 35 5 35 10 l0 10 -290 0 -290 0 0 -10z" />
    <path d="M40 161 c0 -5 5 -13 10 -16 6 -3 10 -2 10 4 0 5 -4 13 -10 16 -5 3
-10 2 -10 -4z" />
    <path d="M587 163 c-4 -3 -7 -11 -7 -17 l0 -10 12 12 c6 6 9 14 7 17 -3 3 -9
2 -12 -2z" />
    <path d="M105 90 c3 -5 11 -10 16 -10 6 0 7 5 4 10 -3 6 -11 10 -16 10 -6 0
-7 -4 -4 -10z" />
    <path d="M515 90 c-3 -5 -2 -10 4 -10 5 0 13 5 16 10 3 6 2 10 -4 10 -5 0 -13
-4 -16 -10z" />
    <path d="M197 49 c7 -7 15 -10 18 -7 3 3 -2 9 -12 12 l-18 7 12 -12z" />
    <path d="M430 50 l-15 -10 12 0 c6 0 15 5 18 10 8 12 4 12 -15 0z" />
    <path d="M250 35 l0 -15 75 0 75 0 0 15 0 15 -75 0 -75 0 0 -15z" />
  </g>
  <g transform="translate(0.000000,64.000000) scale(0.100000,-0.100000)" fill="#7a828a" stroke="none">
    <path d="M485 594 c-38 -7 -85 -16 -102 -19 l-33 -6 0 -15 0 -15 33 6 c17 3
77 14 131 24 l100 17 4 12 4 12 -34 -1 c-18 -1 -64 -7 -103 -15z" />
    <path d="M398 593 c7 -3 16 -2 19 1 4 3 -2 6 -13 5 l-19 -1 13 -5z" />
    <path d="M578 563 c7 -3 16 -2 19 1 4 3 -2 6 -13 5 l-19 -1 13 -5z" />
    <path d="M147 533 c-15 -15 -5 -23 28 -23 l35 0 0 15 0 15 -28 0 c-16 0 -32
-3 -35 -7z" />
    <path d="M140 450 l0 -10 240 0 240 0 0 10 0 10 -240 0 -240 0 0 -10z" />
    <path d="M554 118 l-29 -33 33 29 c30 28 37 36 29 36 -2 0 -16 -15 -33 -32z" />
    <path d="M80 116 c0 -2 8 -10 18 -17 l17 -14 -14 18 c-13 16 -21 21 -21 13z" />
  </g>
  <g transform="translate(0.000000,64.000000) scale(0.100000,-0.100000)" fill="#ffd3b6" stroke="none">
    <path d="M270 540 l0 -60 10 0 10 0 0 60 0 60 -10 0 -10 0 0 -60z" />
    <path d="M310 540 l0 -60 10 0 10 0 0 60 0 60 -10 0 -10 0 0 -60z" />
    <path d="M230 530 l0 -50 10 0 10 0 0 50 0 50 -10 0 -10 0 0 -50z" />
    <path d="M216 405 c-3 -8 -1 -15 4 -15 6 0 10 -16 10 -35 0 -19 5 -35 10 -35
l10 0 0 50 0 50 -14 0 c-8 0 -16 -7 -20 -15z" />
    <path d="M270 370 l0 -50 10 0 c6 0 10 16 10 35 0 19 5 35 10 35 6 0 10 -16
10 -35 0 -19 5 -35 10 -35 l10 0 0 50 0 50 -30 0 -30 0 0 -50z" />
  </g>
  <g transform="translate(0.000000,64.000000) scale(0.100000,-0.100000)" fill="#f17975" stroke="none">
    <path d="M20 290 c0 -5 7 -10 16 -10 l15 0 -6 10 c-3 6 -10 10 -16 10 -5 0 -9
-4 -9 -10z" />
    <path d="M44 193 c22 -43 77 -94 121 -114 l40 -19 115 0 115 0 44 20 c54 25
50 37 -5 14 l-38 -16 -106 4 -105 4 -41 22 c-23 11 -60 42 -82 67 -22 25 -47
45 -56 45 l-17 0 15 -27z" />
    <path d="M577 183 c-4 -3 -7 -11 -7 -17 l0 -10 12 12 c6 6 9 14 7 17 -3 3 -9
2 -12 -2z" />
  </g>
  <g transform="translate(0.000000,64.000000) scale(0.100000,-0.100000)" fill="#181616" stroke="none">
    <path d="M607 624 l22 -5 4 -20 5 -19 -2 22 -1 23 -25 2 -25 1 22 -4z" />
    <path d="M278 613 c7 -3 16 -2 19 1 4 3 -2 6 -13 5 l-19 -1 13 -5z" />
    <path d="M530 616 c0 -2 7 -7 16 -10 l15 -6 -6 10 c-6 10 -25 14 -25 6z" />
    <path d="M340 601 c0 -6 4 -13 10 -16 l10 -6 -6 15 c-7 18 -14 21 -14 7z" />
    <path d="M437 549 c7 -7 15 -10 18 -7 3 3 -2 9 -12 12 l-18 7 12 -12z" />
    <path d="M124 515 l1 -20 20 -2 20 -2 -17 5 c-9 3 -19 13 -21 22 l-4 17 1 -20z" />
    <path d="M124 465 c-8 -20 2 -45 18 -44 l13 1 -12 5 c-7 2 -13 13 -13 23 0 10
6 21 13 23 l12 5 -13 1 c-7 1 -15 -6 -18 -14z" />
    <path d="M620 473 c5 -2 10 -13 10 -23 0 -10 -5 -21 -10 -23 -6 -3 -5 -4 2 -3
7 2 13 13 13 26 0 13 -6 24 -13 26 -7 1 -8 0 -2 -3z" />
    <path d="M632 300 c0 -14 2 -19 5 -12 2 6 2 18 0 25 -3 6 -5 1 -5 -13z" />
    <path d="M2 290 c0 -14 2 -19 5 -12 2 6 2 18 0 25 -3 6 -5 1 -5 -13z" />
    <path d="M20 249 c0 -5 -4 -7 -10 -4 l-10 6 6 -15 6 -15 14 14 c16 16 18 25 4
25 -5 0 -10 -5 -10 -11z" />
    <path d="M617 233 c3 -7 6 -13 8 -13 2 0 5 6 8 13 l5 14 -13 0 -13 0 5 -14z" />
    <path d="M591 202 l-10 -19 14 0 13 0 -6 15 -5 15 13 -8 13 -8 -7 11 c-10 16
-14 15 -25 -6z" />
    <path d="M37 197 l-5 -14 13 0 13 0 -5 14 c-6 16 -10 16 -16 0z" />
    <path d="M47 153 c3 -7 6 -13 8 -13 2 0 5 6 8 13 l5 14 -13 0 -13 0 5 -14z" />
    <path d="M577 153 c3 -7 6 -13 8 -13 2 0 5 6 8 13 l5 14 -13 0 -13 0 5 -14z" />
    <path d="M112 101 l-14 -8 14 -6 15 -5 0 14 c0 8 -1 14 -1 14 -1 0 -7 -4 -14
-9z" />
    <path d="M513 95 l0 -13 14 5 c7 3 13 6 13 8 0 2 -6 5 -13 8 l-14 5 0 -13z" />
    <path d="M143 85 l0 -13 14 5 c7 3 13 6 13 8 0 2 -6 5 -13 8 l-14 5 0 -13z" />
    <path d="M482 91 l-14 -8 14 -6 15 -5 0 14 c0 8 -1 14 -1 14 -1 0 -7 -4 -14
-9z" />
    <path d="M240 40 c0 -5 4 -10 9 -10 6 0 13 5 16 10 l6 10 -15 0 c-9 0 -16 -4
-16 -10z" />
    <path d="M220 21 c0 -10 19 -25 25 -20 1 2 -3 10 -11 17 l-14 13 0 -10z" />
    <path d="M402 14 l-13 -14 10 0 c10 0 25 19 20 25 -2 1 -10 -3 -17 -11z" />
  </g>
  <g transform="translate(0.000000,64.000000) scale(0.100000,-0.100000)" fill="#747677" stroke="none">
    <path d="M242 606 c-33 -19 -37 -25 -10 -19 12 4 29 13 36 20 16 16 5 15 -26
-1z" />
    <path d="M290 616 c0 -2 13 -6 29 -8 17 -2 28 -1 25 4 -5 8 -54 12 -54 4z" />
    <path d="M458 603 c7 -3 16 -2 19 1 4 3 -2 6 -13 5 l-19 -1 13 -5z" />
    <path d="M540 600 l-15 -10 12 0 c6 0 15 5 18 10 8 12 4 12 -15 0z" />
    <path d="M590 606 c0 -2 7 -6 15 -10 8 -3 15 -1 15 4 0 6 -7 10 -15 10 -8 0
-15 -2 -15 -4z" />
    <path d="M620 580 l-15 -10 12 0 c6 0 15 5 18 10 8 12 4 12 -15 0z" />
    <path d="M370 570 l-15 -10 12 0 c6 0 15 5 18 10 8 12 4 12 -15 0z" />
    <path d="M435 560 l-6 -10 15 6 c18 7 21 14 7 14 -6 0 -13 -4 -16 -10z" />
    <path d="M125 540 l-6 -10 15 6 c18 7 21 14 7 14 -6 0 -13 -4 -16 -10z" />
    <path d="M140 520 c0 -6 7 -10 15 -10 8 0 15 2 15 4 0 2 -7 6 -15 10 -8 3 -15
1 -15 -4z" />
    <path d="M50 146 c0 -2 8 -10 18 -17 l17 -14 -14 18 c-13 16 -21 21 -21 13z" />
  </g>
  <g transform="translate(0.000000,64.000000) scale(0.100000,-0.100000)" fill="#0d0b0b" stroke="none">
    <path d="M238 593 c7 -3 16 -2 19 1 4 3 -2 6 -13 5 l-19 -1 13 -5z" />
    <path d="M602 591 l-14 -8 14 -6 15 -5 0 14 c0 8 -1 14 -1 14 -1 0 -7 -4 -14
-9z" />
    <path d="M370 580 c8 -5 20 -10 25 -10 6 0 3 5 -5 10 -8 5 -19 10 -25 10 -5 0
-3 -5 5 -10z" />
    <path d="M143 535 l0 -13 14 5 c7 3 13 6 13 8 0 2 -6 5 -13 8 l-14 5 0 -13z" />
    <path d="M370 540 c8 -5 20 -10 25 -10 6 0 3 5 -5 10 -8 5 -19 10 -25 10 -5 0
-3 -5 5 -10z" />
    <path d="M26 212 c-3 -5 1 -9 9 -9 8 0 12 4 9 9 -3 4 -7 8 -9 8 -2 0 -6 -4 -9
-8z" />
    <path d="M47 177 l-5 -14 14 0 c16 0 19 13 5 21 -5 3 -11 0 -14 -7z" />
    <path d="M577 177 l-5 -14 13 0 13 0 -5 14 c-6 16 -10 16 -16 0z" />
    <path d="M87 126 l-6 -15 14 6 c8 3 12 9 9 14 -7 12 -11 11 -17 -5z" />
    <path d="M536 131 c-3 -5 1 -11 9 -14 l14 -6 -6 15 c-6 16 -10 17 -17 5z" />
    <path d="M123 96 l0 -14 14 5 c7 3 10 9 7 14 -8 14 -21 11 -21 -5z" />
    <path d="M502 101 l-14 -8 14 -6 15 -5 0 14 c0 8 -1 14 -1 14 -1 0 -7 -4 -14
-9z" />
    <path d="M163 75 l0 -12 20 5 20 5 -7 -11 -7 -12 15 6 c22 8 20 11 -12 22
l-29 10 0 -13z" />
    <path d="M445 76 l-29 -12 17 -7 18 -7 -7 12 -7 11 20 -5 20 -5 0 13 c0 8 -1
14 -1 14 -1 -1 -14 -7 -31 -14z" />
    <path d="M308 43 c6 -2 18 -2 25 0 6 3 1 5 -13 5 -14 0 -19 -2 -12 -5z" />
  </g>
  <g transform="translate(0.000000,64.000000) scale(0.100000,-0.100000)" fill="#222223" stroke="none">
    <path d="M1 274 l1 -19 5 13 c3 7 2 16 -1 19 -3 4 -6 -2 -5 -13z" />
    <path d="M26 187 c3 -10 9 -15 12 -12 3 3 0 11 -7 18 l-12 12 7 -18z" />
    <path d="M605 189 c-4 -6 -5 -12 -2 -15 2 -3 7 2 10 11 7 17 1 20 -8 4z" />
    <path d="M130 76 c0 -2 7 -7 16 -10 l15 -6 -6 10 c-6 10 -25 14 -25 6z" />
    <path d="M485 70 l-6 -10 15 6 c18 7 21 14 7 14 -6 0 -13 -4 -16 -10z" />
    <path d="M240 38 c0 -4 15 -5 33 -1 46 8 48 14 4 11 -20 -1 -37 -6 -37 -10z" />
    <path d="M348 43 c12 -2 30 -2 40 0 9 3 -1 5 -23 4 l-40 0 23 -4z" />
  </g>
  <g transform="translate(0.000000,64.000000) scale(0.100000,-0.100000)" fill="#64676a" stroke="none">
    <path d="M578 623 c7 -3 16 -2 19 1 4 3 -2 6 -13 5 l-19 -1 13 -5z" />
    <path d="M518 613 c7 -3 16 -2 19 1 4 3 -2 6 -13 5 l-19 -1 13 -5z" />
    <path d="M518 553 c7 -3 16 -2 19 1 4 3 -2 6 -13 5 l-19 -1 13 -5z" />
    <path d="M458 543 c7 -3 16 -2 19 1 4 3 -2 6 -13 5 l-19 -1 13 -5z" />
    <path d="M398 533 c7 -3 16 -2 19 1 4 3 -2 6 -13 5 l-19 -1 13 -5z" />
    <path d="M168 493 c7 -3 16 -2 19 1 4 3 -2 6 -13 5 l-19 -1 13 -5z" />
    <path d="M2 260 c0 -14 2 -19 5 -12 2 6 2 18 0 25 -3 6 -5 1 -5 -13z" />
    <path d="M631 264 l1 -19 5 13 c3 7 2 16 -1 19 -3 4 -6 -2 -5 -13z" />
  </g>
  <g transform="translate(0.000000,64.000000) scale(0.100000,-0.100000)" fill="#353535" stroke="none">
    <path d="M16 207 c3 -10 9 -15 12 -12 3 3 0 11 -7 18 l-12 12 7 -18z" />
    <path d="M615 209 c-4 -6 -5 -12 -2 -15 2 -3 7 2 10 11 7 17 1 20 -8 4z" />
    <path d="M150 66 c0 -2 7 -7 16 -10 l15 -6 -6 10 c-6 10 -25 14 -25 6z" />
    <path d="M465 60 l-6 -10 15 6 c18 7 21 14 7 14 -6 0 -13 -4 -16 -10z" />
  </g>
  <g transform="translate(0.000000,64.000000) scale(0.100000,-0.100000)" fill="#444648" stroke="none">
    <path d="M25 250 c3 -5 8 -10 11 -10 2 0 4 5 4 10 0 6 -5 10 -11 10 -5 0 -7
-4 -4 -10z" />
  </g>
  <g transform="translate(0.000000,64.000000) scale(0.100000,-0.100000)" fill="#cccccc" stroke="none">
    <path d="M30 250 c0 -5 7 -10 16 -10 l15 0 -6 10 c-3 6 -10 10 -16 10 -5 0 -9
-4 -9 -10z" />
    <path d="M240 30 c0 -5 5 -10 10 -10 6 0 10 5 10 10 0 6 -4 10 -10 10 -5 0
-10 -4 -10 -10z" />
  </g>
  <g transform="translate(0.000000,64.000000) scale(0.100000,-0.100000)" fill="#999999" stroke="none">
    <path d="M168 553 c7 -3 16 -2 19 1 4 3 -2 6 -13 5 l-19 -1 13 -5z" />
  </g>
  <g transform="translate(0.000000,64.000000) scale(0.100000,-0.100000)" fill="#914b49" stroke="none">
    <path d="M59 172 c5 -10 18 -25 27 -33 l18 -14 -24 33 c-26 35 -36 42 -21 14z" />
    <path d="M559 153 l-14 -18 18 14 c16 13 21 21 13 21 -2 0 -10 -8 -17 -17z" />
    <path d="M519 113 l-14 -18 18 14 c16 13 21 21 13 21 -2 0 -10 -8 -17 -17z" />
    <path d="M218 63 c7 -3 16 -2 19 1 4 3 -2 6 -13 5 l-19 -1 13 -5z" />
    <path d="M408 63 c7 -3 16 -2 19 1 4 3 -2 6 -13 5 l-19 -1 13 -5z" />
  </g>
  <g transform="translate(0.000000,64.000000) scale(0.100000,-0.100000)" fill="#53575a" stroke="none" />
  <g transform="translate(0.000000,64.000000) scale(0.100000,-0.100000)" fill="#b75e5b" stroke="none">
    <path d="M539 133 l-14 -18 18 14 c16 13 21 21 13 21 -2 0 -10 -8 -17 -17z" />
    <path d="M90 136 c0 -2 8 -10 18 -17 l17 -14 -14 18 c-13 16 -21 21 -21 13z" />
    <path d="M238 63 c7 -3 16 -2 19 1 4 3 -2 6 -13 5 l-19 -1 13 -5z" />
    <path d="M388 63 c7 -3 16 -2 19 1 4 3 -2 6 -13 5 l-19 -1 13 -5z" />
  </g>
  <g transform="translate(0.000000,64.000000) scale(0.100000,-0.100000)" fill="#bababa" stroke="none" />
  <g transform="translate(0.000000,64.000000) scale(0.100000,-0.100000)" fill="#462423" stroke="none">
    <path d="M117 109 c7 -7 15 -10 18 -7 3 3 -2 9 -12 12 l-18 7 12 -12z" />
  </g>
  <g transform="translate(0.000000,64.000000) scale(0.100000,-0.100000)" fill="#d86b68" stroke="none" />
  <g transform="translate(0.000000,64.000000) scale(0.100000,-0.100000)" fill="#b2b2b2" stroke="none" />
  <g transform="translate(0.000000,64.000000) scale(0.100000,-0.100000)" fill="#c4a28c" stroke="none" />
  <g transform="translate(0.000000,64.000000) scale(0.100000,-0.100000)" fill="#6f3735" stroke="none" />
</svg>