<svg width="64.000000pt" height="64.000000pt" viewBox="0 0 64.000000 64.000000" xmlns="http://www.w3.org/2000/svg">
  <g transform="translate(0.000000,64.000000) scale(0.100000,-0.100000)" fill="none" stroke="none">
    <path d="M0 320 l0 -320 66 0 65 0 -7 23 c-3 12 -13 26 -20 30 -17 10 -18 49
-2 65 l12 12 116 0 116 0 12 -12 c16 -16 15 -55 -2 -65 -7 -4 -17 -18 -20 -30
l-7 -23 155 0 156 0 0 320 0 320 -106 0 -105 0 6 -19 6 -18 -37 -104 c-20 -57
-41 -105 -45 -107 -15 -6 -10 -32 6 -32 8 0 15 4 15 8 0 4 33 43 73 86 l74 79
11 -7 c7 -4 12 -11 12 -16 0 -5 -27 -40 -60 -78 -33 -39 -60 -77 -60 -86 0 -8
9 -20 20 -26 l20 -11 0 -24 c0 -25 -18 -48 -51 -66 l-20 -10 -35 13 -35 12
-20 -12 c-24 -15 -39 -8 -39 19 0 10 -5 19 -10 19 -6 0 -22 11 -35 25 l-25 24
0 30 0 30 21 14 20 15 35 -11 c19 -6 36 -8 38 -6 2 2 22 54 44 114 22 61 43
118 47 128 l7 17 -206 0 -206 0 0 -320z" />
  </g>
  <g transform="translate(0.000000,64.000000) scale(0.100000,-0.100000)" fill="#000000" stroke="none">
    <path d="M392 623 c-5 -10 -26 -65 -47 -123 -21 -58 -38 -106 -40 -108 -1 -1
-16 3 -33 9 l-31 10 -21 -11 c-11 -6 -25 -22 -30 -36 l-10 -25 15 -34 14 -35
25 -12 26 -11 0 -19 c0 -24 27 -34 52 -19 l19 12 35 -13 35 -12 35 19 34 18 7
26 c10 36 5 53 -20 72 l-21 17 63 72 62 72 -3 22 -3 21 -20 4 -20 3 -67 -73
-68 -74 36 99 c19 55 34 109 32 120 l-3 21 -22 3 -22 3 -9 -18z m-57 -282
l-33 -34 -38 15 c-21 9 -40 22 -42 29 l-4 14 10 -14 10 -14 28 8 c16 5 39 7
52 6 l22 -2 0 15 c0 9 -6 16 -12 16 l-13 0 14 9 14 9 12 -11 12 -11 -32 -35z
m-55 -66 c0 -2 -4 -6 -9 -9 -5 -3 -11 1 -14 9 l-6 14 15 -6 c7 -3 14 -7 14 -8z
m170 -2 c0 -15 -5 -15 -37 -7 -32 9 -28 19 7 19 l30 0 0 -12z" />
    <path d="M92 128 c-7 -7 -12 -27 -12 -45 l0 -34 14 -5 c8 -3 16 -14 19 -25 l5
-19 112 0 112 0 5 19 c3 11 11 22 19 25 l14 5 0 34 c0 18 -5 38 -12 45 l-12
12 -126 0 -126 0 -12 -12z m100 -48 c6 0 20 7 30 17 l18 16 0 -16 c0 -22 18
-22 42 0 l18 16 0 -16 c0 -20 21 -22 38 -5 l12 12 0 -17 0 -17 -25 0 -25 0 0
-20 c0 -11 -4 -20 -10 -20 -5 0 -10 9 -10 20 l0 20 -85 0 -85 0 1 18 1 17 5
-12 c7 -18 28 -16 44 4 l14 16 3 -16 c2 -10 8 -17 14 -17z" />
  </g>
  <g transform="translate(0.000000,64.000000) scale(0.100000,-0.100000)" fill="#f8b995" stroke="none">
    <path d="M210 359 c-7 -11 -10 -22 -8 -24 2 -2 26 -12 54 -23 l51 -21 12 12
c6 6 11 14 11 18 0 3 -20 12 -45 19 l-45 13 0 13 c0 21 -18 17 -30 -7z" />
    <path d="M374 289 c-3 -6 -2 -14 2 -19 14 -12 72 -29 78 -23 14 15 4 32 -25
42 -40 14 -46 14 -55 0z" />
    <path d="M107 113 c-4 -3 -7 -17 -7 -30 l0 -23 85 0 85 0 0 -10 c0 -5 9 -10
20 -10 11 0 20 5 20 10 0 6 11 10 25 10 l25 0 0 15 0 15 -115 0 -115 0 0 15
c0 16 -12 20 -23 8z" />
  </g>
  <g transform="translate(0.000000,64.000000) scale(0.100000,-0.100000)" fill="#7a828a" stroke="none">
    <path d="M395 630 c-3 -5 -3 -15 0 -20 4 -6 -1 -34 -11 -63 l-17 -52 -9 20 -8
20 4 -25 c7 -31 -14 -100 -31 -107 -17 -7 -17 -21 1 -39 22 -21 36 -17 36 11
0 13 16 68 35 121 19 53 35 103 35 111 l0 15 -15 -6 c-8 -3 -15 -1 -15 3 0 5
6 12 13 14 l12 5 -12 1 c-6 1 -15 -3 -18 -9z" />
    <path d="M398 380 c-65 -76 -118 -143 -118 -149 0 -6 6 -11 13 -10 14 0 247
272 247 288 0 30 -35 -2 -142 -129z" />
    <path d="M215 300 c3 -5 10 -10 16 -10 5 0 9 5 9 10 0 6 -7 10 -16 10 l-15 0
6 -10z" />
    <path d="M350 240 c0 -5 7 -10 15 -10 8 0 15 5 15 10 0 6 -7 10 -15 10 -8 0
-15 -4 -15 -10z" />
  </g>
  <g transform="translate(0.000000,64.000000) scale(0.100000,-0.100000)" fill="#e6e6e6" stroke="none">
    <path d="M363 553 c-3 -10 -8 -22 -11 -27 -3 -5 0 -6 5 -3 11 7 25 47 17 47
-3 0 -7 -8 -11 -17z" />
    <path d="M401 484 c-6 -15 -9 -29 -7 -32 3 -2 10 8 16 23 6 15 9 29 7 31 -2 2
-9 -8 -16 -22z" />
    <path d="M450 475 c-7 -9 -11 -18 -8 -20 3 -3 11 1 18 10 7 9 11 18 8 20 -3 3
-11 -1 -18 -10z" />
    <path d="M537 483 c-4 -3 -7 -11 -7 -17 l0 -10 12 12 c6 6 9 14 7 17 -3 3 -9
2 -12 -2z" />
    <path d="M313 410 l-5 -21 -22 7 c-47 15 -49 14 -11 -5 22 -11 42 -20 45 -20
3 -1 6 13 6 29 2 34 -5 40 -13 10z" />
    <path d="M373 403 c-3 -8 -3 -17 1 -20 6 -6 36 15 36 27 0 13 -32 7 -37 -7z" />
    <path d="M477 413 c-4 -3 -7 -11 -7 -17 l0 -10 12 12 c6 6 9 14 7 17 -3 3 -9
2 -12 -2z" />
    <path d="M425 350 c-8 -13 -1 -24 14 -19 l10 4 -8 14 -8 13 -8 -12z" />
    <path d="M464 314 c5 -10 9 -24 9 -31 0 -7 4 -10 8 -8 9 6 0 43 -14 52 l-10 6
7 -19z" />
    <path d="M240 289 c0 -6 5 -19 11 -30 l10 -20 15 12 c19 15 18 35 -2 43 -23 9
-34 7 -34 -5z" />
    <path d="M342 249 c3 -8 9 -14 14 -14 5 0 14 -3 19 -6 6 -4 22 -9 36 -13 l27
-6 13 17 14 17 -20 -11 -19 -11 -11 14 c-5 7 -25 17 -44 20 l-34 7 5 -14z" />
    <path d="M270 48 c0 -4 -31 -8 -70 -8 l-70 0 0 -10 0 -10 109 0 109 0 5 13 5
14 -24 -5 c-13 -2 -24 0 -24 5 0 5 -9 9 -20 9 -11 0 -20 -4 -20 -8z" />
  </g>
  <g transform="translate(0.000000,64.000000) scale(0.100000,-0.100000)" fill="#fed2b5" stroke="none">
    <path d="M227 384 c-9 -10 2 -24 19 -24 8 0 14 7 14 15 0 15 -21 21 -33 9z" />
    <path d="M265 356 l-20 -15 26 -10 c45 -17 61 -17 72 1 6 9 9 19 7 21 -3 3
-19 8 -35 11 l-30 7 -20 -15z" />
    <path d="M393 311 l-12 -20 12 -4 c16 -5 40 20 32 33 -9 15 -19 12 -32 -9z" />
    <path d="M425 291 c-3 -6 3 -15 14 -20 l19 -11 5 14 c3 8 3 17 0 20 -10 9 -31
7 -38 -3z" />
    <path d="M152 108 c-18 -18 -14 -28 12 -28 l24 0 6 16 c3 9 6 18 6 20 0 9 -37
3 -48 -8z" />
    <path d="M212 108 c-18 -18 -14 -28 12 -28 l24 0 6 16 c3 9 6 18 6 20 0 9 -37
3 -48 -8z" />
    <path d="M272 108 c-18 -18 -14 -28 12 -28 l24 0 6 16 c3 9 6 18 6 20 0 9 -37
3 -48 -8z" />
    <path d="M327 103 c-13 -12 -7 -23 13 -23 l20 0 0 15 c0 15 -21 21 -33 8z" />
  </g>
  <g transform="translate(0.000000,64.000000) scale(0.100000,-0.100000)" fill="#0d0d0d" stroke="none">
    <path d="M377 587 l-5 -14 13 0 13 0 -5 14 c-3 7 -6 13 -8 13 -2 0 -5 -6 -8
-13z" />
    <path d="M427 573 c3 -7 6 -13 8 -13 2 0 5 6 8 13 l5 14 -13 0 -13 0 5 -14z" />
    <path d="M402 542 l-10 -29 13 0 12 0 -5 20 -5 20 11 -7 12 -7 -6 15 c-3 9 -7
16 -9 16 -2 0 -7 -13 -13 -28z" />
    <path d="M510 510 c6 -10 10 -23 9 -27 -1 -4 -1 -15 0 -23 l2 -15 14 19 14 19
-9 17 c-5 10 -16 20 -25 24 l-15 6 10 -20z" />
    <path d="M358 487 l5 -20 -11 7 -12 7 6 -15 c3 -9 7 -16 9 -16 2 0 7 13 13 28
l10 29 -13 0 -12 0 5 -20z" />
    <path d="M467 493 c-11 -11 -8 -20 7 -20 l14 0 -5 14 c-6 15 -7 15 -16 6z" />
    <path d="M388 457 l5 -20 -11 7 -12 7 6 -15 c3 -9 7 -16 9 -16 2 0 7 13 13 28
l10 29 -13 0 -12 0 5 -20z" />
    <path d="M319 423 c-7 -21 -14 -43 -15 -50 l-2 -12 16 6 15 6 -5 -9 c-3 -5 -1
-13 6 -19 12 -10 36 -18 36 -12 0 9 -36 44 -50 50 l-15 5 18 1 17 1 -6 26 -7
27 11 -7 12 -7 -6 15 c-3 9 -8 16 -9 16 -2 0 -9 -17 -16 -37z" />
    <path d="M447 443 c3 -7 9 -10 14 -7 5 3 9 1 9 -4 0 -5 6 -9 14 -9 l14 0 -5
14 c-3 7 -9 10 -14 7 -5 -3 -9 -1 -9 4 0 5 -6 9 -14 9 l-14 0 5 -14z" />
    <path d="M407 423 c-11 -11 -8 -20 7 -20 l14 0 -5 14 c-6 15 -7 15 -16 6z" />
    <path d="M221 401 l-14 -9 22 -7 c12 -3 19 -10 16 -15 -3 -4 1 -10 8 -13 l13
-5 0 23 0 22 -20 -5 -19 -5 7 11 c9 14 6 15 -13 3z" />
    <path d="M457 393 c3 -7 9 -10 14 -7 14 8 11 21 -5 21 l-14 0 5 -14z" />
    <path d="M387 373 c3 -7 9 -11 13 -8 4 3 11 -2 14 -11 9 -23 8 -27 -8 -21
l-15 6 5 -14 6 -14 18 11 c10 6 16 19 15 27 -2 9 -4 20 -4 24 -1 5 -5 5 -11 2
-5 -3 -10 -2 -10 3 0 5 -6 9 -14 9 l-14 0 5 -14z" />
    <path d="M187 357 l-5 -14 13 0 13 0 -5 14 c-3 7 -6 13 -8 13 -2 0 -5 -6 -8
-13z" />
    <path d="M263 305 l0 -13 14 5 c7 3 13 6 13 8 0 2 -6 5 -13 8 l-14 5 0 -13z" />
    <path d="M327 303 c3 -7 9 -10 14 -7 5 3 9 0 9 -6 0 -6 5 -8 10 -5 9 6 14 -7
11 -27 0 -4 6 -5 14 -2 l14 6 -14 15 c-8 8 -15 19 -15 24 0 6 -4 7 -10 4 -5
-3 -10 -2 -10 3 0 5 -6 9 -14 9 l-14 0 5 -14z" />
    <path d="M197 293 c3 -7 6 -13 8 -13 2 0 5 6 8 13 l5 14 -13 0 -13 0 5 -14z" />
    <path d="M470 299 c0 -5 -4 -8 -8 -5 -5 3 -9 -1 -9 -9 0 -8 4 -12 8 -9 4 2 9
-2 12 -8 2 -7 4 -1 4 15 0 15 -1 27 -3 27 -2 0 -4 -5 -4 -11z" />
    <path d="M293 293 c-7 -2 -13 -12 -13 -20 l0 -15 -14 12 -15 12 -17 -10 -16
-9 17 -7 c9 -3 21 -4 26 0 5 3 12 -2 15 -11 4 -8 15 -20 26 -26 l20 -11 -11
19 c-5 11 -8 31 -7 46 2 15 3 27 2 26 0 0 -7 -3 -13 -6z" />
    <path d="M340 251 l10 -19 -12 -4 -12 -4 15 -6 15 -6 0 24 c0 13 -6 26 -13 28
l-13 6 10 -19z" />
    <path d="M430 255 c0 -2 6 -8 13 -14 l14 -11 0 13 c0 8 -6 14 -14 14 -7 0 -13
-1 -13 -2z" />
    <path d="M110 25 l0 -14 15 5 c8 4 15 10 15 15 0 5 -7 9 -15 9 -8 0 -15 -7
-15 -15z" />
    <path d="M320 26 c0 -2 7 -6 15 -10 8 -3 15 -1 15 4 0 6 -7 10 -15 10 -8 0
-15 -2 -15 -4z" />
  </g>
  <g transform="translate(0.000000,64.000000) scale(0.100000,-0.100000)" fill="#191919" stroke="none">
    <path d="M422 634 c9 -3 19 -15 22 -27 l4 -22 -1 25 -2 25 -20 2 -20 2 17 -5z" />
    <path d="M383 607 l-6 -10 13 8 13 8 -7 -29 -7 -29 9 13 c5 8 13 13 18 12 5
-1 10 4 12 12 l4 13 -12 -15 -12 -15 5 21 4 21 -14 0 c-8 0 -17 -5 -20 -10z" />
    <path d="M528 533 l22 -4 0 -19 c0 -22 -17 -35 -22 -18 l-4 12 -7 -18 -7 -17
9 6 c5 3 11 0 13 -6 2 -6 10 1 17 14 8 14 11 33 8 41 l-6 16 -23 -1 -23 -2 23
-4z" />
    <path d="M459 480 c-1 -8 0 -19 1 -25 1 -5 3 -19 5 -30 1 -11 3 -24 4 -30 1
-5 5 -3 10 4 l10 15 -9 17 c-5 9 -7 19 -4 22 3 3 1 14 -5 24 l-10 18 -2 -15z" />
    <path d="M370 450 c0 -5 -5 -9 -11 -7 -6 1 -14 -5 -16 -13 l-5 -15 12 15 11
15 -6 -36 -7 -36 15 0 15 0 5 23 4 23 -10 -6 -10 -6 7 27 c3 14 4 26 1 26 -3
0 -5 -4 -5 -10z" />
    <path d="M399 410 c-1 -8 0 -19 1 -25 2 -5 3 -17 2 -26 0 -9 6 -16 13 -16 l14
0 -9 17 c-5 10 -7 20 -4 23 3 3 1 14 -5 24 l-10 18 -2 -15z" />
    <path d="M197 336 l-6 -15 14 6 c8 3 12 9 9 14 -7 12 -11 11 -17 -5z" />
    <path d="M336 341 c-4 -6 -3 -19 2 -28 5 -10 7 -24 4 -32 l-5 -14 11 7 12 7
-4 30 c-4 34 -11 45 -20 30z" />
    <path d="M450 326 c0 -2 7 -9 15 -16 l15 -13 -6 17 c-3 9 -10 16 -15 16 -5 0
-9 -2 -9 -4z" />
    <path d="M214 290 l0 -18 13 5 c7 3 13 9 13 13 0 4 -6 10 -13 13 l-13 5 0 -18z" />
    <path d="M423 295 l0 -13 14 5 c7 3 13 6 13 8 0 2 -6 5 -13 8 l-14 5 0 -13z" />
    <path d="M270 258 c-7 -15 -10 -34 -7 -42 l6 -16 23 1 23 2 -22 4 -23 4 0 19
c0 22 17 35 22 18 l4 -12 7 18 7 17 -9 -6 c-5 -3 -11 1 -14 7 l-4 13 -13 -27z" />
    <path d="M400 250 l-15 -10 13 0 c7 0 11 -4 8 -9 -3 -5 1 -12 9 -15 l15 -6 -9
19 c-6 10 -7 21 -4 25 9 9 0 7 -17 -4z" />
    <path d="M335 110 l-6 -10 16 0 16 0 -6 10 c-3 6 -8 10 -10 10 -2 0 -7 -4 -10
-10z" />
    <path d="M80 60 c0 -5 9 -14 20 -20 11 -6 20 -9 20 -8 0 2 -9 11 -20 21 -11 9
-20 13 -20 7z" />
    <path d="M362 54 l-13 -14 10 0 c10 0 25 19 20 25 -2 1 -10 -3 -17 -11z" />
  </g>
  <g transform="translate(0.000000,64.000000) scale(0.100000,-0.100000)" fill="#322e2c" stroke="none">
    <path d="M373 510 c3 -16 21 -14 25 2 l4 13 -10 -14 -10 -13 -5 11 -5 12 1
-11z" />
    <path d="M425 351 c-6 -10 33 -36 42 -28 2 3 -5 8 -16 12 -12 3 -19 11 -16 16
4 5 4 9 1 9 -3 0 -7 -4 -11 -9z" />
    <path d="M404 318 l-7 -11 11 7 c5 3 12 1 14 -6 l4 -12 7 11 7 11 -15 6 c-8 3
-17 0 -21 -6z" />
    <path d="M400 290 c0 -6 7 -10 15 -10 8 0 15 2 15 4 0 2 -7 6 -15 10 -8 3 -15
1 -15 -4z" />
    <path d="M245 274 c11 -8 19 -21 17 -27 l-3 -12 12 12 13 13 -20 15 c-10 8
-23 14 -29 14 -5 0 -1 -7 10 -15z" />
    <path d="M180 96 c0 -9 7 -16 16 -16 17 0 14 22 -4 28 -7 2 -12 -3 -12 -12z" />
    <path d="M240 96 c0 -9 7 -16 16 -16 17 0 14 22 -4 28 -7 2 -12 -3 -12 -12z" />
    <path d="M300 96 c0 -9 7 -16 16 -16 17 0 14 22 -4 28 -7 2 -12 -3 -12 -12z" />
  </g>
  <g transform="translate(0.000000,64.000000) scale(0.100000,-0.100000)" fill="#292320" stroke="none">
    <path d="M451 265 c0 -5 3 -16 8 -23 l8 -14 6 17 7 16 -9 -6 c-5 -3 -12 1 -14
7 -3 7 -6 9 -6 3z" />
    <path d="M120 104 c0 -22 20 -27 40 -9 l18 16 14 -14 13 -15 17 15 16 14 14
-14 13 -15 16 14 17 15 15 -15 15 -15 12 14 c7 8 9 16 4 16 -5 1 -57 3 -116 4
l-108 2 0 -13z" />
  </g>
  <g transform="translate(0.000000,64.000000) scale(0.100000,-0.100000)" fill="#454445" stroke="none">
    <path d="M350 455 c0 -5 5 -17 10 -25 5 -8 10 -10 10 -5 0 6 -5 17 -10 25 -5
8 -10 11 -10 5z" />
    <path d="M370 384 l0 -15 10 6 c6 4 8 11 5 16 -9 14 -15 11 -15 -7z" />
    <path d="M230 355 c0 -8 4 -15 8 -15 5 0 9 7 9 15 0 8 -4 15 -9 15 -4 0 -8 -7
-8 -15z" />
    <path d="M397 293 c3 -7 6 -13 8 -13 2 0 5 6 8 13 l5 14 -13 0 -13 0 5 -14z" />
  </g>
  <g transform="translate(0.000000,64.000000) scale(0.100000,-0.100000)" fill="#76797c" stroke="none">
    <path d="M461 446 l-12 -14 9 -6 c6 -3 15 1 21 8 l12 14 -9 6 c-6 3 -15 -1
-21 -8z" />
    <path d="M401 376 l-12 -14 9 -6 c6 -3 15 1 21 8 l12 14 -9 6 c-6 3 -15 -1
-21 -8z" />
    <path d="M341 306 l-12 -14 9 -6 c6 -3 15 1 21 8 l12 14 -9 6 c-6 3 -15 -1
-21 -8z" />
  </g>
  <g transform="translate(0.000000,64.000000) scale(0.100000,-0.100000)" fill="#e7bea4" stroke="none">
    <path d="M230 366 l8 -8 18 10 18 10 -26 -1 -27 -2 9 -9z" />
    <path d="M330 359 l-25 -7 18 -1 18 -1 -7 -12 c-4 -7 1 -5 11 4 11 10 17 19
14 21 -2 2 -15 0 -29 -4z" />
    <path d="M115 110 c4 -6 11 -8 16 -5 14 9 11 15 -7 15 l-15 0 6 -10z" />
    <path d="M153 96 l-18 -21 24 20 c13 11 25 19 28 17 3 -2 7 -2 9 1 2 2 -3 4
-11 4 -8 0 -23 -10 -32 -21z" />
    <path d="M213 96 l-18 -21 24 20 c13 11 25 19 28 17 3 -2 7 -2 9 1 2 2 -3 4
-11 4 -8 0 -23 -10 -32 -21z" />
    <path d="M273 96 l-18 -21 24 20 c13 11 25 19 28 17 3 -2 7 -2 9 1 2 2 -3 4
-11 4 -8 0 -23 -10 -32 -21z" />
    <path d="M329 93 l-14 -18 16 12 c9 7 19 10 22 6 4 -3 7 -1 7 5 0 17 -16 15
-31 -5z" />
  </g>
  <g transform="translate(0.000000,64.000000) scale(0.100000,-0.100000)" fill="#6b6e71" stroke="none">
    <path d="M516 512 c-3 -5 1 -9 9 -9 8 0 15 4 15 9 0 4 -4 8 -9 8 -6 0 -12 -4
-15 -8z" />
    <path d="M455 439 c-3 -4 2 -6 10 -5 21 3 28 13 10 13 -9 0 -18 -4 -20 -8z" />
    <path d="M395 369 c-3 -4 2 -6 10 -5 21 3 28 13 10 13 -9 0 -18 -4 -20 -8z" />
    <path d="M335 299 c-3 -4 2 -6 10 -5 21 3 28 13 10 13 -9 0 -18 -4 -20 -8z" />
    <path d="M280 228 c0 -4 4 -8 9 -8 6 0 12 4 15 8 3 5 -1 9 -9 9 -8 0 -15 -4
-15 -9z" />
    <path d="M125 30 c3 -5 11 -10 16 -10 6 0 7 5 4 10 -3 6 -11 10 -16 10 -6 0
-7 -4 -4 -10z" />
  </g>
  <g transform="translate(0.000000,64.000000) scale(0.100000,-0.100000)" fill="#5f6468" stroke="none" />
  <g transform="translate(0.000000,64.000000) scale(0.100000,-0.100000)" fill="#d0d0d0" stroke="none">
    <path d="M350 364 l0 -15 10 6 c6 4 8 11 5 16 -9 14 -15 11 -15 -7z" />
    <path d="M226 301 c-4 -5 3 -15 14 -21 11 -6 18 -15 15 -20 l-6 -10 16 6 16 6
-13 12 c-7 6 -18 17 -24 24 l-12 14 -6 -11z" />
    <path d="M110 32 c0 -4 9 -8 19 -8 11 0 17 4 15 8 -7 10 -34 10 -34 0z" />
  </g>
  <g transform="translate(0.000000,64.000000) scale(0.100000,-0.100000)" fill="#adadad" stroke="none" />
  <g transform="translate(0.000000,64.000000) scale(0.100000,-0.100000)" fill="#52565a" stroke="none" />
  <g transform="translate(0.000000,64.000000) scale(0.100000,-0.100000)" fill="#949494" stroke="none">
    <path d="M353 373 c4 -3 1 -13 -6 -22 l-12 -16 17 14 c16 12 16 31 1 31 -4 0
-3 -3 0 -7z" />
  </g>
  <g transform="translate(0.000000,64.000000) scale(0.100000,-0.100000)" fill="#c99a7e" stroke="none" />
  <g transform="translate(0.000000,64.000000) scale(0.100000,-0.100000)" fill="#393939" stroke="none" />
  <g transform="translate(0.000000,64.000000) scale(0.100000,-0.100000)" fill="#bdbdbd" stroke="none" />
  <g transform="translate(0.000000,64.000000) scale(0.100000,-0.100000)" fill="#8a6f5f" stroke="none" />
  <g transform="translate(0.000000,64.000000) scale(0.100000,-0.100000)" fill="#a5826c" stroke="none" />
  <g transform="translate(0.000000,64.000000) scale(0.100000,-0.100000)" fill="#735646" stroke="none" />
</svg>