<svg width="64.000000pt" height="64.000000pt" viewBox="0 0 64.000000 64.000000" xmlns="http://www.w3.org/2000/svg">
  <g transform="translate(0.000000,64.000000) scale(0.100000,-0.100000)" fill="none" stroke="none">
    <path d="M0 432 l0 -207 45 3 45 4 0 29 0 28 31 36 c17 19 42 38 55 41 13 3
26 14 29 24 3 10 22 33 41 49 l35 31 35 0 c46 0 88 -25 110 -66 10 -18 28 -35
40 -38 12 -3 36 -22 53 -41 l31 -36 0 -29 0 -30 45 0 45 0 0 205 0 205 -320 0
-320 0 0 -208z" />
    <path d="M607 177 l-25 -42 -40 -23 -40 -22 -182 0 -183 0 -42 24 -41 25 -19
35 c-11 20 -23 36 -27 36 -5 0 -8 -47 -8 -105 l0 -105 320 0 320 0 0 110 c0
61 -2 110 -4 110 -2 0 -15 -19 -29 -43z" />
  </g>
  <g transform="translate(0.000000,64.000000) scale(0.100000,-0.100000)" fill="#e5e5e5" stroke="none">
    <path d="M400 440 c0 -5 5 -10 10 -10 6 0 10 5 10 10 0 6 -4 10 -10 10 -5 0
-10 -4 -10 -10z" />
    <path d="M173 233 l-123 -4 0 -18 c0 -23 38 -64 79 -85 l32 -17 192 4 c106 2
203 6 217 8 l25 4 -1 17 c-1 10 3 16 10 15 l11 -2 -2 22 -3 23 12 -3 c7 -1 13
5 15 15 l4 16 -143 1 c-79 1 -156 3 -173 4 -16 2 -85 2 -152 0z" />
    <path d="M0 211 c0 -6 5 -13 10 -16 l10 -6 0 15 c0 9 -4 16 -10 16 -5 0 -10
-4 -10 -9z" />
    <path d="M42 139 c2 -7 10 -15 17 -17 l14 -4 -5 13 c-2 7 -10 15 -17 17 l-13
5 4 -14z" />
  </g>
  <g transform="translate(0.000000,64.000000) scale(0.100000,-0.100000)" fill="#000000" stroke="none">
    <path d="M290 546 c0 -7 11 -21 25 -30 30 -20 35 -20 35 -2 0 7 -11 21 -25 30
-30 20 -35 20 -35 2z" />
    <path d="M210 526 c0 -7 11 -21 25 -30 30 -20 35 -20 35 -2 0 7 -11 21 -25 30
-30 20 -35 20 -35 2z" />
    <path d="M370 526 c0 -7 11 -21 25 -30 30 -20 35 -20 35 -2 0 7 -11 21 -25 30
-30 20 -35 20 -35 2z" />
    <path d="M236 449 c-19 -16 -38 -39 -41 -49 -3 -10 -16 -21 -29 -24 -13 -3
-38 -22 -55 -41 l-31 -36 0 -29 0 -30 -40 0 c-22 0 -40 -4 -40 -9 0 -41 52
-111 102 -137 l27 -14 193 0 193 0 31 19 c39 23 80 76 89 114 l7 27 -41 0 -41
0 0 30 0 29 -31 36 c-17 19 -42 38 -55 41 -13 3 -26 14 -29 24 -3 10 -22 33
-41 49 l-35 31 -49 0 -49 0 -35 -31z m139 -26 c5 -13 15 -23 22 -23 7 0 13 -4
13 -10 0 -5 -8 -10 -19 -10 -10 0 -30 -9 -45 -21 l-26 -20 -26 20 c-15 12 -35
21 -45 21 -11 0 -19 5 -19 10 l0 10 65 0 65 0 0 15 0 15 -27 0 c-16 0 -35 5
-43 10 l-15 11 45 -3 45 -3 10 -22z m-147 -86 c-16 -6 -28 -17 -28 -24 l0 -13
50 0 50 0 0 -20 0 -20 14 0 c7 0 16 9 19 20 l5 20 51 0 51 0 0 13 c0 7 -12 18
-27 24 l-28 11 42 1 c23 1 45 -3 48 -9 l6 -10 -15 0 c-9 0 -16 -6 -16 -14 l0
-15 38 -3 37 -3 3 -22 3 -23 -105 0 -106 0 0 -15 0 -15 146 0 146 0 -19 -32
c-11 -18 -34 -43 -53 -55 l-33 -23 -186 0 -186 0 -32 20 c-18 10 -39 32 -47
49 l-16 29 16 6 c9 3 67 6 130 6 l114 0 0 15 0 15 -96 0 -95 0 3 23 3 22 33 3
32 3 0 15 c0 8 -5 14 -11 14 -5 0 -7 5 -4 10 3 6 25 10 48 9 l42 -1 -27 -11z" />
  </g>
  <g transform="translate(0.000000,64.000000) scale(0.100000,-0.100000)" fill="#fed2b5" stroke="none">
    <path d="M298 413 l-58 -4 0 -12 c0 -15 55 -47 80 -47 10 0 32 8 49 18 l31 17
-2 15 c-4 17 -16 18 -100 13z" />
    <path d="M147 313 l-28 -4 3 -27 3 -27 93 -3 92 -3 0 31 0 30 -39 0 c-21 0
-51 2 -67 4 -16 2 -42 2 -57 -1z" />
    <path d="M387 312 l-48 -3 3 -27 3 -27 98 -3 97 -3 0 26 c0 14 -6 27 -12 29
-25 8 -94 12 -141 8z" />
  </g>
  <g transform="translate(0.000000,64.000000) scale(0.100000,-0.100000)" fill="#cdcdcd" stroke="none">
    <path d="M307 549 c7 -9 11 -18 8 -21 -3 -3 3 -11 12 -19 l18 -14 -12 16 c-7
9 -11 18 -8 21 3 3 -3 11 -12 19 l-18 14 12 -16z" />
    <path d="M227 529 c7 -9 10 -18 7 -22 -3 -3 3 -11 14 -18 l21 -13 -17 -13 -17
-13 28 12 28 12 -26 13 c-14 8 -23 18 -20 22 2 5 -3 15 -13 22 l-17 14 12 -16z" />
    <path d="M387 529 c7 -9 11 -18 8 -21 -3 -3 3 -11 12 -19 l18 -14 -12 16 c-7
9 -11 18 -8 21 3 3 -3 11 -12 19 l-18 14 12 -16z" />
    <path d="M351 476 c2 -2 15 -9 29 -15 l25 -12 -19 15 c-11 9 -24 16 -30 16 -5
0 -7 -2 -5 -4z" />
    <path d="M200 409 c-7 -11 -10 -23 -7 -25 2 -2 9 7 15 21 14 30 7 33 -8 4z" />
    <path d="M431 410 c14 -31 19 -36 19 -24 0 6 -7 19 -16 30 l-15 19 12 -25z" />
    <path d="M144 364 l-19 -15 25 12 c31 14 36 19 24 19 -6 0 -19 -7 -30 -16z" />
    <path d="M461 376 c2 -2 15 -9 29 -15 l25 -12 -19 15 c-11 9 -24 16 -30 16 -5
0 -7 -2 -5 -4z" />
    <path d="M90 309 c-7 -11 -10 -23 -7 -25 2 -2 9 7 15 21 14 30 7 33 -8 4z" />
    <path d="M541 310 c14 -31 19 -36 19 -24 0 6 -7 19 -16 30 l-15 19 12 -25z" />
    <path d="M40 180 c12 -23 35 -50 53 -60 l32 -20 194 0 194 0 34 21 34 21 19
42 c11 22 15 32 8 21 -7 -11 -27 -34 -44 -52 l-32 -33 -183 0 -182 0 -41 24
c-23 13 -48 36 -56 50 l-13 26 -19 0 -18 0 20 -40z" />
    <path d="M10 194 c0 -6 7 -19 16 -30 l15 -19 -12 25 c-14 31 -19 36 -19 24z" />
    <path d="M616 183 l-7 -18 12 12 c7 7 10 15 7 18 -3 3 -9 -2 -12 -12z" />
    <path d="M117 89 c7 -7 15 -10 18 -7 3 3 -2 9 -12 12 l-18 7 12 -12z" />
    <path d="M510 90 l-15 -10 12 0 c6 0 15 5 18 10 8 12 4 12 -15 0z" />
  </g>
  <g transform="translate(0.000000,64.000000) scale(0.100000,-0.100000)" fill="#f9b895" stroke="none">
    <path d="M350 420 c0 -5 7 -10 15 -10 8 0 15 5 15 10 0 6 -7 10 -15 10 -8 0
-15 -4 -15 -10z" />
    <path d="M215 400 c-9 -15 3 -30 24 -30 10 0 30 -9 44 -20 30 -24 50 -25 67
-5 7 8 26 19 43 23 17 4 32 13 35 20 l4 12 -17 0 c-10 0 -35 -10 -56 -22 l-39
-21 -35 19 c-19 10 -35 22 -35 26 0 12 -28 10 -35 -2z" />
    <path d="M180 321 c0 -5 7 -11 15 -15 l15 -5 0 14 c0 8 -7 15 -15 15 -8 0 -15
-4 -15 -9z" />
    <path d="M430 315 l0 -14 15 5 c8 4 15 10 15 15 0 5 -7 9 -15 9 -8 0 -15 -7
-15 -15z" />
    <path d="M107 303 c-4 -3 -7 -19 -7 -35 l0 -28 95 0 c52 0 95 -4 95 -8 0 -4 9
-8 20 -8 11 0 20 4 20 8 0 4 47 8 105 8 l105 0 0 13 0 12 -92 0 -93 0 1 23 1
22 -15 0 c-7 0 -16 -9 -19 -20 -3 -11 -15 -23 -27 -26 -12 -3 -53 -4 -91 -2
l-70 3 1 23 c1 21 -15 30 -29 15z" />
  </g>
  <g transform="translate(0.000000,64.000000) scale(0.100000,-0.100000)" fill="#fd918b" stroke="none">
    <path d="M262 448 c-7 -7 -12 -15 -12 -19 0 -3 19 -7 43 -8 51 -1 68 -4 83
-14 l12 -7 6 16 6 17 -17 13 c-22 17 -105 18 -121 2z" />
    <path d="M150 345 c-22 -27 -10 -30 103 -25 15 1 27 5 27 9 0 19 -28 31 -71
31 l-47 0 -12 -15z" />
    <path d="M372 348 c-25 -25 -16 -29 87 -29 18 0 36 2 39 5 2 3 -1 12 -8 21
l-12 15 -47 0 c-26 0 -52 -5 -59 -12z" />
  </g>
  <g transform="translate(0.000000,64.000000) scale(0.100000,-0.100000)" fill="#151110" stroke="none">
    <path d="M292 543 l4 -18 23 3 23 2 -6 -15 c-3 -8 -1 -15 5 -15 6 0 9 8 7 18
l-4 17 -23 -3 -23 -2 6 15 c3 8 1 15 -5 15 -6 0 -9 -8 -7 -17z" />
    <path d="M212 523 l4 -18 23 3 23 2 -6 -15 c-3 -8 -1 -15 5 -15 6 0 9 8 7 18
l-4 17 -23 -3 -23 -2 6 15 c3 8 1 15 -5 15 -6 0 -9 -8 -7 -17z" />
    <path d="M372 523 l4 -18 23 3 23 2 -6 -15 c-3 -8 -1 -15 5 -15 6 0 9 8 7 18
l-4 17 -23 -3 -23 -2 6 15 c3 8 1 15 -5 15 -6 0 -9 -8 -7 -17z" />
    <path d="M263 457 c1 -7 -6 -11 -15 -11 l-16 2 5 -14 c6 -17 20 -18 26 -1 l5
12 13 -12 c7 -7 18 -13 24 -13 5 0 2 5 -8 11 -9 6 -15 14 -12 19 3 4 -2 10
-10 14 l-15 5 3 -12z" />
    <path d="M362 463 l-13 -5 20 -14 20 -15 -5 -14 -6 -15 13 0 c7 0 9 3 6 6 -3
4 -2 15 3 24 l9 18 -17 -2 -17 -1 3 13 c1 6 1 12 0 11 -2 0 -9 -3 -16 -6z" />
    <path d="M211 388 c5 -10 15 -18 22 -17 l12 1 -12 4 c-7 3 -10 11 -7 18 l5 13
-15 0 -15 0 10 -19z" />
    <path d="M240 401 c0 -5 9 -7 20 -4 11 3 20 7 20 9 0 2 -9 4 -20 4 -11 0 -20
-4 -20 -9z" />
    <path d="M308 403 c6 -2 18 -2 25 0 6 3 1 5 -13 5 -14 0 -19 -2 -12 -5z" />
    <path d="M414 394 c3 -7 0 -15 -7 -18 l-12 -4 12 -1 c7 -1 17 7 22 17 l10 19
-15 0 -15 0 5 -13z" />
    <path d="M185 380 c-3 -5 -1 -10 4 -10 6 0 11 5 11 10 0 6 -2 10 -4 10 -3 0
-8 -4 -11 -10z" />
    <path d="M440 380 c0 -5 5 -10 11 -10 5 0 7 5 4 10 -3 6 -8 10 -11 10 -2 0 -4
-4 -4 -10z" />
    <path d="M153 357 c1 -7 -6 -11 -15 -11 l-16 2 5 -14 c3 -8 7 -14 9 -14 3 0
14 8 25 19 l20 18 -15 6 -16 6 3 -12z" />
    <path d="M253 362 l-13 -8 20 -17 c11 -9 22 -17 24 -17 2 0 6 6 9 14 l5 14
-16 -2 -17 -1 3 13 c2 14 1 14 -15 4z" />
    <path d="M373 357 c1 -7 -6 -11 -15 -11 l-16 2 5 -14 c6 -17 20 -18 26 -1 l5
12 13 -12 c7 -7 18 -13 24 -13 5 0 2 5 -8 11 -9 6 -15 14 -12 19 3 4 -2 10
-10 14 l-15 5 3 -12z" />
    <path d="M473 362 l-13 -8 20 -17 c11 -9 22 -17 24 -17 2 0 6 6 9 14 l5 14
-16 -2 -17 -1 3 13 c2 14 1 14 -15 4z" />
    <path d="M223 323 c4 -3 10 -3 14 0 3 4 0 7 -7 7 -7 0 -10 -3 -7 -7z" />
    <path d="M200 310 c0 -6 7 -10 15 -10 8 0 15 2 15 4 0 2 -7 6 -15 10 -8 3 -15
1 -15 -4z" />
    <path d="M420 310 l-15 -10 18 0 c9 0 17 5 17 10 0 12 -1 12 -20 0z" />
    <path d="M97 293 c3 -7 9 -10 14 -7 14 8 11 21 -5 21 l-14 0 5 -14z" />
    <path d="M138 303 c6 -2 18 -2 25 0 6 3 1 5 -13 5 -14 0 -19 -2 -12 -5z" />
    <path d="M258 303 c6 -2 18 -2 25 0 6 3 1 5 -13 5 -14 0 -19 -2 -12 -5z" />
    <path d="M323 292 c-3 -12 -9 -19 -14 -16 -5 3 -9 0 -9 -5 0 -6 6 -11 14 -11
14 0 30 39 20 49 -3 3 -7 -5 -11 -17z" />
    <path d="M358 303 c6 -2 18 -2 25 0 6 3 1 5 -13 5 -14 0 -19 -2 -12 -5z" />
    <path d="M478 303 c6 -2 18 -2 25 0 6 3 1 5 -13 5 -14 0 -19 -2 -12 -5z" />
    <path d="M520 299 c0 -15 18 -19 23 -6 l5 14 -14 0 c-8 0 -14 -4 -14 -8z" />
    <path d="M7 203 c3 -7 6 -13 8 -13 2 0 5 6 8 13 l5 14 -13 0 -13 0 5 -14z" />
    <path d="M47 156 l-7 -17 9 5 c11 7 33 -19 24 -28 -4 -4 1 -4 10 0 l18 7 -12
11 c-7 6 -18 17 -24 25 l-12 14 -6 -17z" />
    <path d="M562 145 l-23 -23 16 -6 16 -6 -5 9 c-7 11 19 33 28 24 4 -4 4 0 0
10 -3 9 -7 17 -8 16 0 -1 -11 -11 -24 -24z" />
    <path d="M113 105 l0 -13 14 5 c7 3 13 6 13 8 0 2 -6 5 -13 8 l-14 5 0 -13z" />
    <path d="M512 111 l-14 -8 14 -6 15 -5 0 14 c0 8 -1 14 -1 14 -1 0 -7 -4 -14
-9z" />
    <path d="M153 83 c4 -3 10 -3 14 0 3 4 0 7 -7 7 -7 0 -10 -3 -7 -7z" />
    <path d="M473 83 c4 -3 10 -3 14 0 3 4 0 7 -7 7 -7 0 -10 -3 -7 -7z" />
  </g>
  <g transform="translate(0.000000,64.000000) scale(0.100000,-0.100000)" fill="#3f3b38" stroke="none">
    <path d="M293 553 c4 -3 10 -3 14 0 3 4 0 7 -7 7 -7 0 -10 -3 -7 -7z" />
    <path d="M213 533 c4 -3 10 -3 14 0 3 4 0 7 -7 7 -7 0 -10 -3 -7 -7z" />
    <path d="M373 533 c4 -3 10 -3 14 0 3 4 0 7 -7 7 -7 0 -10 -3 -7 -7z" />
    <path d="M333 503 c4 -3 10 -3 14 0 3 4 0 7 -7 7 -7 0 -10 -3 -7 -7z" />
    <path d="M253 483 c4 -3 10 -3 14 0 3 4 0 7 -7 7 -7 0 -10 -3 -7 -7z" />
    <path d="M413 483 c4 -3 10 -3 14 0 3 4 0 7 -7 7 -7 0 -10 -3 -7 -7z" />
    <path d="M224 438 l-19 -23 23 19 c21 18 27 26 19 26 -2 0 -12 -10 -23 -22z" />
    <path d="M405 440 c10 -11 20 -20 23 -20 3 0 -3 9 -13 20 -10 11 -20 20 -23
20 -3 0 3 -9 13 -20z" />
    <path d="M343 415 c0 -8 4 -12 9 -9 4 3 8 9 8 15 0 5 -4 9 -8 9 -5 0 -9 -7 -9
-15z" />
    <path d="M235 400 c3 -5 8 -10 11 -10 2 0 4 5 4 10 0 6 -5 10 -11 10 -5 0 -7
-4 -4 -10z" />
    <path d="M273 403 c4 -3 10 -3 14 0 3 4 0 7 -7 7 -7 0 -10 -3 -7 -7z" />
    <path d="M385 400 c3 -5 10 -10 16 -10 5 0 9 5 9 10 0 6 -7 10 -16 10 l-15 0
6 -10z" />
    <path d="M119 343 l-14 -18 18 14 c9 7 17 15 17 17 0 8 -8 3 -21 -13z" />
    <path d="M500 356 c0 -2 8 -10 18 -17 l17 -14 -14 18 c-13 16 -21 21 -21 13z" />
    <path d="M165 310 c-3 -5 -1 -10 4 -10 6 0 11 5 11 10 0 6 -2 10 -4 10 -3 0
-8 -4 -11 -10z" />
    <path d="M123 303 c4 -3 10 -3 14 0 3 4 0 7 -7 7 -7 0 -10 -3 -7 -7z" />
    <path d="M243 303 c4 -3 10 -3 14 0 3 4 0 7 -7 7 -7 0 -10 -3 -7 -7z" />
    <path d="M283 303 c4 -3 10 -3 14 0 3 4 0 7 -7 7 -7 0 -10 -3 -7 -7z" />
    <path d="M343 303 c4 -3 10 -3 14 0 3 4 0 7 -7 7 -7 0 -10 -3 -7 -7z" />
    <path d="M383 303 c4 -3 10 -3 14 0 3 4 0 7 -7 7 -7 0 -10 -3 -7 -7z" />
    <path d="M463 303 c4 -3 10 -3 14 0 3 4 0 7 -7 7 -7 0 -10 -3 -7 -7z" />
    <path d="M503 303 c4 -3 10 -3 14 0 3 4 0 7 -7 7 -7 0 -10 -3 -7 -7z" />
    <path d="M301 274 l1 -19 5 13 c3 7 2 16 -1 19 -3 4 -6 -2 -5 -13z" />
    <path d="M1 224 l1 -19 5 13 c3 7 2 16 -1 19 -3 4 -6 -2 -5 -13z" />
    <path d="M290 230 c0 -7 3 -10 7 -7 3 4 3 10 0 14 -4 3 -7 0 -7 -7z" />
    <path d="M320 230 c0 -7 3 -10 7 -7 3 4 3 10 0 14 -4 3 -7 0 -7 -7z" />
    <path d="M630 230 c0 -7 3 -10 7 -7 3 4 3 10 0 14 -4 3 -7 0 -7 -7z" />
    <path d="M25 210 c3 -5 8 -10 11 -10 3 0 2 5 -1 10 -3 6 -8 10 -11 10 -3 0 -2
-4 1 -10z" />
    <path d="M30 156 c0 -2 8 -10 18 -17 l17 -14 -14 18 c-13 16 -21 21 -21 13z" />
    <path d="M589 143 l-14 -18 18 14 c9 7 17 15 17 17 0 8 -8 3 -21 -13z" />
  </g>
  <g transform="translate(0.000000,64.000000) scale(0.100000,-0.100000)" fill="#8a8684" stroke="none">
    <path d="M283 473 c4 -3 10 -3 14 0 3 4 0 7 -7 7 -7 0 -10 -3 -7 -7z" />
    <path d="M343 473 c4 -3 10 -3 14 0 3 4 0 7 -7 7 -7 0 -10 -3 -7 -7z" />
    <path d="M288 403 c7 -3 16 -2 19 1 4 3 -2 6 -13 5 l-19 -1 13 -5z" />
    <path d="M333 403 c4 -3 10 -3 14 0 3 4 0 7 -7 7 -7 0 -10 -3 -7 -7z" />
    <path d="M180 380 l-15 -10 12 0 c6 0 15 5 18 10 8 12 4 12 -15 0z" />
    <path d="M447 379 c7 -7 15 -10 18 -7 3 3 -2 9 -12 12 l-18 7 12 -12z" />
    <path d="M228 303 c7 -3 16 -2 19 1 4 3 -2 6 -13 5 l-19 -1 13 -5z" />
    <path d="M398 303 c7 -3 16 -2 19 1 4 3 -2 6 -13 5 l-19 -1 13 -5z" />
    <path d="M80 280 c0 -7 3 -10 7 -7 3 4 3 10 0 14 -4 3 -7 0 -7 -7z" />
    <path d="M550 280 c0 -7 3 -10 7 -7 3 4 3 10 0 14 -4 3 -7 0 -7 -7z" />
    <path d="M0 220 c0 -7 3 -10 7 -7 3 4 3 10 0 14 -4 3 -7 0 -7 -7z" />
    <path d="M630 220 c0 -7 3 -10 7 -7 3 4 3 10 0 14 -4 3 -7 0 -7 -7z" />
    <path d="M86 128 c5 -7 9 -17 9 -22 0 -5 7 -11 15 -13 l15 -5 -14 10 -13 10
11 3 11 4 -21 13 -21 13 8 -13z" />
    <path d="M536 125 l-20 -15 15 0 14 0 -15 -11 -15 -11 15 5 c8 2 15 8 15 13 0
5 4 15 8 22 10 15 7 15 -17 -3z" />
    <path d="M138 103 c7 -3 16 -2 19 1 4 3 -2 6 -13 5 l-19 -1 13 -5z" />
    <path d="M488 103 c7 -3 16 -2 19 1 4 3 -2 6 -13 5 l-19 -1 13 -5z" />
    <path d="M133 83 c4 -3 10 -3 14 0 3 4 0 7 -7 7 -7 0 -10 -3 -7 -7z" />
    <path d="M493 83 c4 -3 10 -3 14 0 3 4 0 7 -7 7 -7 0 -10 -3 -7 -7z" />
  </g>
  <g transform="translate(0.000000,64.000000) scale(0.100000,-0.100000)" fill="#e4817c" stroke="none">
    <path d="M268 449 c-23 -13 -23 -31 -1 -27 9 2 15 7 14 13 -1 5 6 12 16 16
l18 8 -15 0 c-8 0 -23 -4 -32 -10z m9 -16 c-4 -3 -10 -3 -14 0 -3 4 0 7 7 7 7
0 10 -3 7 -7z" />
    <path d="M333 453 c4 -3 10 -3 14 0 3 4 0 7 -7 7 -7 0 -10 -3 -7 -7z" />
    <path d="M308 423 c6 -2 18 -2 25 0 6 3 1 5 -13 5 -14 0 -19 -2 -12 -5z" />
    <path d="M149 340 l-24 -19 25 -1 25 0 -14 9 -13 9 28 10 29 10 -16 1 c-9 1
-27 -8 -40 -19z" />
    <path d="M244 348 l28 -10 -13 -9 -14 -9 25 0 25 1 -24 19 c-13 11 -31 20 -40
19 l-16 -1 29 -10z" />
    <path d="M369 340 l-24 -21 25 3 c14 2 24 7 22 13 -2 5 5 12 15 16 l18 8 -16
0 c-9 1 -27 -8 -40 -19z m18 -7 c-4 -3 -10 -3 -14 0 -3 4 0 7 7 7 7 0 10 -3 7
-7z" />
    <path d="M464 348 l28 -10 -13 -9 -14 -9 25 0 25 1 -24 19 c-13 11 -31 20 -40
19 l-16 -1 29 -10z" />
    <path d="M205 320 l-6 -10 15 6 c18 7 21 14 7 14 -6 0 -13 -4 -16 -10z" />
    <path d="M410 326 c0 -2 7 -7 16 -10 l15 -6 -6 10 c-6 10 -25 14 -25 6z" />
  </g>
  <g transform="translate(0.000000,64.000000) scale(0.100000,-0.100000)" fill="#262525" stroke="none">
    <path d="M293 473 c4 -3 10 -3 14 0 3 4 0 7 -7 7 -7 0 -10 -3 -7 -7z" />
    <path d="M333 473 c4 -3 10 -3 14 0 3 4 0 7 -7 7 -7 0 -10 -3 -7 -7z" />
    <path d="M338 423 c7 -3 16 -2 19 1 4 3 -2 6 -13 5 l-19 -1 13 -5z" />
    <path d="M166 315 c4 -8 10 -12 15 -9 11 6 2 24 -11 24 -5 0 -7 -7 -4 -15z" />
    <path d="M80 270 c0 -7 3 -10 7 -7 3 4 3 10 0 14 -4 3 -7 0 -7 -7z" />
    <path d="M550 270 c0 -7 3 -10 7 -7 3 4 3 10 0 14 -4 3 -7 0 -7 -7z" />
    <path d="M57 146 l-6 -14 20 -18 19 -18 13 14 12 13 -12 -7 c-7 -4 -18 -4 -24
0 l-11 7 11 7 12 7 -14 12 -15 12 -5 -15z" />
    <path d="M560 139 l-15 -9 13 0 13 0 -6 -11 c-4 -6 -14 -8 -24 -4 l-16 6 13
-13 12 -12 21 21 c22 22 14 38 -11 22z" />
    <path d="M143 83 c4 -3 10 -3 14 0 3 4 0 7 -7 7 -7 0 -10 -3 -7 -7z" />
    <path d="M483 83 c4 -3 10 -3 14 0 3 4 0 7 -7 7 -7 0 -10 -3 -7 -7z" />
  </g>
  <g transform="translate(0.000000,64.000000) scale(0.100000,-0.100000)" fill="#747372" stroke="none">
    <path d="M295 530 c3 -5 8 -10 11 -10 3 0 2 5 -1 10 -3 6 -8 10 -11 10 -3 0
-2 -4 1 -10z" />
    <path d="M335 530 c3 -5 8 -10 11 -10 3 0 2 5 -1 10 -3 6 -8 10 -11 10 -3 0
-2 -4 1 -10z" />
    <path d="M215 510 c3 -5 8 -10 11 -10 3 0 2 5 -1 10 -3 6 -8 10 -11 10 -3 0
-2 -4 1 -10z" />
    <path d="M255 510 c3 -5 8 -10 11 -10 3 0 2 5 -1 10 -3 6 -8 10 -11 10 -3 0
-2 -4 1 -10z" />
    <path d="M375 510 c3 -5 8 -10 11 -10 3 0 2 5 -1 10 -3 6 -8 10 -11 10 -3 0
-2 -4 1 -10z" />
    <path d="M415 510 c3 -5 8 -10 11 -10 3 0 2 5 -1 10 -3 6 -8 10 -11 10 -3 0
-2 -4 1 -10z" />
    <path d="M104 328 l-7 -11 11 7 c7 4 12 9 12 12 0 8 -9 4 -16 -8z" />
    <path d="M525 330 c3 -5 8 -10 11 -10 3 0 2 5 -1 10 -3 6 -8 10 -11 10 -3 0
-2 -4 1 -10z" />
    <path d="M300 290 c0 -7 3 -10 7 -7 3 4 3 10 0 14 -4 3 -7 0 -7 -7z" />
  </g>
  <g transform="translate(0.000000,64.000000) scale(0.100000,-0.100000)" fill="#fbc4a5" stroke="none">
    <path d="M235 400 c3 -5 8 -10 11 -10 3 0 2 5 -1 10 -3 6 -8 10 -11 10 -3 0
-2 -4 1 -10z" />
    <path d="M386 398 c7 -11 34 -10 34 1 0 6 -9 9 -19 8 -11 0 -17 -5 -15 -9z" />
    <path d="M254 378 l-7 -11 11 7 c12 7 16 16 8 16 -3 0 -8 -5 -12 -12z" />
    <path d="M375 380 c3 -5 8 -10 11 -10 3 0 2 5 -1 10 -3 6 -8 10 -11 10 -3 0
-2 -4 1 -10z" />
    <path d="M276 372 c-13 -21 43 -36 77 -20 l18 9 -7 11 -7 11 -11 -14 c-6 -8
-18 -14 -26 -14 -8 0 -20 6 -26 14 l-11 14 -7 -11z" />
    <path d="M173 315 c0 -8 4 -12 9 -9 5 3 6 10 3 15 -9 13 -12 11 -12 -6z" />
    <path d="M455 321 c-3 -5 -2 -12 3 -15 5 -3 9 1 9 9 0 17 -3 19 -12 6z" />
    <path d="M510 306 c0 -2 7 -9 15 -16 l15 -13 -6 17 c-3 9 -10 16 -15 16 -5 0
-9 -2 -9 -4z" />
    <path d="M120 280 c6 -11 13 -20 16 -20 2 0 0 9 -6 20 -6 11 -13 20 -16 20 -2
0 0 -9 6 -20z" />
    <path d="M340 280 c6 -11 13 -20 16 -20 2 0 0 9 -6 20 -6 11 -13 20 -16 20 -2
0 0 -9 6 -20z" />
  </g>
  <g transform="translate(0.000000,64.000000) scale(0.100000,-0.100000)" fill="#6f453e" stroke="none">
    <path d="M254 438 l-7 -11 11 7 c7 4 12 9 12 12 0 8 -9 4 -16 -8z" />
    <path d="M370 446 c0 -2 8 -10 18 -17 l17 -14 -14 18 c-13 16 -21 21 -21 13z" />
    <path d="M214 388 l-7 -11 11 7 c12 7 16 16 8 16 -3 0 -8 -5 -12 -12z" />
    <path d="M415 390 c3 -5 8 -10 11 -10 3 0 2 5 -1 10 -3 6 -8 10 -11 10 -3 0
-2 -4 1 -10z" />
    <path d="M293 343 l27 -28 28 28 27 28 -17 -7 c-10 -3 -18 -10 -18 -15 0 -5
-9 -9 -20 -9 -11 0 -20 4 -20 9 0 5 -8 12 -17 15 l-18 7 28 -28z" />
    <path d="M144 338 l-7 -11 11 7 c7 4 12 9 12 12 0 8 -9 4 -16 -8z" />
    <path d="M260 346 c0 -2 8 -10 18 -17 l17 -14 -14 18 c-13 16 -21 21 -21 13z" />
    <path d="M364 338 l-7 -11 11 7 c12 7 16 16 8 16 -3 0 -8 -5 -12 -12z" />
    <path d="M480 346 c0 -2 8 -10 18 -17 l17 -14 -14 18 c-13 16 -21 21 -21 13z" />
    <path d="M105 289 c-4 -6 -5 -12 -2 -15 2 -3 7 2 10 11 7 17 1 20 -8 4z" />
    <path d="M325 289 c-4 -6 -5 -12 -2 -15 2 -3 7 2 10 11 7 17 1 20 -8 4z" />
  </g>
  <g transform="translate(0.000000,64.000000) scale(0.100000,-0.100000)" fill="#3c2d26" stroke="none">
    <path d="M245 370 c27 -12 43 -12 25 0 -8 5 -22 9 -30 9 l-15 0 20 -9z" />
    <path d="M370 370 c-18 -12 -2 -12 25 0 l20 9 -15 0 c-8 0 -22 -4 -30 -9z" />
    <path d="M292 350 l5 -15 23 0 23 0 5 15 5 15 -16 -14 -17 -13 -17 13 -16 14
5 -15z" />
    <path d="M200 310 c0 -7 3 -10 7 -7 3 4 3 10 0 14 -4 3 -7 0 -7 -7z" />
    <path d="M430 310 c0 -7 3 -10 7 -7 3 4 3 10 0 14 -4 3 -7 0 -7 -7z" />
  </g>
  <g transform="translate(0.000000,64.000000) scale(0.100000,-0.100000)" fill="#e9af8e" stroke="none">
    <path d="M220 399 c0 -5 5 -7 10 -4 6 3 10 8 10 11 0 2 -4 4 -10 4 -5 0 -10
-5 -10 -11z" />
    <path d="M405 400 c3 -5 8 -10 11 -10 2 0 4 5 4 10 0 6 -5 10 -11 10 -5 0 -7
-4 -4 -10z" />
    <path d="M243 373 c4 -3 10 -3 14 0 3 4 0 7 -7 7 -7 0 -10 -3 -7 -7z" />
    <path d="M303 345 l17 -19 18 19 17 19 -17 -13 -18 -13 -17 13 -18 13 18 -19z" />
    <path d="M110 299 c0 -5 5 -7 10 -4 6 3 10 8 10 11 0 2 -4 4 -10 4 -5 0 -10
-5 -10 -11z" />
    <path d="M295 300 c3 -5 8 -10 11 -10 2 0 4 5 4 10 0 6 -5 10 -11 10 -5 0 -7
-4 -4 -10z" />
    <path d="M330 299 c0 -5 5 -7 10 -4 6 3 10 8 10 11 0 2 -4 4 -10 4 -5 0 -10
-5 -10 -11z" />
    <path d="M101 264 l1 -19 5 13 c3 7 2 16 -1 19 -3 4 -6 -2 -5 -13z" />
    <path d="M320 270 c0 -7 3 -10 7 -7 3 4 3 10 0 14 -4 3 -7 0 -7 -7z" />
    <path d="M531 264 l1 -19 5 13 c3 7 2 16 -1 19 -3 4 -6 -2 -5 -13z" />
  </g>
  <g transform="translate(0.000000,64.000000) scale(0.100000,-0.100000)" fill="#585553" stroke="none">
    <path d="M530 280 c0 -7 3 -10 7 -7 3 4 3 10 0 14 -4 3 -7 0 -7 -7z" />
    <path d="M30 204 c0 -6 7 -19 16 -30 l15 -19 -12 25 c-14 31 -19 36 -19 24z" />
    <path d="M584 168 l-7 -11 11 7 c7 4 12 9 12 12 0 8 -9 4 -16 -8z" />
    <path d="M75 110 c3 -5 8 -10 11 -10 3 0 2 5 -1 10 -3 6 -8 10 -11 10 -3 0 -2
-4 1 -10z" />
    <path d="M554 108 l-7 -11 11 7 c7 4 12 9 12 12 0 8 -9 4 -16 -8z" />
  </g>
  <g transform="translate(0.000000,64.000000) scale(0.100000,-0.100000)" fill="#bb937c" stroke="none">
    <path d="M223 403 c4 -3 10 -3 14 0 3 4 0 7 -7 7 -7 0 -10 -3 -7 -7z" />
    <path d="M403 403 c4 -3 10 -3 14 0 3 4 0 7 -7 7 -7 0 -10 -3 -7 -7z" />
    <path d="M383 373 c4 -3 10 -3 14 0 3 4 0 7 -7 7 -7 0 -10 -3 -7 -7z" />
    <path d="M113 303 c4 -3 10 -3 14 0 3 4 0 7 -7 7 -7 0 -10 -3 -7 -7z" />
    <path d="M293 303 c4 -3 10 -3 14 0 3 4 0 7 -7 7 -7 0 -10 -3 -7 -7z" />
    <path d="M333 303 c4 -3 10 -3 14 0 3 4 0 7 -7 7 -7 0 -10 -3 -7 -7z" />
    <path d="M513 303 c4 -3 10 -3 14 0 3 4 0 7 -7 7 -7 0 -10 -3 -7 -7z" />
  </g>
  <g transform="translate(0.000000,64.000000) scale(0.100000,-0.100000)" fill="#b1b1b1" stroke="none">
    <path d="M65 150 c10 -11 20 -20 23 -20 3 0 -3 9 -13 20 -10 11 -20 20 -23 20
-3 0 3 -9 13 -20z" />
    <path d="M153 103 c4 -3 10 -3 14 0 3 4 0 7 -7 7 -7 0 -10 -3 -7 -7z" />
    <path d="M473 103 c4 -3 10 -3 14 0 3 4 0 7 -7 7 -7 0 -10 -3 -7 -7z" />
  </g>
  <g transform="translate(0.000000,64.000000) scale(0.100000,-0.100000)" fill="#a6605b" stroke="none">
    <path d="M283 453 c4 -3 10 -3 14 0 3 4 0 7 -7 7 -7 0 -10 -3 -7 -7z" />
    <path d="M343 453 c4 -3 10 -3 14 0 3 4 0 7 -7 7 -7 0 -10 -3 -7 -7z" />
    <path d="M173 353 c4 -3 10 -3 14 0 3 4 0 7 -7 7 -7 0 -10 -3 -7 -7z" />
    <path d="M233 353 c4 -3 10 -3 14 0 3 4 0 7 -7 7 -7 0 -10 -3 -7 -7z" />
    <path d="M393 353 c4 -3 10 -3 14 0 3 4 0 7 -7 7 -7 0 -10 -3 -7 -7z" />
    <path d="M453 353 c4 -3 10 -3 14 0 3 4 0 7 -7 7 -7 0 -10 -3 -7 -7z" />
    <path d="M163 323 c4 -3 10 -3 14 0 3 4 0 7 -7 7 -7 0 -10 -3 -7 -7z" />
    <path d="M463 323 c4 -3 10 -3 14 0 3 4 0 7 -7 7 -7 0 -10 -3 -7 -7z" />
  </g>
  <g transform="translate(0.000000,64.000000) scale(0.100000,-0.100000)" fill="#454545" stroke="none" />
  <g transform="translate(0.000000,64.000000) scale(0.100000,-0.100000)" fill="#7d5e4f" stroke="none" />
  <g transform="translate(0.000000,64.000000) scale(0.100000,-0.100000)" fill="#613332" stroke="none">
    <path d="M245 430 c-3 -5 -1 -10 4 -10 6 0 11 5 11 10 0 6 -2 10 -4 10 -3 0
-8 -4 -11 -10z" />
    <path d="M134 328 l-7 -11 11 7 c7 4 12 9 12 12 0 8 -9 4 -16 -8z" />
    <path d="M354 328 l-7 -11 11 7 c7 4 12 9 12 12 0 8 -9 4 -16 -8z" />
  </g>
  <g transform="translate(0.000000,64.000000) scale(0.100000,-0.100000)" fill="#c76c68" stroke="none">
    <path d="M250 430 c0 -7 3 -10 7 -7 3 4 3 10 0 14 -4 3 -7 0 -7 -7z" />
  </g>
</svg>